<mxfile host="app.diagrams.net" modified="2020-11-20T05:38:34.930Z" agent="5.0 (Windows NT 10.0; Win64; x64) AppleWebKit/537.36 (KHTML, like Gecko) Chrome/86.0.4240.198 Safari/537.36" etag="bS4ZGZ3xRUs4Ymtxh0ua" version="13.10.0" type="github">
  <diagram id="Ns8TB9k6B7BA3dVQWUGG" name="Page-1">
    <mxGraphModel dx="1422" dy="762" grid="1" gridSize="10" guides="1" tooltips="1" connect="1" arrows="1" fold="1" page="1" pageScale="1" pageWidth="827" pageHeight="1169" math="0" shadow="0">
      <root>
        <mxCell id="0" />
        <mxCell id="1" parent="0" />
        <mxCell id="yzXI6I4ADqwadGUlfEkV-5" style="edgeStyle=none;rounded=0;orthogonalLoop=1;jettySize=auto;html=1;exitX=1;exitY=0.5;exitDx=0;exitDy=0;startArrow=none;startFill=0;endArrow=classic;endFill=1;fontSize=9;entryX=0.5;entryY=1;entryDx=0;entryDy=0;" parent="1" source="xr3ACkX85t0AnBMF9TQf-9" target="MaFsSqHFL_aDIbuKhQJ8-15" edge="1">
          <mxGeometry relative="1" as="geometry">
            <mxPoint x="780" y="180" as="targetPoint" />
          </mxGeometry>
        </mxCell>
        <mxCell id="NzumEa65dsL6FT-qP8ik-1" value="Data" style="edgeLabel;html=1;align=center;verticalAlign=middle;resizable=0;points=[];fontSize=9;" parent="yzXI6I4ADqwadGUlfEkV-5" vertex="1" connectable="0">
          <mxGeometry x="-0.2117" y="1" relative="1" as="geometry">
            <mxPoint as="offset" />
          </mxGeometry>
        </mxCell>
        <mxCell id="xr3ACkX85t0AnBMF9TQf-9" value="Key Systems Used When Maintaining Family Type and Person Details" style="whiteSpace=wrap;html=1;labelPosition=center;verticalLabelPosition=middle;align=center;verticalAlign=middle;" parent="1" vertex="1">
          <mxGeometry x="460" y="190" width="280" height="210" as="geometry" />
        </mxCell>
        <mxCell id="COK3GCsZX3T8CLw1UcPQ-108" style="edgeStyle=none;rounded=0;orthogonalLoop=1;jettySize=auto;html=1;exitX=1;exitY=0.5;exitDx=0;exitDy=0;entryX=0;entryY=0.5;entryDx=0;entryDy=0;startArrow=classic;startFill=1;endArrow=none;endFill=0;fontSize=12;" parent="1" source="xr3ACkX85t0AnBMF9TQf-9" target="COK3GCsZX3T8CLw1UcPQ-107" edge="1">
          <mxGeometry relative="1" as="geometry">
            <mxPoint x="357" y="397" as="sourcePoint" />
          </mxGeometry>
        </mxCell>
        <mxCell id="xr3ACkX85t0AnBMF9TQf-16" value="Cover changes &amp;amp;&lt;br&gt;person maintenance" style="edgeLabel;html=1;align=center;verticalAlign=middle;resizable=0;points=[];fontSize=9;" parent="COK3GCsZX3T8CLw1UcPQ-108" vertex="1" connectable="0">
          <mxGeometry x="0.1915" y="2" relative="1" as="geometry">
            <mxPoint as="offset" />
          </mxGeometry>
        </mxCell>
        <mxCell id="COK3GCsZX3T8CLw1UcPQ-64" style="edgeStyle=none;rounded=0;orthogonalLoop=1;jettySize=auto;html=1;exitX=0;exitY=0.5;exitDx=0;exitDy=0;entryX=1;entryY=0.5;entryDx=0;entryDy=0;startArrow=none;startFill=0;endArrow=classic;endFill=1;" parent="1" source="K3VQ6Ar4vp130KD2iZYr-3" target="xr3ACkX85t0AnBMF9TQf-9" edge="1">
          <mxGeometry relative="1" as="geometry">
            <mxPoint x="357" y="397" as="targetPoint" />
          </mxGeometry>
        </mxCell>
        <mxCell id="xr3ACkX85t0AnBMF9TQf-17" value="Cover changes &amp;amp;&lt;br&gt;person maintenance" style="edgeLabel;html=1;align=center;verticalAlign=middle;resizable=0;points=[];fontSize=9;" parent="COK3GCsZX3T8CLw1UcPQ-64" vertex="1" connectable="0">
          <mxGeometry x="-0.5638" relative="1" as="geometry">
            <mxPoint x="-25.07" y="1.27" as="offset" />
          </mxGeometry>
        </mxCell>
        <mxCell id="COK3GCsZX3T8CLw1UcPQ-36" style="edgeStyle=none;rounded=0;orthogonalLoop=1;jettySize=auto;html=1;exitX=0.5;exitY=0;exitDx=0;exitDy=0;endArrow=classic;endFill=1;startArrow=none;startFill=0;entryX=0.5;entryY=1;entryDx=0;entryDy=0;" parent="1" source="COK3GCsZX3T8CLw1UcPQ-39" target="xr3ACkX85t0AnBMF9TQf-9" edge="1">
          <mxGeometry relative="1" as="geometry">
            <mxPoint x="532" y="312" as="sourcePoint" />
            <mxPoint x="357" y="397" as="targetPoint" />
          </mxGeometry>
        </mxCell>
        <mxCell id="xr3ACkX85t0AnBMF9TQf-14" value="Cover changes &amp;amp;&lt;br&gt;person maintenance" style="edgeLabel;html=1;align=center;verticalAlign=middle;resizable=0;points=[];fontSize=9;" parent="COK3GCsZX3T8CLw1UcPQ-36" vertex="1" connectable="0">
          <mxGeometry x="-0.233" y="-1" relative="1" as="geometry">
            <mxPoint as="offset" />
          </mxGeometry>
        </mxCell>
        <mxCell id="COK3GCsZX3T8CLw1UcPQ-62" style="edgeStyle=none;rounded=0;orthogonalLoop=1;jettySize=auto;html=1;exitX=0;exitY=1;exitDx=0;exitDy=0;entryX=1;entryY=0.5;entryDx=0;entryDy=0;startArrow=none;startFill=0;endArrow=classic;endFill=1;" parent="1" source="COK3GCsZX3T8CLw1UcPQ-42" target="xr3ACkX85t0AnBMF9TQf-9" edge="1">
          <mxGeometry relative="1" as="geometry">
            <mxPoint x="357" y="397" as="targetPoint" />
          </mxGeometry>
        </mxCell>
        <mxCell id="xr3ACkX85t0AnBMF9TQf-15" value="New joins,&amp;nbsp;&lt;br&gt;cover changes &amp;amp;&lt;br&gt;person maintenance" style="edgeLabel;html=1;align=center;verticalAlign=middle;resizable=0;points=[];fontSize=9;" parent="COK3GCsZX3T8CLw1UcPQ-62" vertex="1" connectable="0">
          <mxGeometry x="-0.2891" y="1" relative="1" as="geometry">
            <mxPoint x="-16.21" y="-8.48" as="offset" />
          </mxGeometry>
        </mxCell>
        <mxCell id="oZ2ZN3utCK6ckdLz9zwI-11" style="edgeStyle=orthogonalEdgeStyle;curved=1;orthogonalLoop=1;jettySize=auto;html=1;exitX=0.5;exitY=0;exitDx=0;exitDy=0;entryX=0.14;entryY=-0.04;entryDx=0;entryDy=0;entryPerimeter=0;" parent="1" source="COK3GCsZX3T8CLw1UcPQ-7" target="3j8oUQN09gYwykHITEtm-5" edge="1">
          <mxGeometry relative="1" as="geometry" />
        </mxCell>
        <mxCell id="oZ2ZN3utCK6ckdLz9zwI-12" value="&lt;font style=&quot;font-size: 9px&quot;&gt;Exceptions&lt;/font&gt;" style="text;html=1;align=center;verticalAlign=middle;resizable=0;points=[];labelBackgroundColor=#ffffff;" parent="oZ2ZN3utCK6ckdLz9zwI-11" vertex="1" connectable="0">
          <mxGeometry x="0.0172" y="8" relative="1" as="geometry">
            <mxPoint as="offset" />
          </mxGeometry>
        </mxCell>
        <mxCell id="COK3GCsZX3T8CLw1UcPQ-7" value="" style="shape=image;imageAspect=0;aspect=fixed;verticalLabelPosition=bottom;verticalAlign=top;image=https://image.flaticon.com/icons/svg/1447/1447743.svg;" parent="1" vertex="1">
          <mxGeometry x="291" y="133.13" width="50" height="50" as="geometry" />
        </mxCell>
        <mxCell id="COK3GCsZX3T8CLw1UcPQ-25" style="edgeStyle=none;rounded=0;orthogonalLoop=1;jettySize=auto;html=1;exitX=0.5;exitY=0;exitDx=0;exitDy=0;entryX=0.5;entryY=1;entryDx=0;entryDy=0;endArrow=classic;endFill=1;" parent="1" source="3j8oUQN09gYwykHITEtm-4" target="xr3ACkX85t0AnBMF9TQf-9" edge="1">
          <mxGeometry relative="1" as="geometry">
            <mxPoint x="332" y="372" as="targetPoint" />
          </mxGeometry>
        </mxCell>
        <mxCell id="COK3GCsZX3T8CLw1UcPQ-26" value="New joins &amp;amp; &lt;br&gt;cover changes" style="text;html=1;align=center;verticalAlign=middle;resizable=0;points=[];labelBackgroundColor=#ffffff;fontSize=9;" parent="COK3GCsZX3T8CLw1UcPQ-25" vertex="1" connectable="0">
          <mxGeometry x="-0.2748" y="-1" relative="1" as="geometry">
            <mxPoint x="-1.4000000000000004" y="-15.749999999999996" as="offset" />
          </mxGeometry>
        </mxCell>
        <mxCell id="3j8oUQN09gYwykHITEtm-4" value="Sales contact centre" style="shape=image;imageAspect=0;aspect=fixed;verticalLabelPosition=bottom;verticalAlign=top;image=https://image.flaticon.com/icons/svg/1067/1067566.svg;" parent="1" vertex="1">
          <mxGeometry x="575.63" y="535" width="50" height="50" as="geometry" />
        </mxCell>
        <mxCell id="COK3GCsZX3T8CLw1UcPQ-23" style="edgeStyle=none;rounded=0;orthogonalLoop=1;jettySize=auto;html=1;exitX=1;exitY=0.5;exitDx=0;exitDy=0;endArrow=classic;endFill=1;entryX=0;entryY=0.5;entryDx=0;entryDy=0;" parent="1" source="3j8oUQN09gYwykHITEtm-5" target="xr3ACkX85t0AnBMF9TQf-9" edge="1">
          <mxGeometry relative="1" as="geometry">
            <mxPoint x="420" y="210" as="targetPoint" />
          </mxGeometry>
        </mxCell>
        <mxCell id="COK3GCsZX3T8CLw1UcPQ-24" value="New joins,&amp;nbsp;&lt;br&gt;cover changes &amp;amp;&lt;br&gt;person maintenance" style="text;html=1;align=center;verticalAlign=middle;resizable=0;points=[];labelBackgroundColor=#ffffff;fontSize=9;" parent="COK3GCsZX3T8CLw1UcPQ-23" vertex="1" connectable="0">
          <mxGeometry x="-0.3307" y="2" relative="1" as="geometry">
            <mxPoint x="19.919999999999998" y="19.32" as="offset" />
          </mxGeometry>
        </mxCell>
        <mxCell id="3j8oUQN09gYwykHITEtm-5" value="Digital sales&#xa;team and bots" style="shape=image;imageAspect=0;aspect=fixed;verticalLabelPosition=bottom;verticalAlign=top;image=https://image.flaticon.com/icons/svg/1640/1640809.svg;imageBackground=#ffffff;" parent="1" vertex="1">
          <mxGeometry x="261" y="163.13" width="50" height="50" as="geometry" />
        </mxCell>
        <mxCell id="COK3GCsZX3T8CLw1UcPQ-68" style="edgeStyle=none;rounded=0;orthogonalLoop=1;jettySize=auto;html=1;exitX=0.5;exitY=0;exitDx=0;exitDy=0;startArrow=none;startFill=0;endArrow=classic;endFill=1;entryX=0.5;entryY=1;entryDx=0;entryDy=0;" parent="1" source="3j8oUQN09gYwykHITEtm-6" target="xr3ACkX85t0AnBMF9TQf-9" edge="1">
          <mxGeometry relative="1" as="geometry">
            <mxPoint x="594" y="410" as="targetPoint" />
            <mxPoint x="513" y="535" as="sourcePoint" />
          </mxGeometry>
        </mxCell>
        <mxCell id="COK3GCsZX3T8CLw1UcPQ-72" value="New joins,&amp;nbsp;&lt;br&gt;cover changes &amp;amp;&lt;br&gt;person maintenance" style="text;html=1;align=center;verticalAlign=middle;resizable=0;points=[];labelBackgroundColor=#ffffff;fontSize=9;" parent="COK3GCsZX3T8CLw1UcPQ-68" vertex="1" connectable="0">
          <mxGeometry x="-0.1625" y="-1" relative="1" as="geometry">
            <mxPoint x="-18.81000000000001" y="11.079999999999998" as="offset" />
          </mxGeometry>
        </mxCell>
        <mxCell id="3j8oUQN09gYwykHITEtm-6" value="Retail store" style="shape=image;imageAspect=0;aspect=fixed;verticalLabelPosition=bottom;verticalAlign=top;image=https://image.flaticon.com/icons/svg/1326/1326546.svg;" parent="1" vertex="1">
          <mxGeometry x="460" y="535" width="50" height="50" as="geometry" />
        </mxCell>
        <mxCell id="COK3GCsZX3T8CLw1UcPQ-11" style="edgeStyle=none;rounded=0;orthogonalLoop=1;jettySize=auto;html=1;exitX=0.5;exitY=1;exitDx=0;exitDy=0;entryX=0;entryY=0.5;entryDx=0;entryDy=0;" parent="1" source="3j8oUQN09gYwykHITEtm-7" target="3j8oUQN09gYwykHITEtm-5" edge="1">
          <mxGeometry relative="1" as="geometry" />
        </mxCell>
        <mxCell id="COK3GCsZX3T8CLw1UcPQ-114" value="&lt;font style=&quot;font-size: 9px&quot;&gt;Web form&lt;/font&gt;" style="text;html=1;align=center;verticalAlign=middle;resizable=0;points=[];labelBackgroundColor=#ffffff;fontSize=12;" parent="COK3GCsZX3T8CLw1UcPQ-11" vertex="1" connectable="0">
          <mxGeometry x="-0.2495" y="-2" relative="1" as="geometry">
            <mxPoint as="offset" />
          </mxGeometry>
        </mxCell>
        <mxCell id="COK3GCsZX3T8CLw1UcPQ-6" style="edgeStyle=none;rounded=0;orthogonalLoop=1;jettySize=auto;html=1;exitX=1;exitY=0.5;exitDx=0;exitDy=0;entryX=0;entryY=0.5;entryDx=0;entryDy=0;startArrow=none;startFill=0;" parent="1" source="3j8oUQN09gYwykHITEtm-9" target="3j8oUQN09gYwykHITEtm-5" edge="1">
          <mxGeometry relative="1" as="geometry" />
        </mxCell>
        <mxCell id="COK3GCsZX3T8CLw1UcPQ-113" value="&lt;font style=&quot;font-size: 9px ; line-height: 0%&quot;&gt;Web form&lt;br style=&quot;font-size: 9px&quot;&gt;&lt;/font&gt;" style="text;html=1;align=center;verticalAlign=middle;resizable=0;points=[];labelBackgroundColor=#ffffff;fontSize=9;spacing=0;" parent="COK3GCsZX3T8CLw1UcPQ-6" vertex="1" connectable="0">
          <mxGeometry x="-0.3495" y="-2" relative="1" as="geometry">
            <mxPoint x="12.969999999999999" y="-1.7699999999999996" as="offset" />
          </mxGeometry>
        </mxCell>
        <mxCell id="3j8oUQN09gYwykHITEtm-9" value="HI website&#xa;and extranets" style="shape=image;imageAspect=0;aspect=fixed;verticalLabelPosition=bottom;verticalAlign=top;image=https://image.flaticon.com/icons/svg/811/811768.svg;" parent="1" vertex="1">
          <mxGeometry x="130" y="163.13" width="50" height="50" as="geometry" />
        </mxCell>
        <mxCell id="COK3GCsZX3T8CLw1UcPQ-17" style="edgeStyle=none;rounded=0;orthogonalLoop=1;jettySize=auto;html=1;exitX=1;exitY=0.5;exitDx=0;exitDy=0;entryX=0;entryY=0.5;entryDx=0;entryDy=0;endArrow=classic;endFill=1;startArrow=classic;startFill=1;" parent="1" source="3j8oUQN09gYwykHITEtm-12" target="COK3GCsZX3T8CLw1UcPQ-16" edge="1">
          <mxGeometry relative="1" as="geometry" />
        </mxCell>
        <mxCell id="COK3GCsZX3T8CLw1UcPQ-79" value="Data" style="text;html=1;align=center;verticalAlign=middle;resizable=0;points=[];labelBackgroundColor=#ffffff;fontSize=9;" parent="COK3GCsZX3T8CLw1UcPQ-17" vertex="1" connectable="0">
          <mxGeometry x="0.3226" y="-1" relative="1" as="geometry">
            <mxPoint x="-11" as="offset" />
          </mxGeometry>
        </mxCell>
        <mxCell id="oZ2ZN3utCK6ckdLz9zwI-6" style="edgeStyle=none;rounded=0;orthogonalLoop=1;jettySize=auto;html=1;exitX=0.5;exitY=0;exitDx=0;exitDy=0;entryX=0.5;entryY=1;entryDx=0;entryDy=0;" parent="1" source="COK3GCsZX3T8CLw1UcPQ-16" target="DEALhcKuOMUuAGFNjWsx-153" edge="1">
          <mxGeometry relative="1" as="geometry" />
        </mxCell>
        <mxCell id="oZ2ZN3utCK6ckdLz9zwI-8" value="&lt;font style=&quot;font-size: 9px;&quot;&gt;Exceptions&lt;/font&gt;" style="text;html=1;align=center;verticalAlign=middle;resizable=0;points=[];labelBackgroundColor=#ffffff;fontSize=9;" parent="oZ2ZN3utCK6ckdLz9zwI-6" vertex="1" connectable="0">
          <mxGeometry x="-0.3296" y="1" relative="1" as="geometry">
            <mxPoint x="6.53" y="1.33" as="offset" />
          </mxGeometry>
        </mxCell>
        <mxCell id="3j8oUQN09gYwykHITEtm-12" value="OSHC portal" style="shape=image;imageAspect=0;aspect=fixed;verticalLabelPosition=bottom;verticalAlign=top;image=https://image.flaticon.com/icons/svg/811/811768.svg;" parent="1" vertex="1">
          <mxGeometry x="204.6" y="545" width="50" height="50" as="geometry" />
        </mxCell>
        <mxCell id="COK3GCsZX3T8CLw1UcPQ-8" style="edgeStyle=none;rounded=0;orthogonalLoop=1;jettySize=auto;html=1;exitX=1;exitY=0.5;exitDx=0;exitDy=0;entryX=0;entryY=0.5;entryDx=0;entryDy=0;" parent="1" source="3j8oUQN09gYwykHITEtm-13" target="3j8oUQN09gYwykHITEtm-12" edge="1">
          <mxGeometry relative="1" as="geometry" />
        </mxCell>
        <mxCell id="3j8oUQN09gYwykHITEtm-13" value="Agent" style="shape=image;imageAspect=0;aspect=fixed;verticalLabelPosition=bottom;verticalAlign=top;image=https://image.flaticon.com/icons/svg/2300/2300359.svg;" parent="1" vertex="1">
          <mxGeometry x="130" y="545" width="50" height="50" as="geometry" />
        </mxCell>
        <mxCell id="xr3ACkX85t0AnBMF9TQf-12" style="rounded=0;orthogonalLoop=1;jettySize=auto;html=1;exitX=0.5;exitY=0;exitDx=0;exitDy=0;fontSize=9;entryX=0;entryY=0.5;entryDx=0;entryDy=0;" parent="1" source="COK3GCsZX3T8CLw1UcPQ-14" target="xr3ACkX85t0AnBMF9TQf-9" edge="1">
          <mxGeometry relative="1" as="geometry">
            <mxPoint x="350" y="450" as="targetPoint" />
          </mxGeometry>
        </mxCell>
        <mxCell id="xr3ACkX85t0AnBMF9TQf-13" value="New joins,&amp;nbsp;&lt;br&gt;cover changes &amp;amp;&lt;br&gt;person maintenance" style="edgeLabel;html=1;align=center;verticalAlign=middle;resizable=0;points=[];fontSize=9;" parent="xr3ACkX85t0AnBMF9TQf-12" vertex="1" connectable="0">
          <mxGeometry x="0.2155" y="-1" relative="1" as="geometry">
            <mxPoint x="-18.95" y="53.18" as="offset" />
          </mxGeometry>
        </mxCell>
        <mxCell id="COK3GCsZX3T8CLw1UcPQ-14" value="" style="shape=image;imageAspect=0;aspect=fixed;verticalLabelPosition=bottom;verticalAlign=top;image=https://image.flaticon.com/icons/svg/1447/1447743.svg;" parent="1" vertex="1">
          <mxGeometry x="364" y="515" width="50" height="50" as="geometry" />
        </mxCell>
        <mxCell id="COK3GCsZX3T8CLw1UcPQ-16" value="Bulk enrolment&#xa;and bots" style="shape=image;imageAspect=0;aspect=fixed;verticalLabelPosition=bottom;verticalAlign=top;image=https://image.flaticon.com/icons/svg/2286/2286676.svg;imageBackground=#ffffff;" parent="1" vertex="1">
          <mxGeometry x="334" y="545" width="50" height="50" as="geometry" />
        </mxCell>
        <mxCell id="COK3GCsZX3T8CLw1UcPQ-58" value="Apollo" style="shape=image;verticalLabelPosition=bottom;labelBackgroundColor=#ffffff;verticalAlign=top;aspect=fixed;imageAspect=0;image=data:image/png,iVBORw0KGgoAAAANSUhEUgAAAFsAAABGCAYAAACjfujcAAAVMklEQVR4Xu1cd3yUZbZ+pmX6pGcmDVBBYgwtUkJVkBIgFLGDi6grNrh6vet1LVjRdd1d3bVhWQtXRUSR3pQSCE0IXQgdRMjMJJNJJm36993feecb0mYykzDB4f7u+2fylfd73vOe95znPGdE+OwsjytlcDxAsxWLANGVMumGeYquCLAJYA8PuVyEeLkEZrsXvIcHpFcW4tEPNgeA4zG1mxqPXqdDJ40EhytdeP2ADUUXHIBMfMWYeHSDLVj0szfE4rUb4puAanNxuGezBStP1wExVwbg0Q22i8PDOTrMG5wY0HornF6MXGvGfrPzirDw6AXbzSFXL8eWcQaoW3EVO8ocGL3GjFry4XRwRvGITrA5QCbisW6sHsNTlSHhe35PJV4rrop6dxKdYJP76KHDvEGB3Udz9MvtXvRdYcQ5myeqI5ToA9vLI0Epxu4JqbhaJwtp1f4L3jtSjdlbK6Lad0cf2C4Of8qNxd/6JYQNNF1Y4+bQf4URRyvcUWvd0QW2l0eiUoK9k1LRSSNtE9h08esHqvDczsqo9d3RBXYbfXXz1fi11oM+y0pRaecASfRFJtEDNsdDIhJhW4EBA1LkbbZq/w2zdlTg/YPVUWnd0QO2i8PoLkqsG2NoN9B043azAzetNsNN2WeUGXd0gE3AeDksGJGMu6/RXBLYTi+PoatN2G2MPt4kOsD28kjXSrFnYir0SsklgU03v7yvCi/tir6DMjrAJlIpS4svb0y6ZKDpAUcqXchdboKTpfAReWREHvL7gE1ugxe4DMGFLB6Vgild1BH5KHrIzWtN2HjO7kty/OWR39mHXz6wqcriJRh4FpZp5WLUe3h43Tw6x0qxf1Iq4uSX7kL8q/XGQRue2WllYBPGPC0uWToNIqx+h2pPx4LNAPZ9oEohQW6iDIP1CgxOkcPh5TG9yAJHPYfp2VrMHxYZF+IHe6vJgeFrzfA4OYzsosIT2VrstbhQXOHCbosLxho3QIUJiscvE/CRB5u5BaoV8tCpJMhLlmNUmgKj05XoES+DSOTbyxSiDV5uYtfNG5aIh7N0EXMh9KBqF8fIqRMmJx7OjcW8gQ2k1vk6D3v/ulIHtpqdOF7l9lk9ldk6kKaNHNhkJV6OTTYnMQZTr1ahIFOFnPgYCPg2AfPLk7WYvr4cMoUYReP0GJCiiCjY9LCpheX45lA1HsiNw7+DFCAsDi+KzA4sOl2P1eftqK73+gDvgPrmpYNNluzmIIoRY0y6AtOvUaOgkwraELXB5/ZU4vWdlbhaL8eeiQbExYTnr8n1Blq8QCs1r6QGj24sQ15nFXYUpIZczINWFxacrmXAnyFrpxdFEPT2g+0HWSbG+AwFHs/RYWRaaKKfvnh/hRNTCy0oMTsx8VoNlo1MCQrEmRo3VpyzY7PZgd9qPeyMjZWJ0TsxBgUZStyYqmBpfqCxu9yJgSuM4DjgmT6x+FOOjlXnQw1jvQe08z44WotfCXSy9AhwLe0Dm53qPEZmKPGfPXQYl6EKNX8cr3Zj/QU7frpgxyaTEzYHx/zk3IHxeK5XXIv7aXu/uq8K80/WgYy+b5IcWbEyqKRinKv1YI/ViVM2D/okyvBybjw7E5qPCocXucuFogKA7EQZxmcqMS5TibxkBRQhACTf/vGxGswrqYWl1uMLIy8hfGwb2BRdeHhcmxiDp3rqcF83basLbnV6sb7Uju/P2LHBaIe1zuuLeWlrkjVyPFbl6zEuoylQtJ2nbChDlYPDC7lxuP9aDTQyMVxeHh6eZ4CzQ7bMiRf2VGJjqQNz+8bh2WaLRtMdscaEzeeFeJuMhOOZy+ubFIPJnZSY2Ml3rrQ2SqpceO2ADV+frPOFr7L2IR4+2G4OUqkYj2Rr8FzPWOhVwfnmM9VuZpELz9ThWKXbF52QFTW2JI6HOkbMUvTusQ0VmaM2NwavMKK7Toqlo/RIUUow/0QtFp6uw6laDzwcjwS5GDcZFJiVrUUXjQxv/WLDf22zYm5ey10yo8iC+UdqmrKAghaFIqE4lQT56Uo8cK0GI9KUrQYjy36twzPFVSixuABa8DZmp6HBFnxzjxQ53ugbh3GZwV0GiWc+PlaLb0/XwVzjafB1gQzBy+OaOBl2TTAgQfCjLo7HkJVG1Hl47JmUBvKd9xRWYHupvSEZoWcJYMWrJXi1Xzwey9LincPVeHxHBVbn6zG2kVt7YW8lXqVicLADW9itIpmInTkzszSY0lkFcZBzwGT3Yu7+KrxPC0jzaMMB2jrYQkJy77Ua/K1fPJKDkETkQ6kG+MmxWlRR6NTcigPtUTePfgY5thYYECPEtu+VVGP2DiuO3ZbOopmhK404VeECc9pBFozcwjtDEjE7W4exP5pxpsaDfZPSoBRAYLXJbVbfnFrb/YJRQQKMyVDiqZ6xuLmVA/+b07X4758rcb7aEzZ3HhxsNw+NQoy/94/HQ1nagC6N6MwPSmrw9uFq/Eandjgg+8WRHI+xXVRYPVrPnk0ZZe+lpRiQLGfZ5B2byvDd0TpAEWKvenmmKzk0JZUlMr2XGbF6lB5jM33nAO2yuzaWN8w/VFQhgC6NEeOOq1R4vncsrosL7NOPVLmYcWz81e4DPIQrDwy2i0PXhBh8OjQBwwyBw7kikx1z9tp8h0+48aiXR3aCDD0SYvDt0VrcnaXBgpuSGRD7KlzIW2nE2tEp6KKRovviUrhpZ4WT0Tk5zOqlw7sDE5GzpBTDU+V4N8+XMa47b0f+ahMGpikQFyPGGgImnK0vuJcUrRR/7hmLR67TBoxeat0cntxlxSfkVvycS5DTtinYwqoOy1Ri/rBEdvg0H+RX5+6rwj8OVaPeSWqa0CvKniGweyvGpMDq4nDv2nLc31uHT4f4OJGFp2sxc7sVF+7MYNb4YKEl7O1JEVJWggxHbk3D7J1W7KtwY9t4X8Vni8mBG5cZMbmrGm/1i0e/FSZU2AVXFzJgFagHjsfNmUq8nZeAHkEil78etOHPuyt93xlk9zSALQA9pasa/x6ShHh5y+37S6ULT/5sxU9kHeG4jMYf4+IwKEPJQHh6txVv7qzEwzfEY94gn2ThvZIavLSvCpapmXi62Io399jCB1uoyp+5Ix3vl9TgsxO1OHZrOtvVW80ODF1mRFaSHCVT0sBA2WEN/9l+Q3FzSNZI8Ea/eNx/bWC3+tnxGszaboWdanIBdo8PbAHoe7I0zNJiAqzM0l/r8Og2K4wUZYRrzX6wKcXmeKzJ17PD574iC77Yb8MjN8TjAwHsT47V4OniKpTdnYG/HrLh+bZIErw80rQSnL4tg0mJl5yrx8HJaeztDOzlJqTrpAxsMqEeS0txpqod6imK03kej+bo8Ga/+IAaxO/O1OH+LRbUuloCLsKnZ3niNh68Xst8njwA0G8esmFOcRVc7RWguzkMy1CicKyBufc7N5Vj0S/VmJkbh48EgujHC/WYuL4ch29JA0kSbl5lAiRhuigXh5s7K7E+34BxP5khF4uw5GYfBbDZ5MBNK0xIVEuwb1IqMtVSvLKvCi+2t2xG4Z6Hw6hOSnw8JAldtC3zjVW/1ePuTRbUOL2+eFwYInx4ip+WpcX8oUmQNDuMKIF4encl3jpgaz8/wDTWHD4fnoQZ3Xzbb1phORYcqsa9vWPxxVCfz6aYOvuHUrzcJw6PZGmRtaQUp62u0HIyYVcuGp2C8Zkq6L/5DXNzY/H49bHsuWvP2zF2DYEtxb6JqcjUSHGuzoPcpca2+e7GLpHe6eKQkxLDSnm9E1tKLxafrcP0QgsrkPh9uOjWDWb+qxuTW5y0Dg+HB7dV4Kujte3Kli7Ozcujk07KYl/K/Gg8tK0CH++twi3ZWvwgWCD9/c6NZdhT4cLJ2zOw4FQtpm0obyD3gx1mDi9GXKXChnwD/n7Ihuf2VuHolDRcpfUd7hQPT/2xHBnxMuydmHoxV3hshxUfHGzDuRDo/S6OuaeFI5IxRN+SIiYG8Q+FFkaEEeAiq8PDN2fC6j0c8zvfHhdU/e2jAnzTc3F4oncs3h7QoN17trgSf9lZiaFXq7ApX39xRxEH0WOJkcW2L/WJwyv7KvFisY3xGRczQFbj8rV+kDikX7ocK0fpWZyetfgCZmZp8c9G73rnSDUeL7SgO1G5k1KhFrY1cTZj1paxJDBUfNxq0OLmkaQW4+ubkgOSYZSDPLndyjyDiGfFuYZBod29W8qxkBKKMAL1VidCByPPY9UYSqEb4vV/Ha7GE5stuD5VgZ8Lmord/3XYhie2VuDT4cns1F9ytg6v7rfhQKUbnIe72C1Gkoc7r1GzzLbazSFvhQlaqQhFBQZGWvmHnzcf2FmJreNTL4btVS6fEPOENQJCTIpU1FL8MDKwhT/+sxXv7Lc1BZtgf3CbBZ8erml7xBEIdRYlSLFnQioMqgYemWV168uQoKFCrwGZ6qbxPAsN99nwZM9Y/KV/PEvnd5U7QSQVMX8GpQR5KXIkKSRYd74eDxRVQCEVYd0YPa5pJjP2nw9Te+iY9TUef9hc7nOTkejJcfMwaCRYNSYFuc18uMPL4daN5U3BnrO3EnN3C6TNpbgO/xe5OYzspMJP+b6U3D92ljswZJUZXi+P7RMMGBigJPZhSTWeKa6ESibBjG5q5Gco0UktZbhYnBwr3hLBX2h0YEInFeu7oUVoPLycTx2146wdcwYl4JXcprz5p8dr8MdNbUieWt3GPpd5XVIMVo+hLLipAVHh46IbIZL8oaIKX+rdRuow6BxcHJ7KjWMxaeNRWu9Bv+UmlFpdmDciGQ8H4V7O1rpBpa3FZ+0wO7zsUJeKRLATHyIF+ifJMStbxxYi0KAIp+cyIyw2N74elYKpzaRtxJv3XW6EmzjqSH2zk8PgTAXWjtY3cWfsaCCfXWRyIH+dGfWU+YQiakKtbtMDAJ+PSMaMbk31exdJ/VN1mNE7Fp8L4V+wR9e5OeZCztd5WfGAOA7iwDMI8VbGJqMDI1YaIYsRY2eBocX2pva+PsuMvnpjOHxJON8uhKJ/zNHhk2ZFZtH5WjdP+ooTRGVGsoGTDkcA6/P1GJHWMiyi+P3NnyuRk67A7ompIUtU4Xxn82te3l+Fl7ZZ0d0gZ+9oXoSm2GDoajO2sebVSPhNYQZCbvHe0EQ8dl2DRIPF2YspxAvAhbTnAy/ew/FQysSsOBCo7LSh1I6Rq8xQxIiY1fUKkBhcyvu9PI/ha8woOl2PaT20oFwi0JiyoRxLTtVG1tDoRV4esXIxCscZWHGauRF8dJpnKWUEF5Y9meOhU4ixd0JqiwiB/k2uoc9yI06UOfHRiCTM7B5Zkc6Jajfzx9U1XswflYzpXQNLke/dYsH/lDQrm13KKjdzo3npChYgaKQkg/vkDEn+I/X4hudwPGIVYhb2NQ/H/BfN3mnBe7ttuDNHh4XDA1teeyf2+fEa3L/RgpQ4GQ5OMkCvDOzf7y+y4PPmNcr2vjTQfS4vXs1LwPO94hC6BtneF3M8NHIxiic0Leg2ftza8/UYu8aMeJUUhyanIj3EgdeWqdy6sQw/HK7BPb10+HJY8IWctrkcCyIVaweaoJeHTi5mncodBzYFNmJg6zgDS0ACDbuHQ/+VJvxy3oF/Dk/C49dHxpWcrHaj11Ij6h1eLBmdgsmtSJELfjJj1Zn6yPvsxh/s5DD+GnUHgk0vc3NYNCoFt18VXHf9QUk1HttgwYAuShSNM0AWThkshImz9uodVlxHkU5BatDed0p6Bqw0YY+JfmigA1ypf56CHr3jLJte5OLw6oB4PN+7peLJP49Kpxf9V5hwqtKNwgI9hoXRq94a1jaXFzesMOF0uQsfDU/Cg90DV1XoGaZ6L0t6yusF2UVb/FRbryU9ZIf+ko6Lw6SuaixtRKMGmuOItWZsOlmHu3K0+KYZf9HWb2Lq2A3lIB3I9gJyYcHVscT8jVptvjz6bJZ3dORvRHl4dImTskMyURFY0FhoJKrTDJcXiJH6+iBJ19eeQWfAwFUmHDC7GA97ezc1Fg0PLtpkVO+ey/drDh0LNltNHmvH6ANyvcQyTlhfhlWnhKTKxYGqRl+1s5GJ6pgzN1su9tFQBl40Xh/QukkmMWy1CTsvYwtfx4It+O2ZOVp8NLhlGwe1Yty0xsw09IwI4sGo0jm9YpGklDBdH5OOAGiu9CVCiuqlft26m+fx4l4bjpO20J83kGQiW4MvhrYM/XaVO3DjajMcngiSUCG2Y8eDLaStxZNS0bUZ1zxjiwXzm2dvAq/A5k1I+xWvTOPXuM4hsJONanwsC24czXh5aGLEzHeTMKjx+I+dFXj3wOVtu+54sOkLSbHUOxbv5jWUxkiDMmCFCfVuX2tIi+HmcEc3NWZnxzK8ieug0lfjQeLHzUYHXt5bFZwadnK4L0eLzwQxEN1P76bKDlEGYSmu2nOABLjn8oDN8VBJRFibr8dQgy86eGCrBZ/9UhOYAPPy0KslODA5LayO30nry7Cc/H6gigtxNDFi7GokTZ68oQzLSGsdiQpNGxbi8oBNE/Lw6Bovw8pRKSBBJh1ONpKvBbJqF4dnb4jDa32bFh2Cfdcmox0j15hBkWxAQs3F4TEqsfWNA9U/51A1KpSqtQ0ghnvp5QNb8MFpGglTXJ0lqW0goL08UtQSJjtoC1dy+6YyfO9XAzT/eqE4TwUHciHgI1iNChdpRrF2ZJwdaCJ+vxuMaXRzmNpdi3fy4ln5y98KTesiCyJQl0pEKC5zYPKGclAyGLDE5e/P/B0s2g/D5Qc7lCXwQIpKDLVE7G8OvigMDVZIouOVdsvJag8cFJ10IM0Ravqt/T/6wKbZ+nteSCdCg4objVqzGZj0N7J8+ru/M/cytUW3F/DoBFtIbgalxCCGfsqozIl0tYQVeAlfSnaKLS5000mZfOGA1QVzPR227YXh8twXnWB7eWRopTg4OZU1ifZcWopZWVomLaNBzB5Vxd8bmMja+qZttmDB0Q4qbUVwHaIWbIpIDk1OY6152T9cwEPdNReVqdRM2mOpER8OSmB9jNO2WLCgo+qI/+fB5njEKcTYPykNnTVSdP3+AtOePN/LJwOmzluy9o8GJbLCxF2FFnx77P8tu312ITSknrotnWWQXb47jwe6aTBHKEJQq3WnRRfw9Y2JuKWzGncXlmPhsQhp9to347Duik43QkmIRIR/9ItDmkrKdOJD9XJWdeF4HufqvCBl6CPdNUwAT704u6i0FSlVU1jQtf2i6ATb/x1EFFEyQgF289CP/ib0onf0j7K0HdbAd/wvDksOSDDmC/wAAAAASUVORK5CYII=;" parent="1" vertex="1">
          <mxGeometry x="567" y="203.26" width="64" height="50" as="geometry" />
        </mxCell>
        <mxCell id="COK3GCsZX3T8CLw1UcPQ-70" style="edgeStyle=none;rounded=0;orthogonalLoop=1;jettySize=auto;html=1;exitX=1;exitY=0.5;exitDx=0;exitDy=0;entryX=0;entryY=0.5;entryDx=0;entryDy=0;startArrow=none;startFill=0;endArrow=classic;endFill=1;" parent="1" source="MaFsSqHFL_aDIbuKhQJ8-29" target="COK3GCsZX3T8CLw1UcPQ-69" edge="1">
          <mxGeometry relative="1" as="geometry">
            <mxPoint x="89.38999999999987" y="510" as="sourcePoint" />
          </mxGeometry>
        </mxCell>
        <mxCell id="COK3GCsZX3T8CLw1UcPQ-112" value="&lt;font style=&quot;font-size: 9px&quot;&gt;Paper form&lt;br style=&quot;font-size: 9px&quot;&gt;&lt;/font&gt;" style="text;html=1;align=center;verticalAlign=middle;resizable=0;points=[];labelBackgroundColor=#ffffff;fontSize=9;" parent="COK3GCsZX3T8CLw1UcPQ-70" vertex="1" connectable="0">
          <mxGeometry x="-0.1952" y="-3" relative="1" as="geometry">
            <mxPoint x="0.9500000000000011" y="-2.9999999999999964" as="offset" />
          </mxGeometry>
        </mxCell>
        <mxCell id="COK3GCsZX3T8CLw1UcPQ-71" style="edgeStyle=none;rounded=0;orthogonalLoop=1;jettySize=auto;html=1;exitX=1;exitY=0.5;exitDx=0;exitDy=0;entryX=0;entryY=0.5;entryDx=0;entryDy=0;startArrow=none;startFill=0;endArrow=classic;endFill=1;" parent="1" source="COK3GCsZX3T8CLw1UcPQ-69" target="xr3ACkX85t0AnBMF9TQf-9" edge="1">
          <mxGeometry relative="1" as="geometry">
            <mxPoint x="332" y="372" as="targetPoint" />
          </mxGeometry>
        </mxCell>
        <mxCell id="COK3GCsZX3T8CLw1UcPQ-73" value="New joins,&amp;nbsp;&lt;br&gt;cover changes &amp;amp;&lt;br&gt;person maintenance" style="text;html=1;align=center;verticalAlign=middle;resizable=0;points=[];labelBackgroundColor=#ffffff;fontSize=9;" parent="COK3GCsZX3T8CLw1UcPQ-71" vertex="1" connectable="0">
          <mxGeometry x="-0.2595" y="-1" relative="1" as="geometry">
            <mxPoint x="7.460000000000001" y="1.4700000000000024" as="offset" />
          </mxGeometry>
        </mxCell>
        <mxCell id="COK3GCsZX3T8CLw1UcPQ-69" value="Customer Admin&#xa;team" style="shape=image;imageAspect=0;aspect=fixed;verticalLabelPosition=bottom;verticalAlign=top;image=https://image.flaticon.com/icons/svg/1584/1584911.svg;" parent="1" vertex="1">
          <mxGeometry x="276" y="268" width="50" height="50" as="geometry" />
        </mxCell>
        <mxCell id="COK3GCsZX3T8CLw1UcPQ-107" value="Internet &#xa;response team" style="shape=image;imageAspect=0;aspect=fixed;verticalLabelPosition=bottom;verticalAlign=top;labelBackgroundColor=#FFFFFF;fontSize=12;image=https://image.flaticon.com/icons/svg/561/561127.svg;" parent="1" vertex="1">
          <mxGeometry x="908" y="206.13" width="50" height="50" as="geometry" />
        </mxCell>
        <mxCell id="COK3GCsZX3T8CLw1UcPQ-131" style="edgeStyle=none;rounded=0;orthogonalLoop=1;jettySize=auto;html=1;entryX=0.5;entryY=1;entryDx=0;entryDy=0;startArrow=none;startFill=0;endArrow=classic;endFill=1;fontSize=12;exitX=0.5;exitY=0;exitDx=0;exitDy=0;" parent="1" source="DEALhcKuOMUuAGFNjWsx-148" target="xr3ACkX85t0AnBMF9TQf-9" edge="1">
          <mxGeometry relative="1" as="geometry">
            <mxPoint x="222" y="355" as="sourcePoint" />
            <mxPoint x="332" y="372" as="targetPoint" />
          </mxGeometry>
        </mxCell>
        <mxCell id="xr3ACkX85t0AnBMF9TQf-11" value="&lt;span style=&quot;font-size: 9px;&quot;&gt;New joins,&amp;nbsp;&lt;/span&gt;&lt;br style=&quot;font-size: 9px;&quot;&gt;&lt;span style=&quot;font-size: 9px;&quot;&gt;cover changes &amp;amp;&lt;/span&gt;&lt;br style=&quot;font-size: 9px;&quot;&gt;&lt;span style=&quot;font-size: 9px;&quot;&gt;person maintenance&lt;/span&gt;" style="edgeLabel;html=1;align=center;verticalAlign=middle;resizable=0;points=[];fontSize=9;" parent="COK3GCsZX3T8CLw1UcPQ-131" vertex="1" connectable="0">
          <mxGeometry x="-0.2405" y="-1" relative="1" as="geometry">
            <mxPoint x="27.36" y="7.03" as="offset" />
          </mxGeometry>
        </mxCell>
        <mxCell id="MaFsSqHFL_aDIbuKhQJ8-3" value="Cyclops" style="shape=image;verticalLabelPosition=bottom;labelBackgroundColor=#ffffff;verticalAlign=top;aspect=fixed;imageAspect=0;image=data:image/png,iVBORw0KGgoAAAANSUhEUgAAAB8AAAAeCAYAAADU8sWcAAAHkElEQVRIS52XWWxcVxnHf+fce2fujMceL0ns2I2XxG7sBJo2CQFCQhZIkVAQSoFKPBX6gqBPIF76guCtQkiVeKtACFUIVYDUJVChLnFTEkLTZmkWJ0Fx0jjYqTOOM/bYs9zlHHTOHWe128CRx5bvnPMt/+///b9zxf5zJS2A7mYPV7Lo0uap/QUI+4OOQtTEJUSuCdG6ctFzZt9iy5gaK4aI10ZK2jj92sM55JK7A7h6CdJZaO9O7FXmqLz6EunVq5FbdtejE+iT7yKal0Pv0BKuk8cHLs7fdr5rTQO+K9B6IcWFTAVaxcQjH6BmpnG3fBXH84jLZUrvvI3X2UHDo59DodHVKsGLz+Fs3o27cQfC2DJIWWwT1MxSGoZHF3GutEr2CZkgrRRIiZ4cIzg2jPvINryH1qCCKtVzpxBNrfh9/YnRyauEr/8Od9e3kL2fAa2snXsBXdK5yVzHEfGxt5A9Q4iO3iQDFVH7+x8Q+eWkt+1FhzXiyyPQ1Irs6LEOwrPv2efu0GaEKZFZhXH0/CyyZxAhkjCWdm6+rFUJfv0TnPWbcb/+tHVuDtYO70eHIekd+xBxSHzlLDS2Ilb0QBgQnvonctUAzoou60SXponf/CM0d+Lt3Ieok+pTYBfo8jzxiWFEdQZn+xM2E10pEV29iOzoRWYb0KOnEPll9v/ayAfooELqs1vBcSCOCA/8CaE0zq4nkSnvFvwPVvPCONGhl5GP7Ub2rkugnbiC8NI4+WbUpbOIfBvOyl7Kp44iUmn8wQ02CPXv46jSLN4j26Ch0fJnoZPvcS7Yudon4zkkdDOYGaYKRBRQO/M+2s+RHtxAXCkT35zGbcyh5wrIbB7R0EIwVcDJNeHmcgSXz6MLV/A2bK/X3rgWNnjziRUMX1pgu+uwo0vgFy6h52egow8a2xCuawNQU9eIb0zidveDnyWeKeKkfbQKka4HjosKQ4R5dmMCXa4g2zoQ2Zw9T1BBz80QnT2a2OhZf4dzR/Dl7jTp4jWig39GzZeQX9qH192PyGRsvDoMIAoRKT/pXYOKaUfTHQYvISGKUdPXbPtJvwFt2lTFRIf/ijp/HL3iIVKbvwKr+m/3uSNh1+osvqNRpRl0tUxcnLaOnfYuW2ONsDUzPpLqKYg1VhZtC5mPQscKIaXdGM1Mo25MIhxpgxENTUg/Q+y4DI+W71c4U3Or3Va/I3RYRaYziVjU+3RiqkzhZshcsYaTlqTSLn2dGVoaU7dlTGvisAaOhzTsXxDMxfp850COjKzPDxWjbXY2BKTJBHjrX9d59cgUfzs6ycfFkEotxhECzxEM9eXYOpjnx090s2ZVo1XFRC2FJa+JWwtprcbA8C1tdwTbm2bJBkVUWxfCN0NGGLW22cZKMToxx49+OcKR87O05CW5rEc2LVFKEEQxkzcDokjz5PY2frivj02DbfWmMVawqsnMdahWUH6eg9M+4rVzJe26LtvmT5D5zxniTY/jLu9GimTAmPq98o9xfvWXj9i6roWtQ3ke7c9bHfGExGAUa8FcOeTCeIUX3xwn5cJzT6+ltzNnM7ZDx0j26GnEtSvEbas45A7Ua+4IdiyvkglKqHy7rbHNGk0t0Ow/PE6hFPHNL3bQ3pKyqARK2X41/JBS4KeEITvnx+Y5eaGIKwR7t3dYhJSBXWtUZR5ZnSN2fQ5e9+4g3EAO/57LhFKKWi0ijDVNubRFohZE3CgFpNxk6oVRoqaeFOQyLinPkEsxdq1CW6NDtsGQsD7ZFkbqXTU3rVaf57doaUVO2ajNUdNiQaCYr0VEGt4/X+SNo1N8fl0z6/tyrGj2SbuSfINjkTACqZW2wyTRNjunP3mq3encMN3eLazUaiqhYq4SgZY8+5tznBub4xdPDVCqRmwZbMFPObTkPJw7r0RWWe+e6EsOlrudL8h84rxcjSlXFUGseOb5ET68OMvOx5rxXJefPbUGP+3Q3GDugktcBuvGH8h5Mg7q2QvNfDmyAUjP4dkXLvDbly/j51z2bG7nhZ+uw3WEde4ZyTSw30r6/8g8uc8lvW7+2ppXYgI044UKR84U6Wj1GezN0pzzSElBq4HdTRTNcEZrMwPqdf+0O9xdhFPKZlsJFC1NKTO8qFRiiuUA13XQsWF6QsawEpFNSZryPpUgYqJQYWWrTybj1iXXBJFYfyDYDdGqtZjfv36VtAff/0ZPMlTiiJqCqmlsZeRVkrV9mojnK+9McGF0hh98Z4DmJjOU6mT/n2pe1+Q33rvOSwfGaW5MMdTTyFBPjpQrSMlE3UzrzZYjxiarHDgxRVdbmu893snaXqOE95PvgTI3NbMDQcGh09N8++cnuF6okm3yWJ5L0dfiMhdqCiXF+M0aUajo787x/DNr2fuF9lsvEvd20H3O9wzklnxdWqDusfPTHDx1gwMfzvLxdI3pYg3XlTQ2eDzc1cCmNY18d08HncsyyUz/hPX2wlQzyGzs9C2Ui6761TmTlgSh4uRoiWMXZjn9UYmc79DdkWHPxmX0tWdwXEEYaauMSy3z1fHxKsK8KJpN5lKSyNli63ZQpgwmKTNcjIyaMwbGWCV6kJhY2vGCdaOC/wXncupOS8yNzQAAAABJRU5ErkJggg==;" parent="1" vertex="1">
          <mxGeometry x="487" y="203.26" width="51.75" height="50" as="geometry" />
        </mxCell>
        <mxCell id="MaFsSqHFL_aDIbuKhQJ8-29" value="Paper application&#xa;form" style="shape=image;imageAspect=0;aspect=fixed;verticalLabelPosition=bottom;verticalAlign=top;labelBackgroundColor=#ffffff;fontSize=12;image=https://image.flaticon.com/icons/svg/1467/1467549.svg;" parent="1" vertex="1">
          <mxGeometry x="130" y="268" width="50" height="50" as="geometry" />
        </mxCell>
        <mxCell id="QY_VV6FcXAard618ne-8-1" value="Know-it" style="shape=image;imageAspect=0;aspect=fixed;verticalLabelPosition=bottom;verticalAlign=top;image=data:image/png,iVBORw0KGgoAAAANSUhEUgAAAGAAAABZCAYAAADB7SFdAAALvklEQVR4Xu1dT1AUVxr/RmHAZGZUQBMZdgViliFVkRwUt8rsQcAqNxcgqcRDBLKH3YNRr6vmrJIzqJdslQFzWLZqgRyym1r+bNXGg5CkSrZKwGwAIwzrZkYTBgh/NpD6vZ6e6e7pv9OvZ4bQr2pqLOnpfu977/v/+772HOq8v7m5SeTxEInftElEHiLNb0oOvcuUt2G/SvxA8kDlBDY3yePxECYm+6ZN8pCHNhXf2hOVzIAtUL5Olceq00GyXqN/ptBDbR3xdYHgnkMd97Gq1DWoPEmb2AqiSHfTaJUmiSwSXZcAiglamYY+YeU3TjkEBkSW7aqCHh6XA5KcrykJjI69nkRwOcCc2HE5QCEvlDpgd2Ee1VX46GSFj/zenXQs+Ayj2VxsneYW1ulueJkGp2M0HllVV16uDtDWgHqK1l+wg9oOF1Hb4b0UKNhpKAxG5pap84sI3Z1d1hO9CYMjYXhYUC7bRgeEir3U3VROgYIdhoRXXnDr3hO6dudx0uxyOcAaBzSHAnT5+PNpEV/cjIHpRbo4GKbF9Y2UE5+icF0OSPoF1cVe6j9dafnUq/3grxPf06WhcFwTm1PIKf6QhZlseT/A5/XQcMuLtk6+kl5X7zymD+891dUJrhUUt4LO1+6j80dLLJw540sXVjeo7vZ/KLa6YU0xi4608SMSV2xpDigLeGmo5QULyzV/aedohDo/j2jqApcDPB5mar736nPmqWrhytnYOtV3f+1ygNoRFP2AG6/9ghoqfBbIau3Spp5p5qipxYhcDvB46MHZkDWKWrz66mePqevfTw1N0m1rBT14t9oiSa1dDh3QMRJxOUDIM8jzAcGAl4YdUsDiNhkp4m0fDXU5IB4tyFZGzNUBUi9CRbw6nRH7+HQlhUoKrAl2C1e7VhCIpZMTdtIPiK1t0JEPHrh+gJ4f4KQn3Iug3PC86wkboSLa60vp9dBuC4LF+FKc/saeaZY5s5So326xIHjEpf48gi7we60nYbS2Qs/+dzNiKkeyodxHN14rMz7aJq4YCS9TS99DNx+g5/+r5YSREWuvKzVBYu1LJqKrdKb3oZsRk4lSC8i45qoAvfeb59MSR1C6Vz77L8XW8HQxHepmxFRRUHqoCOiEC0f3UbNJxQyYSsdohLABlhSuLq+5yDiq3ldItaXP0BuhPSnOGqycgakYDUzjs+jignCiTcd8bWBDYSmB+Fr5QCvTcPMBBsg4JqZcdLQWENxFR6dA6SUQdK7o6GAgnxoq/Ewml/nzE5wrYjXHIysEFII4oBRnF9bY/+Fvo/PL8V3MrfqAskA+VRUXUHVJIZt60J/PPsxzVxnwqrG2rrEnMjHoKCoi4N1Bw632MTtIkI9/u0Lj0VUanFqgiehashhDQ8zwrA8A1LGu3M8AviCyeHjScTouDc1T34OF1GISJzjglf276C9vlqczT93fYENgxfROfEfj0TWmwHlXyCDjVl/uo9dDe6iaQ8gbpx/EB1dfOv4cvbSvkBDudpQDcFJuNx3kvgHSG2IzYMPfuhelxTWce3lZkgVznYnexl/tpndqirgQXXz29c+jbH67C/Ko41SQ3Rshj7aPH6VwgpE1aKlCpnKPlz592xnglBphgetEHhc6xIoV5Pd6qK2mmMHa00FWa20yiAxkBUIc8Ek6T5Ul7o+AH+bqKAdAB3zx+ypHOUBrIzpGv6Vw7P+6z07WEvAlPHwNPL9r7Dvm5LW+XESXX90vm8u7f5+loZklZzkAIZUv/1CVVmyGx67dnVumD8eeMI9XWiQRKvFS2+Fi7nkEzHkQEPehcMLSuXrigOpz6m9/zawiRzkAN0eYGGZotgfM2oW1H2WmMM85JU/9U5ZHhVjr/G0ZHSsVSqOkA9ce/RPSnamltVx1ADjgnVeKHMNv8iSgnXtNRFYJIgW2Po40Qh5djQc1FTl0Q2v/N+yRjnNAbQYsITvEs/vb3kkUdMwnbmNEfFwIqwg6IiMcgC3+ymEIoV0ipvv7i3CqJr9PSI1QcQFdqys1NGHBLdAVGeEApDc+aj7IzLCfy4AMR9oS5qU4QHyIHTNmbMNHU0lTWeFEctcB4IALDlSxZGszQfSzn8xSeHE9QStf/g7qbtKW+dK5wvKBBSQOx3UAOOBkhZ9b0jxbhMdzpTljcR5mZL50zhA95z6dy0wsSMSMYpJfZsEh47lZULZX/vVYlrC3cvLFuaAAsGsMpqowMsIBeMhw6yEhXLsFB4h/cXBe3pqGiHrfrDBUuMrlIgA3+UQSzc2EDsAk3ncAwZaJvVQjPsBZ1+rUPVyjOYVuTsguyRgHAKWATdhKQ4v4bTV76fJx68WBo+EfqKX/oXro3Il8QKJugIixKiCEW2VoEb+h0kfXT6WHwhMjoFIaZIwDYA1BEfPEcDq1mVrExyEya+urza2t/xHdDS9lhwMwoZs5EpjT2zgkdxDNFDRuEhkHB0svvmPmMCAAJ4PFZNIKAgfkukOmdfKxF0im2KlJhg/R3DMjZOyy1TOOR4oSMEKYs7xrAhInX7TMJRzQ+vJeumyzIh+2P3wA5cioDsDD7FY2Iq4PWxq4mjeq91BbTZFtvSJA0r9RheOU+vKp760KUzEePTHEMmDTS9nlAEwQlpBdlAGQBY09MwwN4S/YyZLo+KSj4BHLP9M3k0RFKzgAxLc7X6xbzIBlnQPAyiCW3QFRhKS2iIJA36ALtftZAw+zQ4ztxNY3VJu0nq8toXNH7LfCQW4a7W8SadFs6QAQhmdg7kzfQxoJ/yDDBaFwDwlwozQoqwP78xTNscR9auvfUEkh9b9VYXYvda9DAA4iSG1kXAeU+vPpn62HuCwM+uBE91eqeKCjpbuY560WfwLxsXksnq/sVhw3PQfOvMAtf3ztzv8YOCAnOIB3YO4fOF2fPFI17SCWfldTTOckHbUE4s/QRGRNs9k1OnBJf2P3tMBokCZvsuYJi+zGOzAH8NMt6QmTNOzGYsEFsJbwjVwsFC8bKr2jeVk9UiJX35yUI/ayqQOwZhCDZ6cr0TRNIOLEEG8a9QHwdu2Ab5XcIkVA5IQOgMh9CQruNB8FJy4KICxAPexgQ+0E2rTEFAJw10ejucUB2AQnkBJX0OFqDB2u4u6+BQ5Af+m+0xXcFK+4IVIERM5wAKyB282/5I6UgChq7JlimFCr9QHnj/BVvCKxEYBLQW1nWwc4GZhD1eNZ0SoyyQGAEQ5xbv6KDVAiIHKKA2qDuxyrHUBch8XdteqFRErErSBeHq+SwL2TC6wNck52T3cSui72/DRTJRn0e7kE29RONyCLCHHrjYx7woLjKVRJ8gjMaS0OSZXeiQV9H8pD1H7igOmqeqsOWVPPDE1EV3KTA7DzvAJzaoQBF9R1SwJgMudMOAZBfx4NtfAJiyjnYEb+q/iChskarm9RcsIfkBIC4FkkWrRGe/0Baq7i2+xJfJYgfsCBKq/SygUrSJR9TqYpkTeAGFB7jxhkv1ONv7WyXzllBUmJghAy8q0oehY+/DohwiJCOEA5eAbcEGgTXgy0xGDnyhB3TlpB2i0thQgx4jHJDUl/UyCC/qgwBe3Y/dhMvPhnPLpCswvrNBldTX2joAVtnVUrSBofN8LF4++1wWcZdxyLf5vFmlbdkMMBgdJrrztgSCYoUhAbRL8fWZET24JxuSU5INFyQadjVtCXx3pQoBBO7A+kRpezfxMqUkSxN9iinmxBmBrvFxuZW2JtEdyuiRoNfPQ6ZiET9uvgs6xJk5iWFCAnQh2X9PSLJ3xgJsbeI2bm7Ulu10QzmxKPhiIjdrIywIJ+MAvBAQHvTpaLELplxbRfA+u+R8zae8S0ww46wlolI2biZa4MP2ToYkuSzT9bHSBV3Ly7pSixoWbamUnR4EZbpIgHShoEq7wX2X2fcGpLO5cD3J5xCv2lciS0nS23Z1zGesYpcyJGHrD072xPdfwAVwekUEvOBi4HCBRwraCUNmapWFBVlJa2Jaz+aqvt+P4ALfvfKipCWo5kyuR0Y0HyPqLbxQ/4CY4gUEOtar0/AAAAAElFTkSuQmCC;" parent="1" vertex="1">
          <mxGeometry x="660" y="325.26" width="53.86" height="50" as="geometry" />
        </mxCell>
        <mxCell id="COK3GCsZX3T8CLw1UcPQ-39" value="Customer service&#xa;contact centre" style="shape=image;imageAspect=0;aspect=fixed;verticalLabelPosition=bottom;verticalAlign=top;image=https://image.flaticon.com/icons/svg/1067/1067566.svg;labelBackgroundColor=#ffffff;" parent="1" vertex="1">
          <mxGeometry x="700" y="535" width="50" height="50" as="geometry" />
        </mxCell>
        <mxCell id="K3VQ6Ar4vp130KD2iZYr-8" value="" style="group;labelBackgroundColor=#ffffff;fontFamily=Helvetica;fontStyle=0" parent="1" vertex="1" connectable="0">
          <mxGeometry x="890" y="313" width="86" height="50" as="geometry" />
        </mxCell>
        <mxCell id="K3VQ6Ar4vp130KD2iZYr-7" value="" style="group;labelBackgroundColor=#ffffff;" parent="K3VQ6Ar4vp130KD2iZYr-8" vertex="1" connectable="0">
          <mxGeometry width="86" height="50" as="geometry" />
        </mxCell>
        <mxCell id="COK3GCsZX3T8CLw1UcPQ-51" value="" style="group;rotation=90;" parent="K3VQ6Ar4vp130KD2iZYr-7" vertex="1" connectable="0">
          <mxGeometry x="46" y="5" width="40" height="40" as="geometry" />
        </mxCell>
        <mxCell id="COK3GCsZX3T8CLw1UcPQ-50" value="" style="group" parent="COK3GCsZX3T8CLw1UcPQ-51" vertex="1" connectable="0">
          <mxGeometry width="40" height="40" as="geometry" />
        </mxCell>
        <mxCell id="COK3GCsZX3T8CLw1UcPQ-49" value="" style="group" parent="COK3GCsZX3T8CLw1UcPQ-50" vertex="1" connectable="0">
          <mxGeometry width="40" height="40" as="geometry" />
        </mxCell>
        <mxCell id="COK3GCsZX3T8CLw1UcPQ-48" value="" style="group" parent="COK3GCsZX3T8CLw1UcPQ-49" vertex="1" connectable="0">
          <mxGeometry width="40" height="40" as="geometry" />
        </mxCell>
        <mxCell id="COK3GCsZX3T8CLw1UcPQ-45" value="" style="shape=image;imageAspect=0;aspect=fixed;verticalLabelPosition=bottom;verticalAlign=top;image=data:image/png,iVBORw0KGgoAAAANSUhEUgAAACAAAAAgCAYAAABzenr0AAAKS0lEQVR4AZ2UA5RkS7ZA94mIq8ys6mrb7v7PGNu2bdu2bdvssZ9trme03V1VWZWZFxFxfv5a41n6s8/al2EJ/Ccve8P566a78YSF6+Ys745PLW2bbA42LSQQbFQVNWJjUKIniRZRkOiNiSImqiRirdZ+YLNkl4HbxvdOTnSS7CbgGv4N+ehTLuFvjK+IW6/faT/nPfeAlEG3ouUcje9jYsAhmCgkUTExIgquAadgQ8QEcDFim4ioINFgsbRahlgGMPGizfdY9Lx/boh892XXAXCl7HzktVeNbUvzhCJTUtNgQwQFh5JKQNQgPpLEgFOQCDYG0iCYAAaP/duIeMBHiIpEwUQIA5jqKusfMu/RwDYA5yf7zH90cuyN781/PtI2jJg+Ogg4DSQGRJXqkKc3WSJ1iYlg1cw0wkbFhIBvFIvBxohDEAxZO6G9IEfEEGsQY7GFkAw8+3974OcP/uwxJwOXyWl/uCn/9Zf3f/32K6onLVlt0SZgRUmc4eitk8TxktX/M8qCFW06bcElCUbMTMUOj0TFqMEOVQ/BN9TdQG97j0PXjlNkKWOrRmh8RFWwScLE7QNGThz95aanLHqm23fN3gf0dvQetXA0IeuVGCAxhv0X72PtsW0e99W7svm+K/hvuO203Zz72gvoXrmPuWvm4xUolblzDH7X4CGDm/v3czecOXVHM9C8VUSSKpJnjn0X7+Buj1rGc37yYAAgcPC6w/T2l2it4BUNEdUIgBGLNYKkik0c2dI28zbOZc19lrHmisfxu8f9il0/3c2c1YsI2oATTO2d3xmOcWHCLO/EmrSJpAambhxn6yljw8ofBMBl37mCC999KdWeAdIEbIyYqFgEiFgiZiaY0TrLtJ+goMOdv/FQNjxzCw/6yUP55ak/oHfJEVorRolRQRWO9DuOXjdr2QTnA84Gku44937ZKYBw3U+v4cdP/wlLs7nMX9TG/q1Ca3ABpO8BJckcKgbjoTrSZ+2jTqTf7/OHZ30Vlz+fNU/cxJZXHsuFT/kTrilQI2hUqJrcdZw2sazIBOrD0yxb3+aYJ20C4OJPnMuqZJQFK1uEqiRxFlMr5a79VLEkT9uICr2mpDAZTTQseuQW7vTzRwIgD6y47IU/Hzbgzax98mZufsNF6KEedl5OJGLKsnCZjbVvarJUaCammbd+HohhfPshwnVHmTs/w1Q9cmvx3S6DQ/tYfq8trHzBnRk5dhFGDUev2c/Or1zIntPOJx5dxN9ouZSJyUl6uyZoLx+jWJHT232IRHMQkEHpXBJrmTlMiORNn86oAFDvmyQru2QjYzgnMDVNPHSAO33pCax8/j35Z0a2LGDlE47llq8ew1XP+wbnn/ppGG3TO2M3Hdei2tWdaUA6x9GnxEpFULBk0RUmaDQlmUSiluS5AEAIZFRktsGqoXdwByd+7okzlQcN3Pbh3zLx6+sRNcx+2DGsfsP9WffcO2Gk4prnfolRVtGZPUZvfAppIgBpKlgaTPQYFYxRnKNBhuYEIn0y6wGQGEkZvict/I7DrHjAZla++AEAXPGgD3DkjxdTsAgQDp5/PhNnXMdJf3w1a55zTw7/+EqqP+1EbENCjcQAgBWPxWOQmXuiDSbVmlRKclvTTnokpgRAYiA3FWk6IKkPsfRxJwBw2yd/SvePp7FwzQY6a0fprB5l6bL1HP3TWWz/2O8BWPKYU/B0MRpQPBoDAKIRS42RCoOCCqZIBhRuQD40G5raGgBBaaU9cp2imG/pnLwGgMGZFzO7NYrJexgzjWOAcQ2jtOmddiUA7TsuJ0lybF1hqCAoAFbAILgQMTSoqXFJUmKykiz12KJPkg0AcK4mb0+RFQWmPQAbAXC2gqzEpCUIIA3ESGoHWAYAiAacGb7TwhEQUQCiRoSAAVwMmOjFZEmlrbSkyIe2+qRZBYDYSNoevo9WuGYf1XXXATB6r+PR8ZvJWgFXeGyrweUVMewY/tsKQP+i25CqiysEQwPmbyPQYKhBAkbBKZhWVtFKB2T50GKKNK0BkBTSTp+kKMnnw9QffwnAwpc+i/aT701z8R/h4PVDb6Z/7WmM3e8uLHndEwA4+tMzyQC1FZaAEQHAEf/6HlCJKKjLskpdMY0rFNupsGkJgE2EZNSTtAZkmxZRXX4a4z/6NrOf8HRWfPuLTNzlJMozLiB6YezOz2H+K54NwK7PbyP8+RyKNZvwZYUxATEAEBUEjxARiagEXDLTgAFpITDaYG2Xv41AMlLjWh4c5BsWM/WZN2ELx+jDn8zcF78Ihv4zB765jalXfIjOyqWEVDF1RG2DJgaAWFUIAVGPiGBiFDcccrGFx+UR02mwOgmAzJ6NG1Nc0UddgnRaJK0l9D/xcspzfkv7QU8lXb0OwVLefBPj3/0p1a/OZmTLWnxeoN0S1JAUgls0C4A4MY3BAQGDRQji0lk+Gh1giwQ3p4XWB1AgW7iWZPkCzMHtyLx10NRI0cHO20q98zy6H/oLks9Fa0PYNwlmhNadNxBLh+kNkJEO5d49ZGtX0Fq7kAaIu46QpCmqEQmKyRNvJPdl0VayvCFZ1Eamb2Fw2S8xQPG41+D9Lky5AzOimKLBtAPpptWkJ2wkWTmbdPkYxYnrybYsQ/IKSRvIa8LeG6m6tzL/DU8BGJ6OZw0bvp1kLEeiMhNOS2dmtyuJ+3GZhdyQaoG/4MvoSY9g5PhHYF7xU8JZn0F7ByAGCAGpA6YUtInERpCBQB/ilCP2UqgK7JIlLHv/25j7hHvRAAc+8UtyCsSB8QExlqTtKhfNYMJkBjsimBTMnA1w8Bp6215K61GfpX38Y4j/5+GboXeI2FSY4JGgRB/RoBANUQVCgpJgZi8gXb8BEYjAbY9/J3rh1aRrjiNUHoxDiUQ1U7L3L194ZHbVth+mWmbMakPqsNYQjt4AS48hvdNrSRbfAeH/hwLTZ1/A/jd/gfqC20g3HUPVd0Sf4AcJTXRh7DEnPEV2XXNOkl79na+OHLny6TpvBSYJqLOYNIPpXcRQI3M3Q3sRalsIDhOE6APa+KEKZYAKfKnEbo0emqJ/2z4GF92OjbOIi9fgJxJ8PwEpmN4xgTlu/e9XvOCBz5D9X7ySsOHCjbMObLsycXmunTHUKeIcuASLEMtx1E+hIYKfkVh7pFRi3xMHDaHXQFfxk4HQBa1nEdwCwnRCM2Hw/QzftAlHIoPJmlXvecEdgYscwxd7yYk3Du42/Zjk6AW/NXlAkwKxBdFCNALFUmQmgBARHyB4qCK2CpiywfRqdNpjpiN+WglHFR0XmiqimUOqiJ0c0J/wdJ5x78cfvvm6iwDsM1fdhf7RQ/SuaN3cvv/yHzrbbCLL1pgsw1mBNAFrcFYxBowoGMVqRPCICUio/2oDTY0MamK/JDQRug1EhzYpfZ9dyF23PNT3B6cPZShy6SM/xr+z9eNz15h49BjaYwu08R2QZUI6V4lNDF5M8GgIaipvY+2T0NRo6SX2gml6lQ3TTWbLfNztnTw0befvqa+fODDIxq4Cruff+F/YMSYOvVvlzAAAAABJRU5ErkJggg==;" parent="COK3GCsZX3T8CLw1UcPQ-48" vertex="1">
          <mxGeometry x="20" y="20" width="20" height="20" as="geometry" />
        </mxCell>
        <mxCell id="COK3GCsZX3T8CLw1UcPQ-43" value="" style="shape=image;imageAspect=0;aspect=fixed;verticalLabelPosition=bottom;verticalAlign=top;image=data:image/png,iVBORw0KGgoAAAANSUhEUgAAACAAAAAgCAIAAAD8GO2jAAAA1UlEQVR4AWOwDp9LUzTELRi1wDdtaf+8w9sPXDtx7h4Q7Tt2c92OS9SxwCZibtesg0+fv3756i0aoo4FkxcdgxhHEwtiite8ePmGhhas3HIB2cRL1x5t3HV5xebzEEQFC67efAI3/cDxW7aR86icip6/QIRP9+xD1E+myOHTPv3AqAVA1DJ1/76jN+EI2YKLVx8hS+0+cgMY5yRbMHfVKbBxhNGFqw+B6mloweY9V2hrAbAIIceCugl7gE6DI2QTT124jyyVXrNxEKaiUQtGLRi1YNQCAMs01I34bbYCAAAAAElFTkSuQmCC;" parent="COK3GCsZX3T8CLw1UcPQ-48" vertex="1">
          <mxGeometry width="20" height="20" as="geometry" />
        </mxCell>
        <mxCell id="COK3GCsZX3T8CLw1UcPQ-44" value="" style="shape=image;imageAspect=0;aspect=fixed;verticalLabelPosition=bottom;verticalAlign=top;image=data:image/png,iVBORw0KGgoAAAANSUhEUgAAACAAAAAgCAIAAAD8GO2jAAABZUlEQVR4AWLQWfWQpmjUAjxo1IJRC2wBpJTDQkVRFIafKBujZrnGjbNd84wHiJNs27btrm3rrFbW1T73m20u/yMsW0cBg6zue5XCYLFQcC41JK0I3PsYaWvC+BkugYFljrbmWPp/H/86FOnhB2hGZbTg/dBhFoEBhsoEAO23Su9+5s/9nA0R/ANtXEgNJTtiAgObfB28gZaKt8Wen2ZarhRgjVL8nagGmetC+IFMb5lgqOtOZAtsLVgjcIhFZqD+RLYj0IFzGCwUcRctc7XgNNcyA7GBhAW+EWvnHK3XCjqDhg3OUpvAEegFTgAdA+nrwnuF4zCw7DSlwqOPscRxUAmtiYqY5NDXImz/6mPprlAP1sDgcjdFLokdCkPGW6Kstmbhtoim2IWNsRsvFXNsjURvBmvgiMROc11S0+BhVvmhFAUDhewrISgbg4/qlyUdeEnl+sBk7SOgfcBSb3jWaKMWjFoAABKespvtvzYlAAAAAElFTkSuQmCC;" parent="COK3GCsZX3T8CLw1UcPQ-48" vertex="1">
          <mxGeometry x="20" width="20" height="20" as="geometry" />
        </mxCell>
        <mxCell id="COK3GCsZX3T8CLw1UcPQ-46" value="" style="shape=image;imageAspect=0;aspect=fixed;verticalLabelPosition=bottom;verticalAlign=top;image=data:image/png,iVBORw0KGgoAAAANSUhEUgAAACAAAAAgCAYAAABzenr0AAACtklEQVR4AeyVA5AkQRREZ862bTMcZ9u2wzrbtm3bWNvmaW3b3rzKRa+NOWVEDoqvqv//LZPtUpoubC2cLIxKMveyku1UmkYAG2EoyFYESFEgQIos346dX7K7YiFyN8iFB17Sxx4NRxzVdcbYO6aotke5cgB42sFXDGDjF4FM+UbGY+5TK9FXKQBKOKTtjNz68CMAdQ+oVjyAXPicoRtyS8M5GA0PqRGwgm9gxxdMf2SBkNhEZCoxORXbVH9CXllBWHOvCla9sQNPbegRit3qDmhyWL1SYkCKA7kIxvoH1MBrr5KZllJ/IWnK3zskZ/SXEIDB1vm0trAO6K5ndNCYN5DRz9tgWxdhfnc8pQ2madXdSmDb7CeWWPfOHite22LoDWMegiDFj4GJ983hFBLD9IOPcEB0AjZ8+S6daIeaAwJFG/v8ouJh4ROB3uf1sFHpB34GRSMmMRlJKalISE5hLEHJIRCjbptAXlyAmY8tEZ2QjOzaK4qSbHs6AItTdhHwvpU3N0ZB+hYQhcGXDTi//AFSUtNPW5SY3lX3KJc7gKSwuESYeIXByDMM4XFJyC1bv0i0PKbJoCx/ALewWMwSwccApZe9skFwTAKyiXEjPYZyBziq48zUlVK09j4VvLL3Q3ZFxCdh/D0z7lG+AHFJKVj03DrHwhxHqOzimjMeWZQ/QKQ42ZQH5jkW5u896o7IJmYJa0T5A/BqJ+S6Wv7eqebwH+A/QOUBTMwHYFdpAaY9tACrVqyYECPMOr9d1UF6Gx7QcgLb2McxfCOOu2uaB2CLyk/EJ6WPo4PEmtOLqgOsZK2Pa4IDSUvPeWKFXud1pRre94Ie5jy1kvqnC+AWxzTYn2Odnud0MSdjDM0i1ObXOvDVBQjNEFciMJrhKHJwH5FmDgIPfNds4DuniO75P3r6HNY9BwATNI1Cu+uNpgAAAABJRU5ErkJggg==;labelBackgroundColor=#ffffff;" parent="COK3GCsZX3T8CLw1UcPQ-48" vertex="1">
          <mxGeometry y="20" width="20" height="20" as="geometry" />
        </mxCell>
        <mxCell id="K3VQ6Ar4vp130KD2iZYr-3" value="" style="shape=image;imageAspect=0;aspect=fixed;verticalLabelPosition=bottom;verticalAlign=top;image=https://seeklogo.net/wp-content/uploads/2016/11/wechat-logo-preview.png;" parent="K3VQ6Ar4vp130KD2iZYr-7" vertex="1">
          <mxGeometry width="50" height="50" as="geometry" />
        </mxCell>
        <mxCell id="COK3GCsZX3T8CLw1UcPQ-53" value="" style="group" parent="1" vertex="1" connectable="0">
          <mxGeometry x="870" y="403" width="125.83000000000004" height="37" as="geometry" />
        </mxCell>
        <mxCell id="COK3GCsZX3T8CLw1UcPQ-41" value="WebChat" style="shape=image;imageAspect=0;aspect=fixed;verticalLabelPosition=bottom;verticalAlign=top;image=https://docs.genesys.com/skins/Genesys/resources/css/images/GEN_id_color_rgb.png;labelBackgroundColor=#ffffff;" parent="COK3GCsZX3T8CLw1UcPQ-53" vertex="1">
          <mxGeometry x="13.860000000000014" y="17" width="98.11" height="20" as="geometry" />
        </mxCell>
        <mxCell id="COK3GCsZX3T8CLw1UcPQ-42" value="" style="shape=image;imageAspect=0;aspect=fixed;verticalLabelPosition=bottom;verticalAlign=top;image=data:image/png,iVBORw0KGgoAAAANSUhEUgAAAJcAAAAYCAMAAADAp59GAAAAmVBMVEX/////cgv/+vb/cAD/ZQD/6tz/9e7/4s7/lVH/sI3/nV3/fjL/49T/xJn/vIr/za3/wJr/wqj/8OX/3MH/uIT/0bP/upD/eAD/yKf/ijH/gzr/lkv/kz3/oFf/kVX/hTP/nmX/28f/tIb/pGf/gyj/eBr/kEj/eCT/fhz/mmj/XgD/zLj/oHL/q3z/rnL/uJf/i0z/qoP/hhxXT3HjAAAD40lEQVRIic2Wf5eqLBDHiUHqqq0uhpn90tRyU7u17//FXQbErN2zz3/PxjkV6ACfZobvQIhtgswXc65+XqnxAmbkk3lRzIrpb8MMjVKHgeevIJVrqOaE/jaQaXyzolsABhP1gZ1zSP3fRtJtw2C7gknf9gXA7BWyjL55AApLffqf00E8hJJS+tDph8OIjg3ofRK9G97X45zfB3Q8uvewMw3FBXEm17ZrdxX6LXMaOcISMuwDm4eSq3EQ5jhThnP8SUJs2sMCeznHrqOfJtjnyiLxudkxP7iF5D2IHxZukfg9T2Cfi1CdvS1bloqlPOA5FHGqwKqSZfzONT2e303vz3nmKCOXHRWGSNkarU4qKYFF+D467z/S5QH3D1jath83xPXr9COtQ7273Kftbmn6PFYv2o90FRiwOYRm1+i8IKTWmVUlPYTc61jOohHXjFku5iouEtaQq2VOoI08WIdhrP0VsTcydcFBroldkfirkORZisb8Ty0J7914qDsVBzrNlokGm1cs1mBTtQyRfxGsGEKbqOGpi0aZ/4VL7NiF0x1s9CoeW1hL5CIByGeumJCmDpDlViY2i5K6M+4Rbu1orkkLGgy5pk3OJlDdxVSUAF7cjKTiCxeJq9qJUma28GDWNO8914KLSymQCy55Huk8RH85N+0vIk9e7Jjj0u7tHrLSK81BxHDghmvBlipupzsFd9F/rP2Ja3plQTGpjU/VaWbs3HMduwxCornq1epTm/tl9p6VJkRcZvVMHxLH7WxM+LXgmovSGJQTDRd74ipQL37mIt3kqJKB9lz7rmsHrq6hhusipdRn019VcJUWwpHtEom+4+JEg5k4NvAYx5WOY/4jV5QCLE1XcV0EF0Mcez14yK+iTUfria7OMY6ljWNg46jm0hA6qfM+/DbvxzrxlYtmAJfe5Dnvv+GK/aOZ6MfIktQNGef9rs975EKwGS5To8hPqsBCfKcTsLvd8jEXSTywHvAgvd1uzjMXvAnHET0XCZYaIl9lDvGzDc5FnYgooXLQCc2FngG1zNro6l4rkEiuRlfdsU4cmUpsdJnRVWz8urUePTF83euqdZ3S1XJ3vbY67z9jJVyAYsrj5bW91onV1b3S1XrQVWZzAP9e3okFuqjatYduV5o6lAxBILoOqYYBMHVIt0M+6NC4Dg15aupQoAU0mOI/1lO5qkPDVO4EF/fQOP1wGtolgzm+ndu6XfW124u/1O2hRNtnoyI7rttPk2zdtl9E1+2R0ePo/hi/1ww25eiew17jnqPuhbUY3wsvL3IvfNV7tGp8y46khDQK2Tr6b/P/swlabJQ6vURmEfIPrYJOXxrYpFIAAAAASUVORK5CYII=;" parent="COK3GCsZX3T8CLw1UcPQ-53" vertex="1">
          <mxGeometry width="125.83" height="20" as="geometry" />
        </mxCell>
        <mxCell id="DEALhcKuOMUuAGFNjWsx-148" value="Employee Health&#xa;Plan team" style="shape=image;imageAspect=0;aspect=fixed;verticalLabelPosition=bottom;verticalAlign=top;image=https://image.flaticon.com/icons/svg/1584/1584911.svg;" parent="1" vertex="1">
          <mxGeometry x="820" y="535" width="50" height="50" as="geometry" />
        </mxCell>
        <mxCell id="DEALhcKuOMUuAGFNjWsx-154" value="&lt;font style=&quot;font-size: 9px&quot;&gt;Spreadsheet&lt;/font&gt;" style="edgeStyle=none;rounded=0;orthogonalLoop=1;jettySize=auto;html=1;exitX=1;exitY=0.5;exitDx=0;exitDy=0;entryX=0;entryY=0.5;entryDx=0;entryDy=0;" parent="1" source="xr3ACkX85t0AnBMF9TQf-2" target="DEALhcKuOMUuAGFNjWsx-153" edge="1">
          <mxGeometry x="-0.1911" y="-8" relative="1" as="geometry">
            <mxPoint x="126.05999999999995" y="574" as="sourcePoint" />
            <mxPoint x="183" y="602" as="targetPoint" />
            <mxPoint x="1" as="offset" />
          </mxGeometry>
        </mxCell>
        <mxCell id="DEALhcKuOMUuAGFNjWsx-155" style="edgeStyle=none;rounded=0;orthogonalLoop=1;jettySize=auto;html=1;exitX=1;exitY=0;exitDx=0;exitDy=0;entryX=0;entryY=0.5;entryDx=0;entryDy=0;" parent="1" source="DEALhcKuOMUuAGFNjWsx-153" target="xr3ACkX85t0AnBMF9TQf-9" edge="1">
          <mxGeometry relative="1" as="geometry">
            <mxPoint x="332" y="372" as="targetPoint" />
          </mxGeometry>
        </mxCell>
        <mxCell id="DEALhcKuOMUuAGFNjWsx-156" value="New joins,&amp;nbsp;&lt;br&gt;cover changes &amp;amp;&lt;br&gt;person maintenance" style="text;html=1;align=center;verticalAlign=middle;resizable=0;points=[];labelBackgroundColor=#ffffff;fontSize=9;" parent="DEALhcKuOMUuAGFNjWsx-155" vertex="1" connectable="0">
          <mxGeometry x="-0.3588" relative="1" as="geometry">
            <mxPoint x="-28.29" y="13.919999999999998" as="offset" />
          </mxGeometry>
        </mxCell>
        <mxCell id="DEALhcKuOMUuAGFNjWsx-153" value="Partner Services&#xa;team" style="shape=image;imageAspect=0;aspect=fixed;verticalLabelPosition=bottom;verticalAlign=top;image=https://image.flaticon.com/icons/svg/1584/1584911.svg;" parent="1" vertex="1">
          <mxGeometry x="276" y="400" width="50" height="50" as="geometry" />
        </mxCell>
        <mxCell id="DEALhcKuOMUuAGFNjWsx-160" value="&lt;font style=&quot;font-size: 9px&quot;&gt;Paper form &amp;amp;&lt;br&gt;spreadsheet&lt;/font&gt;" style="edgeStyle=none;rounded=0;orthogonalLoop=1;jettySize=auto;html=1;exitX=1;exitY=0.5;exitDx=0;exitDy=0;entryX=0;entryY=0.5;entryDx=0;entryDy=0;" parent="1" source="DEALhcKuOMUuAGFNjWsx-158" target="DEALhcKuOMUuAGFNjWsx-153" edge="1">
          <mxGeometry x="-0.1555" y="1" relative="1" as="geometry">
            <mxPoint as="offset" />
          </mxGeometry>
        </mxCell>
        <mxCell id="DEALhcKuOMUuAGFNjWsx-158" value="Company or &#xa;Account manager" style="shape=image;imageAspect=0;aspect=fixed;verticalLabelPosition=bottom;verticalAlign=top;image=https://img.icons8.com/dotty/2x/company.png;labelBackgroundColor=#ffffff;" parent="1" vertex="1">
          <mxGeometry x="130" y="445.25" width="50" height="50" as="geometry" />
        </mxCell>
        <mxCell id="tzZtZtUzTntlYtjN_Du5-2" value="" style="group" parent="1" vertex="1" connectable="0">
          <mxGeometry x="899.9999999999998" y="100" width="50.690000000000055" height="50.170000000000016" as="geometry" />
        </mxCell>
        <mxCell id="MaFsSqHFL_aDIbuKhQJ8-15" value="Reporting and &#xa;analytics" style="shape=image;verticalLabelPosition=bottom;labelBackgroundColor=#ffffff;verticalAlign=top;aspect=fixed;imageAspect=0;image=data:image/png,iVBORw0KGgoAAAANSUhEUgAAAKwAAABaCAYAAAAl+r3cAAAgAElEQVR4Ae19B5xdVbX+d8qt01smZSa9N9J7QkuoghQRLKjYRf+IghVFVBSxIuIDlCrPJ1VA6SQQEhLSA+l10jO93Dtz+yn/37f2OZMJJrbHzCOSm8wtp+yy9tqrr3U088zPujj5OgmBEwQC+gkyzpPDPAkBgcBJhD2JCCcUBEzgpERwQq3Ye3ywpuaeRNj3OA6cUNM/ibAn1HKdHKx5kr6eRIITCQKmpmkn0nhPjvU9DgHTPSnDvsdR4MSa/kmz1om1Xu/50Z5E2Pc8CpxYADiJsCfWer3nR3sSYd/zKHBiAeCk0nVirdd7frTmiQKBv2d8O2lLPlFW8X8/zhMklkD7BxEPJ1H2f48KJ0YLJrQTYbE5xuPR2BNh/CcGMpwIozxhRIKTUWUnAjp1/xhPSKWL7uSTHrruR453Yw8m3He3ZYsMXyFnV9bvioDAMAgNlG+PJy68G0F+ckz/GwiYYCyBv95dccI/1rV1/3zXc/4xXtf1uH+ff57I5X13NVeQjMhGbUpu0xxiJlxNg+NqcHMWkEoA3E+mAUNzBDVlvNBgORpguYBuApEIdNOAxPG4vvDA1tmyQ5T3BueA8b8uDOlH4zl/fP74/fHI+P0JcVxdtgX70LTO+RyZOK/r0t3bYeD34R/npz+0t207vzcfZv4t/nDVRvV++cM8qj1/IOqgakddKGMkRPzGvMZ5XMVHd22Qc+0c5JHxdr236+Vdj/uDPt55//g/e48mqNC5wn7z6vNYjfhXHO/c8Y7zvs5z/OLCdXVZdJ5S4zbgujbs9higOxjYrxLTxk/C8KoKTB4/BiWFERgCZIXsBxtiWPXmRmzfX4dVG7ehqbUVCIQQCIegQ4cDE46mQ3ddaJoNCyY0zYXp2HB43jvnT0k+vTGqDcVx6VwtOaXe2TcP6d4m8xfdhS5IzJN+I0e1fOSHd/rIAbWl2JviFeoChzAC+2HPPMazDnQZCDc6zx6nLxdwvN0rbQoMuHd5swZbTUZogY/InCb7JIykv07OqzamuuX4/XWdz9989277p4/zwmPdQ2ISnPfxY536m7bfiQMEiqs50B0NOqmoUFrA1nTYiSR05HDurPG46v3zMWfSWFQWF//Dbjn4nbUNeHbpKjz49EK8taUGCEURDAehuQQ2KSyQ04OyQUwn56EASfexp+7oRJZOGift8FouGu8gMviZGkQbn1QRad9Otf7hBLwL2Lpq38Mm/7jfINv2kYnnhBMcfW3XvripwLlLo3KxRxqIwmre6m6+++1wXdQcFVK7MndCil1z7dTZrj317PceRVhOjZSNiGq4FjRXh2VrsOMNmDZhCG743JU4f/Y0oaSdYBDY8k0BWd5F6VLcXjd8YAPtmSwe+Oti3HLPI6ita0KguEQQS3cd2Boprkn6In0rinXk3s7++MVHDKGuvEbJ+apvNRa506O+6riPrPLrqOb+0Q8dtlxCpCV8ODailYhIiq/wjDrmwYG6h2LVx26dm5XnhagK9DhitSkMl/05wjzUNvSoqKtEJSK0oyvk5MbUXV0Q9+/1d+xRvPNHexhhdTiuDl2zBSCWyKkduPYjF+D7X/goCiNhWQ5FE9W+J7IpemcoOuCzXBF/FWv0waIrfomdhxvxtV/8Dk+/vAJGSQVMturYwsodnQhBocDn4f7dRz5lEclSXV7HhaYIQ7xV33m/ot5EAMrcpLJEEI7cH/2R9v7RN8V5DG9PkqqxfdtDUM/yKF17dF+QmjOwOmnj2/tQFNGTAuQkG+DW89qQX/zOF2FBQYrzyMkm5/z8TS1ERgQkhcRyy//RmxaY+7F/nST824OlTKlYS9a2oWXacds3P4NrPvA+r0WetD3li7ud4HUEWShPUjIVRUn7e+ZjTkdDFsDVN/8a9/7pRZglZRA8ZWuktH5bPvIfYz6kJorKATkrB1hZQNisBy5Nh2kGoUvDXGiFCj4nOEaTxz1E3BA0d104tgNkM+paQRr25wKGDiMYgKazH/6RfSv6eNyGuX0Unqo7OF8XsAhJywI4L4dig3+RCS0YgKHr0B1fTndhaw5c3RVR7u/11RPn/t7Kd0P/jgDQcmwY6Thuu+FqfOmScwDYsF0diruLrUpgKAgjNIAyGCmjWqydtXVojrUjk3XRFosjHA6iMC+MaMjAkP7VKAgEEQRwz3e+DFMD7n7kJRgl5YKA/3h3ki1bsFMdQC4nyDKwugoVJaUwdcAxdGRtB5l0Fgf2H0J7PKkWPBRCIBSRzfKvAI6IaidSgM0tZqOipBDVgwbCDJpQu0yH4zhob2/H3n37kMlwTAa0SBRaMPRP9Sf46LjIJpNALsvb0b+qLypKSxDQSc0B2wWSmRx2HdiPdCIDuEEgGIEeCtGmAt0hp1Piyr8yv3f62m5BWEXj/KF2/aVkKretBd/47BWCrEI/SEk0VyQ5Q77rcIW6EBcMkQ32Nzbh4ReX4OU3NmDTzn1obm2DppvIEZBk1a6LSMDEiEFVmD5qEN5/9jycNWU87rrhy9jX2IEXlqyDVlgAwyFVUqyNXXARdB7TbNkU2QQXNYEp44fiwtNmYcrYoRgxaCAG9CrrlK15d0cqjS01e7G/MYZXl63GSyvfQs3ew0CkEKFgEDYVN5d8QSk8NKXpriVAEbqoach1JAArg4mjB+Kc2ZMxZ+o4VFeUY/CA/ggbYqMQlk+JM5ZIY/uu3djb2IYXlq7BwtfX43Bjq8wpQBjBhc0dT2LscNMpGZYii5VkPwlMGDkY58+bhXmTRmD44IHoVV4qG5uD4pwS6Sxqdu/BwaY4Xlq+Ci+8sR41e+vhRIsQkM3BkSgxggogdRBZJxGF/PXu3k/NnHPlPyY6/+IYHF1p0aK7+MKUJ5HZqXbMHDsQz9/xIxTlRzolKuruZPmGQ2WCrMzhEkvPtz/+DH5572PYd6gZMIJAOATDUNTWkcUismkA2WkmA2TT0E0Nc6aOxY+/9DH069MLs668HrWtKQQDpL2k3Q5sKtKuDpN8U3eQi7Vg9JB++PqnLselC2YjP8hr/7nXobYYfvf4c7j9wafQlrCgFxZAt23osGBpAUALIOBkRMzJEY1bGzB25GB87ZOX4eIzZqAgRGr5z7+27K/DT+57GA/9dSECoSLoRgA53RJZ1HBM0NIhRKC5CSOH9cVXP3s5PnLmXET/pTm14YGnXsbP7/0z2hIZBAoKZHPnaNbTc9DsoIgOrp7ttKn88zP4967UjNkffccRVtkpKS8d3bSw/VQb/vLbm3DezIkgvSFcqVhBo1JE2mfKMeJffVsM1/zgDjy6aAVgBmHkkeUqdKP3y9eoeYxUi4oCUdwgvbAtZNsTCIYN/PBLVyCt67jptj9CixaDWrJHwKE5LmxdgxNP4Kw54/Hgzdeid4kyp7muQ7SGITKzouKkL8rGSdrliuWIfVNc4GvZ9hp87Pofo+ZgBwL5VKRsWHpIzRM2cqRp7TFcetYk/PaGL6OyKF/us8WhoSgyN64SgZRsyTGIjdQ1hH0LdRMRCbj5wT/hu7f9N7RoJQLICBxsnQqqCzvWjHNmj8d9N38NfcpKpR+C2tWp0BGOnp3ZE2E924EnG9PmqxjwG9t248rrvofdtXGEI6WwDBHiANeAIZYzy4OJdNGtb91CYcXdK+T1aIS1OpI4Y+ZovPzb70PXqOMqJUwQVlcGfbJogvtQaxsu+eJ3sWpdDbSKCiGgpFaErUPzC/V3EhGNwFIIK0jrKVTcLLruIpd1gY42vO/8mVi7bT8a6tphmDpyhgaDJBaAlWzGaVPG4snbf4jicECQFFQ6qNQYHiYeZxls2NBtIq+I2IJo62oO4MyPfR0xW4NhBhTDVewGVmsrLjtvNh788TcQIZdwbfHsMT5C95Wf4/TFWTo0eLjiq4MmVgsdH//B7fjDY0sQKIqKuGPpOpz2OOZNH4UnbrsJ5eEQbCq5VAx1qpyexeV4/ZAYUEbQXOhk95qJFbv34ryrrkMsHYIRCsjGcEQscATBxe57vPbeweOaOfcjR2PVO9C45qhFlg8lwkmrVqwV9//86/jEWXNhi9mGTF9RVqFXnkcmlXNw0TXfxUtLNsIsLVPGf+52Gv01emqUVq7RlivSl9KafcrnT4GUVKRVoeJZlJSVobklDkMQg7TSgOVY6B3VsPT+n2FoVR81LtdQFiwNaEomsWjlGtTWtSGR0ZCxs8jLC6E0GsD8GVMxqBcpV068xI6wfUtk6x89+Di+84uHoJeUwkAOtqvBSaVxyoAyvPrgL1GSF0VOvFWap2wCh+PteHXVOtS2xJDOULrJIZwXRkizMWHwAJw+ZTwMcgOa6ChW6KD/DrvqmjDjiq+iNe3IZrTsFMoKTbz64K8xtncvQXDKtrrYVg20JjNY9MZK7GlqQ0fOQC6XQUkkgOKIgdNmTMKwyt4CQm4OofYihxu45aEn8e1f3A+joAiGa4jYRtGDjiD0kBzbLUoXd6YoFmTVsgtdMaNUlBVg2qghAgzuSCpALm2ysuNpRuHe0XHrQ4/hpSXrESwpFe+XwAM5UHZyUlk2Cqr/ZojDV4oGP2jmIRXyXzSCsU1SLtKVlpZmaHoEZIjK4+UAyRguu+wSQVbKtexf0xxQF//9Y8/hl394GrsP1QEZZVoS9YQr6bqo7F2By8+bg+9+8aMoD4dFaaRIQxXo05eciwcffxE7G2LQwyGlnFgZXPuZDwuyOhRLwBgJmpkc3PL7P+Hux1/EoYYYkMtwGCLciMzhONCiUcwdNwQ/+9YXMW3YIFikguIcsDG0dzkmjx6Al5ZvRSAvCjfVgQ9cdpEgK0kllSOKXJSo/+vPi3D7vY9i18GDovDRXCbWCALZ0VBWXoArzjsN3/9/V6EsEvbgq+D6yfefjTufeh4HDsSgB0OeF1HpHJ5U4YO+2z7/Pr/7t7slIlLqEvomSOOk0xg1bCBGVvcVlDI8l6nGRROGSk1dx46D9bj9oUeB/DxhrxaRVNORsR04mQRmTRmBi04/BWMHVsBqT8BCQGRfBVKSc7KwLn8+Quu6sHfNIeqq8xaROWDg4vkz1UxpWuNW03Tc++RL+OJ37sDu2gQCkSKYZcUwS4pgFJfAKC1DoKQc9e1Z3P77x/Ghb9yCeMaCIdzEheUAlQV5OHXKCCCTFGR1M+0YPrgS586dIoomlUWTnijXxf/78W9w40/vxqG2HFBYDqO0AoHiUuglJTD5V1YBNxjBkjWb8IFrbsCmQ3UwNQ0BbhFvfy44fZYgJZwsgsEQLjvzVJkTt4Wwbt3A7598AdfceCt21bVALyiFWVYJs7gMgcJS6Y/26uakgd/e/zSuvP5mtCVpD6bFgbK4i8rCKM6dNA7I5MTxQ/FCxDJRCHoGZbsNYQktKlG+cqOgR6lVRCOR65RniMDwZEAATzy/BK0NMZihECzNUC7VnIWI5uD3N12DJXfdjCd/8R0su/9WfPKyM+G2N8uCEEnpxVI+cNp7PSpPCu+ZrGzQtkkgk34q1lpaXIAB5UohUVxNR3sqid8/8gxQUAwjChhaDjpFGN9QTwVRdxEKBKCX98PCl1bhzv95Qoi9SNPe2s0/bbZYBwSpUknMGzsUldGoUGIqjeQpz72xBnc9+gK0Xv0QCBliSRCZnoATOz8VLQ0BzUSwsAwHaurx4J9fFHAqjqQ6q+pVJjDNuRYKIiFUlZeoazSKKEAik8MDTz4LBA0YeUHRdm0QviFYIHcwVaxFBNAqyvD8wmW4809PSht841rydc6saYAp20B+Ey4yXn/nyNHue+sWhBUBnK4+CT4RFBXgd6Il10JT4YBqc/KMhrRlYeHylUCwCK4A0IbrWGKm+sE1n8Cnzz9T5E8SlcK8fNz+jatx+qwxcFoaZaeL54e2QaGqyrbLjv1gFcOzWnB8IgfncqgoLkJBfoEHYSVw0ymx69AhIERFyEbW4IKGhDKKP92l5K3DNmzoehaIFuDR5xaJOELPlx/e0Ke8TKieCBhmGBNGjJB+OFdScr6eXPQGYOkwDHWE8BBXqESE+aY7jot/FpBfiFfeWI2MWFYUkrEdgw4ByxGKnZcfRShEZY+SBfUEDbGOBPY3x4FAvpgOxaLCDUiEA42KtNkoL6NwvMJyPPzSK7K51AoqhK3oVcLORFKhlcDWKMt6ayw9du9bt8iwPiXyjf/+FCgkqBcDKggAjwKLsqUJFaipaxQqIH58IoZrIxLScOGsyXKrI4oX3atAnmni3puuwzmf+wZ27GkRO6Ei6XQ2eP5/0c79ERz5FOqkmchyncWjBTHXmK6L3mWlmDxmOF5dsQluSYGiroL45IxMgyPC2QiSUtP0FQhgf0sGf3ptHcoLI3BtB4EAsGbnQZgRMm5LZNJx48fKACjjkuxRdNi4aTcQjgj1VqMjOh+Bk2P42RU8bgJmDslUAjbVeLFg8FrvDhGzNGQtGxmHRiqe4hK7KC/Mx+jqPqjdsw1uWYEgqVART2yTTULEp3XE0WEHIjjQksYfl6xFn8IwLNtC2NDx1s7DCIbyJR6ZDhtBVolD4Ip0/6t7UmSOwFshDheAio9uyo6lndQ3Qcm+VZsXORvIGTSgd3gLqEOzc3BofKfBVtaZxxxhaVyzQb0q8ODPbsSFn/k2GjtyCIaUuYuyrfLf+IN5GzDZp2GgrrEJre0d6FNSJAvPe8KBAL71hauwcsONSDbGYRYVefIml5iIoCOnGcjSZqy70PQgWtIWPvzVH6o2xKOlQTcDMEIRUF53Ajp+dO8fcX9JIUQiMXR05DLYVtcCLRgBbb6eKN8pk/MA56rsxkQIA0g5KI4UwlTBEW+bFIemo70jhVxGedV8NAoGTNz4mY9gzaabEIs1QivMl5gBtZ+VwkW7LC19Qtd1E7GUjY9/5UcA56Nzc+owtTAQjiorCl3sWhYmI+4Y4+Ct498O6p07YhjV425iP+/kH4cnHEwQVQ2WMlAmlcQFZ81CRb4ylpNm8EL5BJDK5XDXo8+iPZmCoRPhVMBLNpVG3z69MO+UUcKWSZ3YHk1c7KeqrAR9+pTjyRcWwjYNQUSZj+Lwf2duNrKJDsyZfArGDq6W68QQ5loY2qcSMyaPw959e7H3QANyKQs2rQOk3LRz0jgvFI3j5zENrmHCoH3XNOGaUbgMjvGCqTmfnbv34M0tNXhr20G8tX0Ptu7eA8sk0lNxFPQUaqhC+mjfZCgkBVkNlkvbagKGlcJPvnY1JgwbINcqSRjYXLMfj7+wDFokDKsjgXmTxmLMkP5iUyZH4Gtg396YMXU8ag4dxL69++Ek0nAcziVA2i1cQywyArccXHoFzCBMPQQ3EAECYWh6QK2X6AieaEfNRMb/zuLRsXDS0PuPu0mh1Dv87k1AsIAIbBhob27CjGnjMH5gf+UF4zXUdMTswsm6ePyFxahtaIMhLlQhzHACIby+dCXGDqvC6MGDZAF5Nc1VSl4FThk2EKGIiUWvrQTC+QiITMaO1WK9fXZcaAoWViaLjlQSHz7vdFEIqU74Yx7SpxeuvPgszJw4EgXFebCsLGJtbcgm0kAqLazfNYLiWSObp+xHu6jENngbSiG4aE8IGGFFTSMB6KEgzEBQNp04OYh+9HbZNhzbhp1KwUmmYedScLJZhAMmZowfgp9/+zO4fMEcWq89MqM2vCDsi69Di0TgpjNoS7bgY+cvEIuIhD8KdG0MquyFj124ALPHj0BJcREyVg6xWBuyHXHYWc7Jlo0nIZkia1P8ceAYFLNIJMQCrL5zEwl8vciutwO5G353C8IqauGtuyhYauRuNoeACVx25hyRnBR15WJSaHcQME3sqW3C68vfhBGluspF0SWEL2dbeH3Faiw4Yw4qiwvEbEbKQWuAkjgczJ0wHvsamvDm6g0wooqKHw9huQwiZQRD2LV7Dyr7VWDqiCEwJExQiRUkqCZ0DK3ug/fNnoIr3z8fZ8+ZjFlTx6M830QoZKKxNY5sRzvsTBKOHgL0kFBfkzGtDnkH//nB11xYsn6VUqM7Biya67IpOO0xuHYOIcNFRUEIMyeNx8QxQ3DW6TNx3VUfxHUfORff/PQVGDtogLBoIiE5DF/sQRD2haVCYc0A57QXlb3LMHXUCFG6aDOh3kDbLR1kQ/v3w7lzpuCqS8/CubMnYNa0iSgqiCJg2mhrbkY6mYGToRfRRJBRajQLCrEXEiH9CvWXXDtf8FDr3J3vmjn7w8cR8v79bv297xMB6YCxKTkHpWYOrz/8a4yq6gf6zw2BgkJYsvo3aw7i9Cu/iliO8Z+MiVXRR9zZmY4Yxo0eiL/e8UMMKC2By/ws8ZuTfXLldMSSKXzgSzdi4aqtMEqLlbxL+VnEB4U8xHAa09krwZ+1siiK2LjjO9fgo/PnycSF2/MbN5w3IfGEdgFLxrKw/VAdlq3ZhMUr1+OVlW+iqSkO5BchGKDIQDsrWS77JU1Udl42l2OQTiKJQH4E4wb3xsxpEzFqYBVmnjIGFfkhVFf26tLTka+kgORW/pjUDDQ8snAprrj2Fui0E1PGztjIN1O444Yv4OPvO0s14KqQb45FbCkedexkKRTLLAs7D9Vj+dpNWLhmA159Yy1a6luB/DKYEjiTlQAe3mNyswlB8gB0ZJjd9s3Qqsd2j0jw9iGT0+oGks2tcDQb58+d7smglAtUtimnTeWnpT2OZUtWAnn5AliLgHVc6EEddXsPY+Pufbj0rHkImmrhKBoI7B0N4WAAZ86bgWdfex2NjW3QgsztYhCLT+qJokRYLjURndp2AKmMg6eefwWxWBxjRw2T+Fq2Ke2KnM37GExOywZbcBDQDVQWF2Lq6KG4bMFcXHzWXJQWRbFz1060NbfAZTavZyrifeyTiqUTi6FfZQE+d/m5+NlXr8K3PnMF3j9nGqaNGoo+pUUootNERASihaeMeXIKA7jbEgkx7zFijVuBr401+8WGrYXpnaIBwUA6Z+Evry5FU7wdo4YORkm+UpZ04SK8qnOCwuHYV0A3ZU5TRg3FB8+cjUvmz0JJSRG276pBvKEZWigkCMu5CAR9hJXf0nW3vhl6dTfJsMcYNkHrBsLYvHU7Tp0zGQMqylSinAjtCinJ5macMhort25Fzc6D0MIRcd9SNKC2rYci2LVtD9JwcPaMiUIlFWtUEGN0QXEkhNEjB+OJZxYhY0tqsKKmXB8ZF+2wyq3rZxZoRgiOFsSKNZvw2MLXsK++HpFISNyvAdpEBXvVp7JxsCH2SdslkUpHWWE+Tpt6Ci5aMAsHGluxdetu6IGAOC54u5PNwM1m8NkPn48HfngdLps/B1W9yhEwTAnSFvzxRsjW1WbhiG0kbAerN2zFXX9eiN8+8EdcfO4ZCElgjQL0JiIsRQIxkXGijlgpKKasWrFB5nS4vh75kQjKelcg5M2JCM8eyNQpYskaCTYSki7KCoskhoFzqm2ow+bNO6EFTOgG7xGJXcmzahjd/q4Zsz7UQ3tDlkDYopOIY/KYaix+8Dbkm6xHxyEouympFynmrsN1OP0T1+NgYzsCeRFYTCB0dAScLBiA5Xa04eff/Byu++jFCkhsgunctJES8LqGRxevxEeu/T6ccAEMnUmIStaiD18Zu3kTXaqkuFQqyL5dOOkEkEgglBfFyCFVmDf1FIwf1AdzZ05D7+JCFImPvcvaSGigkqVJRiXoHMAnb/wV7n/sRRhlxXAtB3o6gdtvuBpfuOx8uZmuYf6nm9V/NcXbcLilHSvXvol0Jos9Te1YsWYt4ukcduxvRK6pHcNHVWHjX+5G0Nt0vPdPC5fgw9f+CHpRqRc7QJmVXIHiEDN8KIKkYOZFMWpwH5w5cwLGD+iLU2dNQVlhHooiUX8I3qcKQOf4vEhGSTv6zPd+hT889jy0kgpBVFoyCEsVx/G2JrrhZw8jrApQoTxpt7Xg6o9fhN9+/fNqf4ttVWmi1JZJ0V5auwFXXHMTWtMu9BATFKmR29C1LHKWi0AmiT/feTPOnzlR4k4l2IXERZCXEirwxVt/g//6w0vQi0qgafSN87iSXkU4kOs1LxPBhWMw+pTLbMC1LLiUNTNMg3FRUl6GPhVlmDFpBCaPHIQFUyZgWP+qI8tiO2DsA8kU4wTq2xM49crrsONAM9xUAl/89Adwx1c/JZuTKSlkwbpmIGXbeOKFV/Ds6+uwdO12xNI2OpqbVB6ZGQRoMdEpuZiws1lMGNwLbzx+F8ISvK66f3jhEnyoK8J6lJNUktkPYq7ipZYtVgRkc4KJJRWl6FMaxdxJozFxxGCcNn0CRlT365xTzuH2VhCjtsY5zb/qemza2wQjxDPM+Qp4m4OA795Xz4oE4j9Xk3LDIaxevhZFZcWYOW6k4n8epSGVpdQ5rG9vVFVX4emXXxGQmQZZuSGGdNOgsgS8tnwVzpw7Gb1LGQ9ARFPs0Gf+MyaNx59fWYbmphboXaLtSRHo1aLy5Yd9s19qeXQb85P5YIGAAZ2molAUqZyLxpYY1q99C88tWYUHnl2IJRu3IhQJY8zAaoCB0ZqKO6XcnB8KAyETzz3/CnoP6I0Hf/BVFEXDkj9FhkqLxPqd+/CRb9yC2+55GJu2H0K7ZSBLJIlGYERDQDQMLRCCGwyBWcFuLofeJXn45AcvQEDgJbvTk2FpJYjIfGQuRKdO+VuZo6g4aoEgdIoOoTBSGQuNbR1Yu2YTnlmyBg89+yKWrduAaCiC4YOrhfrTWkL5hFtZMiMCITy3cCl0JkXKGGjQ635k5VboUYRVvIUUyJGvrhHAGyvfxJTJ4zGkb4VnmxWUg+aoNOfxQwcgbeewdPEyaHmM4CJoFEJRPow1NWPr3n247Lz5CPpOfG8hCei8YBBFRXl46sVF0EL5YkdUgTGkDhpsaroOvWnKo8aEPy4qA8z5opVCFDZSOAOSimKG88WOmrZ17Np+AI89txD7G+pxxqwZINGhdYB+do61vKwU9z/+NC455zR89OxTxaPFGVLsORTrwCXX3IA1a3bAKO0FI0Lk1EQ+VCBbQmMAACAASURBVL2qwBdpj3PifrIs9CqO4LMfPB8mqblnQ/RlWLp5Hfp86SGUEEZH7MUq6NGEzdJOMnNCkUHumkSxGZGohAymbA07dh3GI88txv66RsyfNQXhAO2tamNw3BUVZXj4hcVoT1ticvROSbvd/caQd4UoPfJJLduTVRleGgwinsri49d+D6tr9isqy6RCCcymXKdku5u/eBWu+vDFsFuaAWSVh4mUkBSyqASvLXsTj720RMFKPDDqPglUAfDBc07D5PHD4SQY6keqShupSjzJi7gozjNQGNHFtFUQYZEPqvJEU+ZI+TZTBuJ40RDSBsMDTRj5+dAjJbj/gWfxg988CEi4Iz1xCuFLC/NRFAxg7viRMj6h3vJNwyMvL8XmDbsRKimRmdLyQNev+iScXNm4/E1/rm4zm5VgorLDOXq1vHyWrfyAyA9oKIoGURrSUBTSURAOgMHu0gZ3MX3ajEUWEZoWWm4P9akbJlBUDK2gAA889DhuvOM+WQcitwp8Z+BRGEUR5slwXJTE1br2BC71KMIKonBBSBXoLHA0BKNR1Da24HM3/BSN9CDRRy72VVJSJYfy/Vc3XIPpk0bDaW1RZilq52K0Zth9EP/95F89puQzJ5W3z0WP6Do+dvG5QC4lRnSxwbJARyKOH17zcbx+30+x+J6fYck9v8Tzd9+K6vJCkRWp5ImCJtZaSrye7MvwQn+JOQYSreIiPLVoCRo6Up3oQ4SiGaqqb4UkXBJP2QLZKJFk6RvrgGBYRe4Twaks0tmgfAuqcguzb4W6ioQOpFKYMnYkQlTTvRmzXTHiO1SsWvCT6z+JpffdisX33orX7vkJXrznxxhZVSLODVpiKY9zQylOo/QKemGV4sQMAgsBDqKkHI8ueh2HW+Pix1NbEDADBooLCwRh1b5kyGbPED6FEbLje/7NZ7eh4lKsX7cVn7vxp8jYjN9UeVVqz3NZHBQFDTxwy9cxeGA1cuk0LIOUUiI6RRZbu2MPNu/b701CjDRKcRINHjh33myUVXLRVKKeWAlsF8XRfIwZVI2JQ/tj/JCBmD1iMGaMGQ6k0+JsoM2YSqIDUikiBq0KjmTaitNSSiDp0IImGloT2H2oVvEFTo5qlWMLSy0pLT8KwET5w7WHAVpJZEOI4OFJ4aSf3Co56Zu2YiKUTTHDtHDB/OnSFjN+/e2pkMkALAuRoImxg6swbtggnDJ0EGYOG4gJY0bBTRMuKqNCFD4p26TifDkGGbKnDEpccSCMltYOHKqt8/pTnIsUOseqPUKZe7aIew8jrFrErpRBKVgGjJIyPPmXRbjh9gdEe6UYr/KJuLQ0dVoYOaAKP/vmF2Ey8ZDsUlBDE+25ra0dB2obFWCFiiuzjIizcDCwsgTDB/SGy7hRIjEpiAMsX/2m3JOhSuGRkHPmTgGyKclxNd0sQjbTmPlPxafSkUHNmx4jbhpZbNtCcUkhBvRlPpTwWrWgtovmeLsgrhzw3ji/vrRDU2tnZBlDKXUNls62SWwZ5kf3sXKJ0knstDTjfQtm4+zZ08Q2S++fD0txrjCSyg1i8RtrpBcSPQU94MwZEwAnBc2xxDwoZjx64TgLXYVWWlQvNAbceNTcyqKkIIzKXt5m68RXG/EES6EqBZXr4J3qOsVu+d6jCOuDt+vkFMISULrUwfrV75/A3X95WcV+CqKqq23BPAfvnzcVo0cOAZjbRQYrVIYKiSFRVISSsF1hvWxXVCvSR8yeOlHKAPG8UNhAAFt27kHOzlLyVEoNXFy8YA7OPmMG3IY2WA49Owwnzwq6wmXQNI1rZKE2wo6FoJUB2powb+po9C2gPdOLRQVQ3xLD4YZ2tMRisoBiCZbNBlxw5lwgnYDt7RS2Z4pdmBuBY6QnT0fOdZBrPIwZ00bizu9dj7BuwBHV3UdXiqTcgLbEyO7eux8Zy0vl9jbhB+fPwflnToPdUA9H+vNOeOIOkVSFMXJjmtBsE2htwunTx6GqvFTEU0nZBVDb2oF4Iq0UZ9kyPp3vFhw9qtEeRdiuPVNeov+fCyMiLSmqacIJ5+G67/8aL6/fIEhI9COlUGiooyWZRkc84cmTnpuU51m0wgsAUPvdY3EeFWYLBUxaFGXKY7/RMFZv3IEVG3d6kfkqHYwFNO675Zu48JwZcFvrkW1PI5dmjS0LFjJwrBycrIZMVkcykUKmtQlnzJuMW675tKLeRH4JbgBeWLISzfvr0RSnbKsQjHI1/1127hm4+Ly5cJsOw052wM6yXRdOzgUL5VmZNJzWBiDVgssvPRNP/tePUVVcIAoTFS/Cxadttu0VgDaCeOOt7Vi6eZe3AWkFUTG+d938LVxw3lw48UZYsWZxJjC+w865qt8M8+Y05BIJ5FobcOqpU/HTr1wtMi2VQcWtgGeXrERjXZOEUVIvkY5kdt3/ZuhVPRRL0GUupJnck0f2pfLG8JKAoSGdsbBi7QZcOP9UFOdHRI7zvUE/++8n8NQzSxGMRiSvigZxJ5dDZUkevvLJK1BewCgtogM3gmJWvkS7ZO1beHX5W9Bp4xTfvotc0kJHKoXLzpqj7pGcfAdFeRFcfu48DB1SJf2nUzEw64TadlDj+SCK8kxMnzAU13/2Q7j1619COTNW5R/NVgbiloOv/vhO1DXFEQybuPzseZ2xBcxuixgGLpg/B6XlxWhsqBWTF8caNHWU5gdRXRoVN+8tX/kMvnHVh5DP6jASTG3AdnJdapExgziIRSvWwrZsBEwN9S0t+NDZp0mKjxBfuqyjYVx6zmkYOWyA1HNIJzsQpHvXdRAwXBQyfT0/IJV5WCmGcbfl+VGJIiMHpALZns3hyz/+LRpiSehBWisI7a48s8tCd8NXzZhxudCvbmj7mE2qqRGRaBJR+VaUDRUSK4nLZvB2ayvmTBiCX3/vWkwaMQRt7R2478/P44bb/4CsXgDTYKRQDq5mwo6147wzp+CZ23/gBVV7W4GZu1RWNF2M7D+892HceMvdQB7ZtknMgGaGYHY04/6fXo+PnLsA4i7lVnKBQJd1qE8m0RrrQGtLXMxNxSUFKC0qQEV+nniCOFmpYE9JV+7T8OVf/A633/MU9IIoom4CL//hdswYNQyOm5PyRQxBVNfqSFoWDrXEUNfUIm5lVmqpKMhDYfhvSxj96uHHMHXYIMyZPEWZvkSc0bG3qQXJWAKv76zB5z7/Ndx7x834pERquSKfi6IlZFIx1qZUCk1tHWhpbZPNUlJUhLKSAlTS3u29bJrTRFGjVQK4/lf34Rd3PAQU5ot1JkiuKJu0Z5h196TI+LN926ePrJygoKirBH6ycoaqUengfjWo5BTl4/VNu3DGp7+GyWNHoq62WeRNLZInSXCSf+sqFg83i09cct6Rfc5FIcaJ2quECQ6lsbUDkbwQJk2dANvOYd/hw6htSSAXiOBLP/gtogUluHjOFBk1U1ZkJ4sMrEm2KzNe0eftYX/cFLRDUgdRsbts4Ef3PIbbH3gSKGLEmYGOmI4bf3EfnrrrR4iaAUi8rFgRiLQ2oqaJYb3K5K8r2KiLG8xjkwwM4Bf/8wSu/+YtePyB2+UyFQBPKcHFQGb/lpdiR12duHO//P3bUVJYhIvnTZdnRDiOF+SofBAoj0TkD30qunSp6Jcva+vMYVO7Crfc9zBuv/9RzJg3Fabm4GBdEw7Vx+GEmOLDAtVdmummr4ZRNeYdT5Eh2h3rTxFVCXAVWyODg6mtU9inbTSnM1yaZTWUN18L0h1qYM/uWjS2p6HnFUAqbhMyxEnKt23NuODsmfje5z4qm4AmqCOysdr1rJZCxeU7v7ob48ePwYxJp6BvaQGGDRmArVt2ImuGkc5oeObFhcjLD2HK+NFiJPftpQJ7Ufx9yn1EaiMFZ9gk2SWvP9DUiut/8Tv8/O5HoOUx6IZaviGxELt21GDb/oM4c+Yk5IVDyq0pgCLH4Wp7f0o4FShyBgymqW2L4du/vg83/+ZPAKKo6t8LZ89kYiaFEFU5m6oe6eDOvQfwp+cXI4sQ/vLiq4gU5mPi2FEI6BRV2KJnYZFNrXpVHkTOVIlqYgGRzGYNh1ra8O1f/g4/ue0eLFhwKkYO7IshVb3Qv29v1OyrRSLL3C5lpT7Wur+Txwy9akyPxMNS8C/Mj4rslM1kEKCfkzVPuNtZ9kYM4fzO6fGcMCKY4hHTlHFegMnIIJ5zYSdi6Fddiod++j1UFhWICYfEVQVzEwUUAhCRNuzZh18/+JjEuubSKTQ1tYqSd7CuAYlkDnpAFet4YeHreHXVSgRDBsrKylAUpW/eyx/jWD3q5BMQts2Qmrd21eDux57GNT+6C68ufQsoyhNZlyNVlRizEh+7ZcsuPLd4GQoKoujbrxJ5rKDy9u0tbJtwAPbXN0g9gS/c/Gu88MpK6HnF0IMRbNm5FdOnT5QkTJmzBzXes2J7DZ56fplEuWUcFy+9shovr1qHaFBDZWkx8skp+JLJeHPrJDIKvRjivbFmL37/+DO45pY78dJr6xAoKcb8Wadg7dq3EMzLQ0NTGxwzgMbaOuhMJTnC41T73fCumdM/0AOEXBRbRAMOLjpnFp5+bjnak2kYERqbAl6qMJ/wwqF4Jm3Pzklzi6IBNGGxLr8psaxuaxMqy8J45K5bceq40Z48TIS3oTmk3EwMJKWmxVPDDXc+hB//9Lc477KLJJq/uaERwbwIHn/mVVhaUHL+KY3ZTHHm45bcHAZW98PYwf0wafQoTBk/QmQLWWPPvdwYS2Lh0mXY09iKtZu3IxvLAKE8BEMhkev4nACWYmIqjC6xBapsvdWRA+w0Ro7oi2lD+2PB6aeipDAq9meZrevirR17sGLdeqzfVoPaA/WSp6bnhRFgzpUWRDabRnG+iU9d+j6cMXkMApqLLAwsWrYSjy5ahUPNGRimMsdRXMglaAa0MKRvOUYP7Y8J48dh0tgR4t0ixxe7tgY0xBNYtGQFDjbGsG7jNiTaEtCjBRK4DTsl1WwqyksQjhRKzMMjTy1CmmKDBNl0A4a+rckeQ1giopVoxRUXn4ZLz1qAL3znVjTVt0l8JssF5VhDleF2jkc9O/2TXGx6U7j4DiyWOo+3Y/Lk0bj7u/8Pk0cP9xCalEEpcnDIImnWYiiiiUNtcUz/wNU41NSKcCSA6r69xR9fX9+I9jQjvAGT5i62z3EQuVwLtpVW9WZF/qAM4pNX+uVV0LZ8Gga0aB4MslAPwPSMScAIo7c88x2rLwocKI8S6Vnlm2F+Yk9WYo7MoXORdCCcpyptCyen+ESTHB+aocFmKncyLYgoMpaktttyjx6KypzYnsO6sbQ0OwZslr5PpZQLnBYH2m45aH9u3JGSFGpAz4tA88xz3PQU13Q3jf79qqHrJuqbmiXD2TVYV8EnLJ2D75YvWmBaz1BYjp7FH7R0Gx79/U8wZdhQfONnv8VfFq1EMpYUjR2RPOhebCWRjQHZNNQzyIJJfvQKFRRH8LlLz8K3v/QplEQikPLzknKt2L9UnaH/RnQuZX34wg9uw13//RyM0lJodhoWa/trQYmYMpgW7okOlImJPCJM0INFoi7nKIeq+rPSiwTYeLKeLLBi6txQIh1KUqXCA/+dc2Ebcr8UHmZ7RGpyFN7F/cYNRi7BuzgW4pGEvsgvHrdZwIvSu3jA2IaKd2XZTlfjM8osoZqUawUPhWNxfER09sRPClSqHV7DamPM9xXRWebAfaUQlH1xjNQxqGtkGQeRTqt9FTQ9z7Iyb8mAu/lNC0y7jCPvkReBZKWTGNS7GEsfuRP9iguxdutOPPHy61i2/k1s3nkA8Y6U1H/lfqXnhxaE/GgYo0cMxLypE3HFuadi/NBBsmj07tBjxUgiWXBBNbVMhD5th08sWo7LvvQdgMXPiFzyIuKo6wSFJFHQQxRCg5jB853Kj0Jp3uq3cARo3hFuEIVjns+APfjt0MEh2Kc2g4fYpOSk6jzXpSuvF/+gakcROgZLK2JIhFW2FvahqJtSvhhjocbp9S6Dl/4FNf2jHB3/cWDeSLkpOx+VpDaDnOXg1Mi9egxcF9rO2a+CigcF73f3fWjm1J5DWO5wrmaurQ2njB2Ev97zS1QXF8rsqLjs2HsAHcmkBBV3dKQQjYSRHwkgEgpj1NABnfX4KYsJ+fOo0BF0UrIyRWFT17By03Zc+oVv4VC7JSUv1VMQmXFPMkYq3FNg7r4FfK+1rBnTLuX26ZGX2vmUvwA71oKpk0bhkV/9AIMkuMLf+ccbihdzSXQTSumRM7lctoLQAEUrdCxcuxkf/8oNONySgpFfCl0Cwvm8Ad5HFtlj0z7ehE4e/zcgoBnTLu6xlZO4TtokWS6YiXFtcYwYWo07v38dTp88TobfabD3kIpaPwfIQBDaEBUXUjyP8h2pq5L3jlDLO/70JL5z232IJR3JUuBTVYjSKlSQRJ6R/GStR4JUjoadMMKjD3X+Un36PxkXwJfaRP5R9Xn0uX++zaNbOfmrKwQMvd+oHrHDslOlgCphjyYsMxxBfUMMjzy3CG2JDgwf3B8l+UxjoSzlacPiXCCyKsWG7SiWrhCUcqpgP4B123bh6h/+Gr+673FktCCMSEQehszaADYfqyQFLRjT6lFnQXgfHArxFPX1BEXvlFJQpGPPlapGQVyNRiNSQNivgChnqMlrGqJ5UUkhkcAUT/rlqBUiK8RXTiS/765jUfPzj5z8VBDQjKk9R2EV46YEGpQIeUMcBzqsnAMk2tGrqgIfvuBMXHH2aZgwYiBCTNf4B69kKokVG7bhD0+9iCdeXo6OeApaUXGntm26dE7YYq6igibmKy/S1iPXR/fg446PL4wpCAZgmgFksxllVpOd5yIQCKKQkffQ0NHRgXQ6LTlSDP2LRCLIy8sTHz2LcxBplSDiwjRNBIO0pWZh00zXqQwePZSTv/4WApox5RJ/if727Dt8hAtGMwwJHD0p5Msqgl+St2Fl00AygXBBFBPHDMX4oVWYOHY0Rg0bIKVQFffVkEg7WP3WZmzfcwAbt23H5l37YKVsKRFkmvSEMYSFD+/gI5RI7RgWyAowOgIukw2pbdPsc/TUfRYuVK/TEK6hsLAQgYCJZCqFjo6kWB8IGlL3PFJRTUdHokPC+ET4cB15Hlg0GpW6qkk+rE7xBemxsKAQwVBQEJyIzpc/Eo7hWOLFO7wUJ2xzPYqwhJIiXMq2J78l9ds/o8wsLJDmPyCOD8DS+Ne5pN7DiJkZSnMAU7fDTIGmrVQtu7Iyend4cq5nVBXaSoQVeVpGIygm94aCptT7yrGeUBcWXpAXQSAYREcqgVRaPQJPcrqkNhjHRpM6RRhNwvtIMRlDwHrDLL4mZ2RsNG/ZyI9GxPKRSmfkiYqEiW+jDQYD8igk2orlPp/SHwvF3oNWjh5H2GPB/XjHiH4eDnpyn7qSHFTk3OPd2HmcyploV50IqE6RiqnjpMREvpBpoKgwX+hgPJ6QKtaSRiNGehWJxQAaqYLNAB1mcdN7Z7EtVpKhMd9BSRFlcB3Nra3iaiXysmgdA9Yl6Y/ILOGOBhybfSt7Jm3K4UgeCiIq/rS9I46cVNv4exjbOdH3zJd/LCT+H4JCKI+/Xv+WnOcrT9KSx3j59EKFpszJFy8PcZdPRBQE0QWRhKDTiO5Y4n2lV94wgrAdJvkZUlyNEVrb9+xBO9NFoIuDY9SQISKSbtlho6m1XbhDyNAwsKqP2I73Ha5DJucg581H6rHqKsaAAULCI2SnKtsHtwgFBm7cfwsE/4fr1x1dv6sR9p2ZsKx+Z1MUG1glm1SQj3oXrsrwQ9tCLN4h+VoMBCGesJjHgN69pQrKvoO1SPN62IiGQlIJkGJFOGSinc+WpSvUceDkVBE11tJi0hM3Qn5+FP0qeousG4+ncLiZkWLkHjbyC8Kwcll5iJyVzSJuxcQERze25J0pdIUuT03kzvIwV1iPv5s7p/cf/+U/HGE9kcAXCByych0FBawgoyPekYRDlu4tc44ZtcQk1ut3ciiORjGoTz+EgiEkEinsb2iUyn2xZBo79x+UNlriCck9sy1HUm3e2rYdmqEhyaAUJbsglkrjcEurICyfp0ARwrUtlBUVYOSQQcikc9i8YycyrL4tweAKKcWc5tqi8OXn54uFgkqaxDUwBuE9iLT/4QhLkUBho2KsjATTJd+KWCrBzBIp7yJkmigsLUFHIiGPYTdZXzWbRXMsjnAwhHhHu+Cfa+WQsx2Q4rKuLMUCPsSjpDyKltYYOtKMhCJYXZQW5SGdzSCZzGLrnn0SY8ANohsq65XtRg3W39IloY/BPeyEpZPEWqAr+zPLcXI8fEK5VAgnokrmLdXL99bL0PqM7DHHQc+DlmhKLZ6fio7SRsqM1Fw2C0usASpKalB1FYYM6C/I2dLcKtdnLQcNra1oYAn1bE5su0Oq+6FvZS/EOtolNUbPZXHajKmYPfUUqbp94EAdH+CNoQOrce5ps1BVUYF9B2phWao8Ul5UWRyYgZvOZNCeSKG+sRHtjMGlCOE6qCgvRXW/vuDDSLI5SyoLsQYY7bYWkdqbz9HCzhHoqs155Pd/0jeTBpkT/sWVkzA9hZTKj8V5iTlBHjFP9srQQ/5lclkpbKEZAQlnZCasm0vDtTKdSExDf8AMCNtlWjetCgUF+Zg1dSLyWR9W07Fpy3YpGhcM6DANEwGxHMjjtlFSVIBIKAA7P18qdaesFEpL83Hq7OnymKTXlq1AY3MbalkvTNpnETg+gcZAdZ8+KCnMExl7x+49EqhDpwQFbj/FRQyAXTx1SkU7gsIKEif8yv7NBP4jRIJjUhTXRSgUFI+TlcsgkWQhOEWbWKozkhdFkk+CETupjpraBjS0J5BKppCzc4hEAjh99nRhxUuWr0ZbPAE76yIeb4drZRGPtUhYH03By9a9hZrDddi//yDLI4gYsm3LLripDJrb42iXvk0URIvQu6RYZOT8cBiNstFcFBYXIMBS8G30iOnyVBdTy6GtjX2wODNDZW2pQshnf4mpDhryolFB8EQiKfKtKqTsQ4ON/+e9NHNyz7lmuwd8PlU5mqaQtUYjUeTxuVV2FvGODlVsz3YwdGB/9O1dgdraOrBKCsywYrWs4BJUVfn69e6FS84+XRDm5dfXYtvOvUJlo2EdgVAQsXg7AqaOwvx8tMRYioi7wURlZSkK8yI4sKcO6RzHlmOwv2QxsM7d8EF9Renava9e2H15cQhnncHnNYTw2vLV2HOwFiZlVT4/kZkPRhCwLYSCBqLhEOLtHZKiaZhBFBcViJjS3p6Qat0qrqJ7oPxuadXQ+/Zc8EtPTpqOBabTUJOmrGhRA2e0lwv0q+wj7D2ZSYmBn7bQfpWlqK7uh3QiCdtykUtT8QHqGpuxY+9eobqF0QAcO4d2PuXaCGH+vFn4wLlniNK1e/dekT0/e8X7MX/6KahvacOhg3Wo7FuJKy48B1W9S7Bn337UN8fQVN8Em8XUdKCgKIpxw4YgZBio2X8Ire1JScyUZ2bxoUss4KwDo4cNQ/+qvrD5XC1Sed7sMmUoh0wmq1iHJ6f3JJx7uq//CJFAAU3VU/V98aQ2/J5iFULbEtmVDyCmrFuzfz9aYi1ojLUKFSsIG1gwYwpKS4qxfH0+3lj3JlgKbjmLqrG6oOliUL9KfPiiC+U5r3948nm0tCUxuLo/qip7obpvP7gszSkhkCEYWgguy3dbCYwe0h9zx41CPNkfm7bsxp59tRgyaIAoZas3bEFDYzteWrJaymfuO1Av1Lcgz8SYU0ahsbEVew7WQzMNcT3T/WxyDuLO1pCmSEMdxEvH9uGgPo/mOD2NWN3VH83X3dX2O9ju8cfYeYYOARW1IlW16RBgvCzjaQsLqMAAyVRGaggkUmm0tzaxLhK0QERqZjW1xmEGw2iJt4uMGImY6D94JOobGtDa1IDS4lJU9emLbDaBXmVFaK5rwHPPP4vDB8fizW37xBrRdGA/fv/okygrLcKmHVsZx4htNTVYs3U7GltacLipVWoEXH7+fAyrrkZeuAB/fm4R9u2tVbETrEjj5jB+1BhMGz8SdXXNONzYilQmg+01uyQDo62tDVJ0WKGqKH/kJlJzl2spwT4EPRXO4y3BcU8c74Z3zXFD6zPsJoW0XPp369/x4UXEJNtnSkxhQQHC4bCE8inzj42iwgKMHj4cvUpKEWuLIZtl8IqDqqq+KMiLit2VJYb21TZh596DOFRfJ1r7uafNxUcuPAd9epXira3bUN8WRzKdxYat27Fh6w44ho5sOolNm3cg1p7C0MF9MWfqeOzauxcHdu9BWXEJJowbhz0HDmH5urewefNW2KkM3ICOEYP6Ipqfj3Vbd2L/3t3oVVmOiZPGixuYylwobKKivBz7axvlfiYBZtMpJBjZ5XEJzjkkc1VVZ5jXxeCdgrw8CXHMMdHyuC+VA/buXe/j46GhE2Ep2ImJpMuF/rGunz5CH+sYz3U97n/373n7ef+4f13XT/+cf4+QCp8qdBmjhI6QitLdaiAaCkuqdTabEZ8/uWV+XgFYp4olklkgjdUG+/crx9mnz8XA6gGob6iTVGUGYPM5WowdIDkePXQYhg6qxqG6BmzcvgOZ9g7U1OzB/j0H4Zo6Pn3FBfj8VVcilsjiwMHd+P51X8QH33cuwpEwVq5dj2s//1l8/oqLYOoW1qzZgP5DhmLu7CloqK/Fuk1bsXrTFnk4Mo22Hzj/LFx8+ix5JtjqjVvkaYo1ew9iz4H9yrKh6SguKZZna9EbxxyMfpW9MHroAFHEWltbREyIhIOIhFhjAchmVZUwhbNHw0wQ9e/B2z/XdR3878c65x/jp39d18/jnfePd73W/36sc1L2VIT3Y2xF9n281/HOHe+4386xzh/rmH89P//mPBH36IM8wkBoWgLo089kbbi6Cc1w0NLaii27yCktxFNJZidKarjm5kRckLqquTQmTRyHBTOn4o03N2PpG6vx8vIV2LH/IPYdRqKwDAAABedJREFUPIhU0sI5Z8zDmXNn4umXl2DFmlWYPm4sThlcjZmTx+H11xejvr4V7YMyqG9sVmarvLBUk2PNBSOo4/NXXoIzpo7Fw30rcNtd/4NU0oEZVM+arWtrRTyTRl1DgxRtY4xBnNFeBgtUAIMH98G8WVORiHfghcXLEG9vR15+GJFwSILEKRIwyiGTyYiTRNmZKdv6m5yfPtwIOz8oqCugve9Hg/ZvLzjW+WMd63rn8c4f7zjvlXP++I+MzVRlgbq2/m78ztF3nd2RtBiSIFkuTQPjWImYZJcSK6sqHqGhJQYp8MqEsEBInqnw7MLFcLMO6tuS0IwIJo0cgfGDB8BydKxY+xY62tqwj09i4QMsbBfz587E/OkTEQqEsHz5CvzpqZewr7YFj/zlRdr98cu7H8BTCxdjy45dcJI5/OZ39+PZxQOxYdsOqW6TiMfFq9XY0oFwNB9f/NSH0bd3Ge78nyfw8quvY/OO7WhqiQuFnzP1FEwcMw6Ll6/Exk1bEQ0FkBfQ4dLuGgjIhjh48BBy6Sxa4nHYjD4ziPy2ZB1LbYZOZO26nj7ieilCXU+dIN8NrXL4TcJ3PP/0u/W7ZCp0BSrxV4z0qjQEDZKMLmUtg14VpSgtKUI6xerWapEGVFViyIC+aG9vR87WEG9LSLkkmCFWKkaCz03IWXhj/QYc2n8Q06dOxA+u+wLGjxiKlevXCyKYwRCeeWGRmJ/2bNuJJa+vQWsig8GDqyR8oGbLDvTr3x/Tp07Glpo92Lt1O3JGAE7awqatO7BoxXosWbUBA/r3wbWfuARDBlVj+/46bFu9VkqwW6wCY+q4/JwFGD9iOLRwCGs3bkdbPI7WWBw7dh1AI59hC5rdLLTGYlJpm1VYyGH4PAXx5vkFQJndQfswX/6e7/z0Ir/e5ev+dnw0jD7DbpK6SNSo37V/ogwL3Mn++CICh4IBRPhcKiGofDqNjTw+Z3b4UPQuK5bglVhrO4qLinD2vBkYM2wQOpJpHD7QgMLSYlx24QJMGDkY+2prcai2EevXb0TdoUNSl2Lu3Fk4b940hMMRLF61DhvXb8bLry4XW+qAYdX4+Ec+gI5MGlV9SvFfN30d86ZPRc3hWnzzC1fhU5ddiAN1dQgX5OHWb30VxXlRrFi1Hq0tbSLndyTakHMs7KtvwzNPP4fhIwfja1d/BgX5Bdi+ZYt4r4KRfCxeuQYNDc2wc1k0NTQjlrJF52I8blFxCbI5VSmG5T7DoSAYp6CUTZWhQUcFo9OEC3mPROW2lgTPd+1a/308NCWETVDg3f1Gbi6xq14hNtYsjUbDUkGaGy3GIGrNRS6XQyKRgGOFQA8Q7bHpFIsRxxGJhtDWngRyWQzq2wtzxo+Wh1Rs3LgF6w83Ye7smThnwVz8ddEreOb55xlEhcP1TTh8sBa9B/TD8MFDsPbNNfjope/DJy96HyaMHIpHn/oLSgrzpX4rN4vLYsV8/qqVwYXzT8MZUyciEjCx+s038amPXoGG5gbcft8f8ccHnwBCET4xGVd/+kOYN30CysvK8Pyri7HkjdVYunaz2JGLC4swafwI1DU0YsuuQyKWnjp7Bvr2rcLKtRuwccNGhCMRjBo+ROTZmr37RFGk1SQ/L08yeumCTrGelsixJLYe1X13L/kxR2d21tc55ul3y0Gfj6nxSHkf14VlsWynBsfOyLNd6cnK2g4279glYXhZKytlzdO5LF5eskyyX9uTWRh5EdH4Fy5bJY/v3L3vgDyB8KzTZuD0qaNRVGzg2rfexIMPPwlI4TYd1338Ulx63lm495GnsXfDVrTOOw279x7GoqXr8DXrN4hn0/JA4217D6J3WQm27arB3r2HEYaBZ5cuxqgxwzF/5iloa23Dsy8sQZ/ZZ6CtI45VK5fh0aeflQLBr61ag1Qmh36DhqO9NYZ4rBFTJ47ERWfPQV19M2of/LMojuGwgaCbRgnjepkzIcmcgME0HUFGmrpISfnHMEqyf4YuerK/n+b+blne442jsxTSkQv+P7/dNM+Yf1BUAAAAAElFTkSuQmCC;" parent="tzZtZtUzTntlYtjN_Du5-2" vertex="1">
          <mxGeometry x="0.6900000000000546" y="24" width="50" height="26.17" as="geometry" />
        </mxCell>
        <mxCell id="MaFsSqHFL_aDIbuKhQJ8-16" value="" style="shape=image;imageAspect=0;aspect=fixed;verticalLabelPosition=bottom;verticalAlign=top;labelBackgroundColor=#ffffff;image=data:image/png,iVBORw0KGgoAAAANSUhEUgAAAF4AAABQCAYAAACQ2MIeAAAJsElEQVR4Xu2ceYwURRSHf927s7vjzJ6woCCSGBKPBCHgBQYMRpCIBxABD0CUQ+KFEgkGWUMEiQSD4pEgSDzAkwioYPBAokbRoAmERAQJEVYUhL1mZ9ljdmfMq57qqenpma6ec5nt+mcz29V1fPXqvVevqlrx7a0OwUlZJ6A0/djHAZ917IDiSHwOqANwJD433B3wOeLugHfA54pAjup1dLwDPkcEclStI/G5Bq8EFdaEkBq7njJ7Rv+jvPxvoZqjHmS52s6gVmEqvNj7qaxcFTUEj0tFWyCE0/XhFmUZRLar61ulosSlsD7zQUimDUmBJ+mmyvcdCmDDtlZs3NoBtYdIfDAIzJ5chLmT3LjmChf87clFXBj4RNPGOJoEvatTwfwVPnz4dQeoIT0xkaDdPbYI65aWoaAwvvRzVczVE1fltiSeoJNKGTqlEf62UBT0niTxXNCoz94SBfu3VIBUkB3Vo/h+6BsSjaQ4QmZGZPjdDThaG2SqhaSd/j5xTwnGXV+M4pL8lv32NuCrn9vx8gdtet+JwaABKn77sDLG6HJNwp0WUbNIS7y3WMFzb7Zg+fpWVgFVeMOQQmxaWYqBfQuYsekJiWzb8dNdmLGkGT8e6NRtW808N56d45HW+TE63kziSYd1dSioGHNWVy80ygc+1kaZdL7RFY0a3bDryQcmmWdm0qPry7ArLEqW8Zn42+w9O+3nrvOQqdrsp0Qzv3FPbxQUhRgPUYuY9ptUjZWkEvhP93Rg+tJmfYr99E45Bg8q1KFblZFvz4nJwaOdGHl/k85k84pS3DmmSIoJ0/FWUDxuYNFLfqx5r41lJWk/vK0KLZrW6bGJuFw2qV6X+oX3lWD1k14pLtLgJzzWhF17Awwy+bHrl5RJVZDPo0Lg5630sXUMpfEjXNj5arkUF2nwo2c3MmNCiY3sglK0JLl4yJfB8BQrWLS2WdcE5Gx8v7HCAW81wKSnSwq0JXcyQuSAtyJs8pw7DIdPdMLrUjHq2kIWArBjtxzwdsEHgWHT63HsZHS8g/visvBzA17Settlkun8BGtGTROLM4mJr8K/WFuOUVfLucm5AX++Gtcg9IWgMb5E8CeOceGT1XKeiQNecpqQXv/r7yAGT2swfYPAX3qxij+3y61RHPCS4Clb7amuhODtLA4d8JLgZSTeAS8J0242KYn/pJeUX+9IvA36UuAl41A0g2pea3FWrlb8HVVjRSiDz6UkPhVVs6FSSk3JBcmKFYye25D1IBmPpRw/04ne3gJ43IpUpxKNmwPeQqrJcH39SwceXtWMv/7RlvZ33OjCmqe86F1WkPSckAIvqeNNjau0xH8nsxESR+JbhT0UCvIZj3qY/Y8js3j20/4Abl2g7e4Yk29PNVAYiq3PajhUST+eVA31zaKNccGLXIxtCpep+NIF3qrTNp7TvqVnRB17w+zYCAtmPUg7PZabZzG11v4nsYDi4K1mpdskHk8SL9Gu7gdeQiqHXV6Afe/Sst4meImy2QKqR4KnZX0apTJKaPMSfAr6PMo2pApHPMNpYnOkjKtR4uP0jbysmK0/UdUkYNIt3UlpOIY9XzJ25Hq2ngMG9DF3P5Mt20zddw+vxobxTJg1GYlXgbO+Lix80Y/PvtNOQlBa9YgHC2dcELEFyZSdoLGWEp/g3fPSuEYZwPB0vvyuOpyqiz1IG+UBOeATiIJdOCqw5cs2zF3pjymUb+cd/bySrXzJL5dWNRIeU35JvE2vhjo/74WmhJcjaB915FUuNjDp9JhSA7/nwogzzO8/8UOg9DuowOOBHqvhx7LZgaaWsJCF8+kiJ/62+8wmHOr8nOU+vPV5e9xbKUmBj9c3YV4RF1Ovht616HfudHwCV8uOVGYMfL6pGgL1x/FO/NcYxMB+KgZWF8asQB3w4WlFsEzDwhJSIVq8+oYQJj/diP1HuvR/022SZfO9kYCXTQMoLfFDXawOO4Nq5SGnpuOzFSQLKigbcyZiBgxXeZjNCA+kHTjS4Ludcc0GeAmX79jWXqiq1G6W9Azw3KsRb3STVyN4OKJXQ2D0Y9rceotzUvSIBFUl7XkEFdSe7bQ++0LxlBYwj0u6bDuDauybgQnxiatq4r0rlKH4CLzR9RFBhiuIq+OF+0dR5QhlZhJOxsomtWfRt7jupPhuHNdaA28V8PeAHfR8/0vh5sPaiogfL/G+tFR2J4mX6NeEBY36TZl7bynCpuXlUlwiEm9WSXhq0JRas+kcFr/eol+0aviqGorLZMy4lNDWHFc1xXKrSzqlS8nqfKN42osihDKDyk8AS4UMxD1XY2hZUBehgILKcWd0JhSUe2iq23xLUlRV9BEJma0/gvH7iUDUDbdF091Y+Wic7TdaHLkiLfZeoGDusuaEy/rdb5Rj+GBtE7v2VBCDJzeayhu/0HtkZyX850LIZNmsAQFyv2KbQsK45DU/Vm9ujboJeeUlWmjCKkmpGirEaGApdLBhiRez7nBrbqCoD0na8wl8+B4vgxm2eW9/1soCc3wznt1/ok0QHmqwIB8N3uRbNTpQNaS7ebwy/iGFx6e7ETXSeSzxNPNf2dwa9QEN4nDwo0q2+SLyimEveHzSEs+l/qNv2vSLxrxg/l2DftUK/C3AlPEubFhWylQBpUyqg2yUvWVXAF4P8M+ZkP4NB7HvdLF42s0l0tJO79oCb4RPv3nMWzz/Qvdg8wk8v8fKNI2w4qbfyUBPCjzXcxR3Wf5uM97aHn2XiJ7fP6EYG5/35oXEz37Gj3d2tsdojQcmFqFmZqm22hbtm5VVDT+3LfFiuWRw/T5g76EOnDzdhfomTbX0v0jFbTdFrHs21EGir0Ql6zFRX3Z8G8DJfzW3pqpcQf++BRhxRRG8ZbClWozjkRL4uIOboldzti6EQbfHv6dEB5p+/bgiKXfSTtmsf+ROcq8m0QpfUtJ5tsyApwYWCc6vAmzf3YFZNRb7olVakAwKUHZ9vabVTL51pt9HDQRZ3oyVTQ3oIKUebpdNuImyZwZ8nBqHzaxjl3pFQ0xg2YrvLlrxRTq4Y2+s98QHgkUyy6NHJJNlp5G3XlRWwYe6gCfW+nRjRQOwcakXU8aWxEgV2Q9yXeev8LPvn1Ead50L6xaXxUCnZ5ks+7wHTx3gBrnBH9QAWulNNQTyoCgN6KcmNGiZLDvd8LMq8TGNJzOQqe9VZrLsNIyC4tttHRZOQz1OEQYCuZX4HjwcDvgcDX4EfLI6MdF72X6WI4i2qg0zcSTeFrX0ZXaMa/pY2irJAW8LV/oyO+DTx9JWSQ54W7jSl1lp+sZZQKUPp3xJjsTLs0przv8B0ArnzthYUrYAAAAASUVORK5CYII=;" parent="tzZtZtUzTntlYtjN_Du5-2" vertex="1">
          <mxGeometry width="28" height="23.85" as="geometry" />
        </mxCell>
        <mxCell id="tzZtZtUzTntlYtjN_Du5-1" value="" style="shape=image;imageAspect=0;aspect=fixed;verticalLabelPosition=bottom;verticalAlign=top;fontSize=9;image=data:image/png,iVBORw0KGgoAAAANSUhEUgAAAIYAAACGCAMAAAAvpwKjAAAA3lBMVEX////+/v77+/v9/f38/Pxbh5tcZpIfRX7odi3HIDfrkSlTgpdxmabldS3pfDgQPXr31bUANXblr7HUYm/ncB32zLjvpYGvtcdLV4lWYY9hd57qiw/yu4X87ueSmLTpvcG8y9PEACP43MOGpLLf4elaipn769uorcPU1uD31sbGES6Zn7hrdJvnawbZ4ua+xdOVsrvL2N3pgUPxtHj1zahqkaPwr47bgovr7/GqwMjtnUvuolf0xprwrmz649g1RH7tmGnx1dd9jqoALXLOTFp3hKY1VYfCABjCAAUAIm4S7CgNAAAL7ElEQVR4nKVcDVsbRw6e2VmMk5ijR4HgSwKmmJQQB+zrkTh3vbYJENr//4e686WRNNJ6IXqe7IPHy+y7eiXNq9klxlCz9LDpmyGn86+0b1w4+CHr8iF9hoMRv3Hs1+np1TflM79aZ63/oW39l/5gmzLo8qALg41lg9afbvvnQIO2niMOdv+cH2rgWulkGGwb+g2aO6Iw+fRWmoOhkOcAh9AZbJkBfdPyGeLpq9nssxUuyHzh0MQu/zryp3YfxUEO3bErDkozLG8mE9vrCzhd9Bqg+A5GusNy4mHoKFo0qM3xvYyYBMOJIcAZUSPc4kxAKBgjiFN+H9bDeAQjztSM+PS138NI52cPw/WiwIyAky2eI9KyiZEKBb5gjA3CCJ+jn5HG9aDAXKlZ5r+JMHS8mxhpKxScEctqZ8WIyyFq+6sWZoShyL6wPd7cyEiCwdkeniNhjhCe/YxUiwubFkJUXFxERqq1yEUkPbWzjR4TGMnmYZh0O+RMQ87UGXFtoqWnar35j7c3fO71ZHLmrTt2KCbxJ//zFffF1czb2qmMaCgwI+btK28/8RnWE9nOr3iOzF54mxmNkRjHKiMpvt8+76yDwWZQYawMY2T2Ymtr68WqlxEvimJ4aTmSYdC52/Xnbnn/HPztWQk/+c+fr1gYFRhitkcnQ4iqOVJgCHWPhKiBEMX+BBg6Izk4FH0RZgQYHAV4LRVzbR3JMFRG4tXItFXVAm/oC1eEoVatEhsKI9kXLUVhSdWCEJV80WZSnF61CgyFkaw3xBzJ1S3BsAojXZCHYi5VrVi6AAZmhEWhi8mSVjNpHSkhqkiJHBuKBqchKjJCZaCo+CzAUJfPBENbRyBENUYESVxpcMgUjqKs7Iokzg5KMKzKCPVFQ+aGuMUhKidlDFFp4WppiIqZCpLYsrmpBkchKgsaJIlRpoI/WYiSuAC8oDnUrggVc9EXrV2en9/okhhg9DDSZlpUDY5gaGWyaZo1cRCdA4eozEheGjgjyCzyRhmEC8agp1KCGaqiyBAjRJgDIz/9QOxXD+P5azr4Q58GX8265nq2SofVMsBYrvDgbFUWVCKJi4/++4pagMHGXvHEQTlitl5Q2/LGxygjIZspU/97PsBKFahyxGwNsBsazLRTCZ8GwTB1yELtHAaDpxT1RctJSdeFj4mUnj51S+CEs3LDWTU8U399TeyXgOL/dPC1oNeApjNqk4BiwkZNhcKwPpVanbAhJ3v6VDaBnLBsgUqSWO9TZUm8qU8tpazAEKtWSyWxUAXiIJLET+pTi97goOnVjOnrU5EkRige06dmGFJ7QFD07RzYzZIYzyEs90QS9/lCZ6RxpGuTGPntMNhvRvMnksQqIyFEdV8gSQwoGN53H/Y7+3AgM4Jh8NUMoXAk/4QdpU2SuIMxHo93PAx554BLYiegABmoMFJJ4qrXtR7Gjoeh+ROHqCLuBRTMcZZIYs5Id+hg7IzHHQyJEX86qK/vQLFZEr/70KEYh9iQdw5EScxR2CSe1G3eqmtjtTPERoQh3okoidnVoGvTfEFCVOxTS4jKOwdMEpdVq+oycY5EQ0vfBklsAQbfdc0avJbE84uLi+s1K8pkbrPupOIa3XYp5hIjNobojidFYtXRri3RdHx0dPT7nIImLrZmdR4288oF8xactnPQhehODtHCiC0FNW7BrYqTzfF0NDqaE19YkMTx5laTCAP61De/eHsrx3EIUcgUcefArM6Wy+XZFWI1weiTxAkGX7hKg8mTEoeorRghi1+eI8FgwUy8GUmpQkBUfOGXoYoqO0r0WmGOCMOWiSsUGYYQbnJlKSEqMSLOAbGBb4+eDLEhblXUgyhENUbq5rqEKEZB1sMMY+Pz1OxnHqIyI4RVCFEqifHJCcbwZ0UlRFGtV5eGMJhDVJHEfnx142GIM7Ql6JElGO+qL/Q5UogKkjjcBw1Rg4K8VIGDQ2Z/7Hcoxvt/8PEDenv4FQkI0WQQHK1zrmm6QySl7T633WDruB4yH4Pmw+ZRjMd89MMhQ7H+GWwxGo2m7+Hjy4SmMZPzbDf+YQTYkueI+bgfruqTNB3G6ACDO/uHLLEvjqbZRt7g09Ei+qoL0TPl6chnQ3PEdDA2oBjHbzwMEhcXI8Wm9xCiZzcyjGWVI503yrVUX3TBcsj02sVUh5HX2Fl8QOMfzXgfrLJdVakXYYgoxvjH/UO2hXlxBBYATeHjIocvykSooqlxQFUgrIIfx/9gFi9djX40hlatLu7bxkd9zpS2y4JusMlXR+kAMGoNHiv4G24HqYpWX5hqLYoloeiNWKnJg4x8coah7uXgd5b810gS4/eejDKHPyQYqJdkkjiTsmnnoNCE9QZVBwoKB+WLTUwumKro4J2D0rX1rGYURS7mdJDSF9YUvpnPlnsswERJrPWp6baR3ig6mRZryBS8eWQURlLXViSxyAgXcSVEBUmcLkgkcSUkhT4V6Q2ZEcvmoJI4oshrny6Jv3zy9qU4qEcSS74wF8fHx1+/ZiFeSWKX+Sb0cUlsTh4uLy8f9hgjcEEWokJ0vrzd3d29vUaDXBLDI4QyQ/BGocmZk9Nnz56d7smMkBAVc9qYl7vb29u71wZL4m5dRZIYhHmJwbZpGrKyZxhi0DctCVExUzOMQtP70WIxhRrZZNWDvEmrlh88uYwwtD0QWRKjCC8wWNgjRnLXpmvwDKNmJM5QSWKu1wCG2G6Vx1PafcTBAkPcOShdm1K1AAYrIvgtiVZGgZ8VlRAVGDGOdm3SnQAM5k8ATfZnldUMYFQ5kroi3LWJ/kQhKjOSfNHzwLkpCavtEuMtOHGOAoMvcYUR9iBDWM1IiDJGmN4QV7MCgy/WhRH93R4rhaiAwrwb/7uznQPNn6V8sbjAL1cnWvQ+tcCQI6htouRrVFZxiIq7JYBCWpUTTRAbVvJFkphaXIQL4hCVcsQJvqgVH4SohGKA4iMhykRcCRZrsCQWFF8mBTK1d2u7Xu4LDJ2R8iADqlaqq2DBG5d7bFS6IFdKyRApxAojgiR25tOPxO6eebujgz/2MXL/L2LTbW8jOnivvlWT0d2dXhILMOjQ5WkfI9u7xAIKNrb7zTCVW3F6Fy/ca5dGfnc4MLI9wL6ZcskkRF1rcMwNg6HniPk2EAZihEjimCN3D6fYEilk7PTBqCgas/tPYpEVNvgNGMmS2FJg5mSP2CeP4/ITHdzTUXSLCLX7kClf2ShBgSWx8LJyQFWWNmK04+JBj0xO2Kq8yFULEgckMaqdJEfm98fH9y8Nq509kpgtLqRrU/tULIlxrsMMYW/tvRHmiEtwgcHWEbxPSCRxpWmZ3pDWkQ6G317UfFFW2L69dOhUREaY3mCMRLwAQ1syFEnMFbTkTUkSa88EEgw9cbgk5jkiPEKo+tQiibXVLMGQfOG4JJbigvlCYCSEaM4UiZG2xIYUF1wSq4zAixMiI5Uklu4Dhagg4rAkVhmhXZsoaCA2ZBQlRPmd5EaHSWJhjtIvKYyYUjdkRrrTIUQFRqwsiRWlpG+Xsa4Ny9nsfBSiYp+KQlRmBFCojEhdG1pHgs0zKSa7FvtC7toqFDlE1b/T4pI4obhfgIXnAOXjnKKoJLFUXkASO1MzEs4rmYJnMAvlucR0NKdJCTB0RooMVEW/Ofnz4eHhzz1+HwvtKU0Hg/apP/91e3v71zVnVUPBRUcMRPslyJwvfIbFVHlmNcU7jX7ieZA5c6cyQlFoOwc58OgM74+z3XscC/h4vHa0oKbf72fE4q5N71Or+yiZccEypaCo9IWKwsV6rjDS06eW+gYwZBE3qMtMtFSMDJ8BYPAWmvepui+y6tH/0kuvOHDBBENcPjesI5okfsrOQYLBGBl8J1QSD/pDTXH/ooRoHyMqijZLYreBEY1Tq0vi4TlC/gL0yYwgvVHtKA1mRHi3R+2KlBmoJH5SjgiS+FE5okjixzLSi2IQI0ES/z6dHh2XveqnMELf7Xk8I53N/asg10ZixA70hfAgY9h9iIsfZWRQpjJJzE4Oc0sny33qk6tWWdu9if9NiTRoN5w5ZA71P0UJ65u14F1bBg390bLTpcMjTkc//g2hlFXrDIooKwAAAABJRU5ErkJggg==;" parent="tzZtZtUzTntlYtjN_Du5-2" vertex="1">
          <mxGeometry x="28.180000000000064" width="22" height="22" as="geometry" />
        </mxCell>
        <mxCell id="yzXI6I4ADqwadGUlfEkV-4" style="edgeStyle=none;rounded=0;orthogonalLoop=1;jettySize=auto;html=1;exitX=0.5;exitY=1;exitDx=0;exitDy=0;startArrow=none;startFill=0;endArrow=classic;endFill=1;fontSize=9;" parent="tzZtZtUzTntlYtjN_Du5-2" source="MaFsSqHFL_aDIbuKhQJ8-15" target="MaFsSqHFL_aDIbuKhQJ8-15" edge="1">
          <mxGeometry relative="1" as="geometry" />
        </mxCell>
        <mxCell id="xr3ACkX85t0AnBMF9TQf-2" value="AIC" style="shape=image;imageAspect=0;aspect=fixed;verticalLabelPosition=bottom;verticalAlign=top;image=data:image/jpeg,/9j/4AAQSkZJRgABAQAAAQABAAD/2wCEAAkGBw0NDxUQEBAVEBUVEBsSFRUVERUaGxYbFREWFxYVFRUYHSogGBomHRUWITEiJikrLi4uFx8zODMsNygtLisBCgoKDg0OGhAQGzcmHyAtKy0uLS0tKy0tLSstLS0tLSstLS0rLS0tLS0tLS0tLS0tLS0tLS0tLS0tLS0tLS0tLf/AABEIAJYBQAMBIgACEQEDEQH/xAAcAAEAAwADAQEAAAAAAAAAAAAABQYHAQMECAL/xABEEAACAQMDAgMGBQIDAwsFAAABAgMABBEFEiEGMQcTQRQiUWFxkRZSVIGSIzIVobEkwdE1QkNicqKjssLS4RclM2Nz/8QAGQEBAAMBAQAAAAAAAAAAAAAAAAECAwQF/8QAKBEAAgICAgIBBAIDAQAAAAAAAAECEQMhEjEEQSIFMmGBE1E0cZEj/9oADAMBAAIRAxEAPwDcaUpQClKUApSlAKUpQClKUApSlAKUpQClKUApSlAKUpQClKUApSlAKUpQClKUApSlAKUpQClKUApSlAKUpQClKUApSlAKUpQHFKVS+ufEG30dliMbTyuhcKrKAvOBvJyQCc9ge1Sk3pEOSXZdaVl+h+MtlM226he1+DAmRf32qCP2BrQtL1O3vIxNbyrKh7MpyOO4PwI+BqZQlHsiM1Lo91KUqpYUpSgFKUoBSlKAUpSgFKUoBSlKAUpSgFKUoBSlKAUpSgFKUoBSlKAUpSgFKUoBSlKAUpSgFKUoCg+JnXqaVH5EBD3LrxnkRKf+ew9T8F9e5474ZJZX1ykl48csqg75JmViMlgMs54JyRxX01qHT1jczpcTW8cskYwrOucZIP8AaeCeOCRkelV3r/q/SrFPZLmM3JcDdAmOFBDAuSQFGQMDuR6YrfFOtRRhkhe2zHtH8P8AV72BbiGAFH/tLSKpYejAMQdpPY+vccc1r/hZ0jdaRBILh1LSureWpJCbVI7+pORnHHujk1XtO8aITMqSWZhhJ27xLuKDgAlAoBA9QDx6Z7VrKOGAIOQRkH69jTLOfTGKEO0fulKVgbilKUApSlAKV1NMgzlgMd8kcfX4VF3PVOlxHD3tup+BnT/TNKZFomaVBQ9X6S52rfW5Pw89P95qUt7yGXmORH/7Lg/6Gppi0emlK6Lq6jhQvLIsajuzsFA+pOAKgk7qVD2vU+mzPsjvYHbsFWdCTntgZ5P0qZo00QnZxSo2HWrWS5e0WUGeNQ7x85AYDBzjB7jsSRkfGv3d6tbQTRQyyhJJiREpz75UAkA9geR3xntzSmLJClKUJFKV+SQKA/VKi9T1+wtDi4uooT+V5VB57HaTnH7VGt1/og738P7MT/oKni2RaLNXFV+HrfR5Dhb+Dn4yqP8AUipuCZJFDowdSMhlIIPzBHBFGmhaZ3UpSoJFKUoBSusSKSQCCR3Ge2e2R6V2UApSlAKUpQHFdVxOkSF3YIqjLMxAAA9STwBXbWY9c9C6zqtyxF7GLbOUibeu3gZDKoIY5yck5+lWik3srJtLR4OufFlArQaadzHhrgjhfj5QP9zfMjA9Ae4yS6gnws8qviUsVkfP9QqRuIY8tywyfie9bX0x4QWlswku5Pa2HITbtj+rLkl/3IHxBqu+PQC3FoigKFgfAA7e+oAA7AYXtXTjlFPjE5skZNcpGWHtX1X0kH/w+18zO72WPdnvny1zn518y9PWqz3lvE3Ie4jQj5NIoYfYmvrADFR5L6RPjrtn6pSlcp1ClKUArEfEqz1//EpZrdLnyjGsUbQb+V2AkERnP9xbOR/lituqE6qi8+0mt0uFtpJIiqOX24z65BBx6Ej0NXhLiyk42jArboe62mW9misI8ZLXEg3n04hUlicnscGvaemenlQMdbz8Qto5P7LnIH1rsfoG0hb/AGvWrSI9iEJkb6EbgR+9eHXOjktbu0gS7W5S72FXRCCFd1UNtyQQckg552nIHr1cr9nNVeiw3XhzpMNmL6TVHMDAFHWAe9u/tCrkknIPGARg5xg1+tI8KkvIkurLUsxMcq5gZWG1iG7MCCCCPTt3r3XuijWtRXTIQ0NlpqeW59WY4BC/M4IBOcBWPqBWs2FnFbxLFEgREUKqr2AHAH/zWMskl7NYwT9HZaQmONULFyqBdx7ttUDJ+ZxmqN4tdMXeqRQLA8aiN2ZxJIVB3KApzg5Iw3Hzq/1m/jB0tf6n7N7KnmbDIHBdVA3BME5IyPdPxx+9Zw+6zSf2lH0Pww9omCTahajnlIZRJIfiAOADx35x8KlNc671rT7ltMhjjYxERRkJJLI67AYyxLHc5Ugnjvniq10J05K2tR20wMbW8pklwRx5JDABhxgnaM/BqkuuNdlseopLm2Cs6BEAZSwYm3UEYGCThscHNdLVyp70cydRtaK7e3GsRaiJZTNDeSMMEjYx3gKoUcALjAx2AGD2q1X3QPU146zXMyl0/taS55T3gRtKghTkA5Hriq/r+uarrZIlhVmtUeVvLiKtGgKhy2TnAODjuDzVhTV9S6r9nsFUxRxKGuZQSQxAwHPoDxkLzkknsOJlYVWat0da6pDb7NRmjnkDe60YOdoAwHYgBmz6gD6mrDXntYBFGqAkhVCgsck7QBlj6njvXfXEzrXRhHib1fq0GpTW0dy8McZXYseF4aNWyzAZJyx9cV5fDCxutW1NZp55ZFt8TsWkYktuwigk8AnJPxCketbJqfSem3U3tE9qksm3buYE8DtkZwcfEg1m/g3f29ha31zPII4lmRdxz6BsAAckncMAZOTXQppwdLZzuLU9kV412FumpxOG2GaJTNjkja2wSFe5O0duM7K/NnZ9GIB5l1cynHJKSKD8cBUBH3NOqLnp6+vGvJb+5lEhGYo7bBUKoUAO4AC8fAn6nmq1q95o/tUT2lrKbdAPNjllIaXDHJDKSU4xyD39B66RVpIpJ7s91/o2m399Da6O0reaTvab+1cAklQQGIAUk5zngDmvoPQtMSxtYrZDlYowgJxzgck47EnJ/esW0XqjpeylWeLT7kSqcqTIGCnBB27pcHgkZIq06J4mXmq3aW1lYqoJDO8shOxARuZgoABxwBk5JArPKpNfhGmNpGoVg/U2qa/Lq9zaWdxcPtlJVImICqVUgE8BQNwGSQCfXmt4rCerNdvdM1+6azXdJNGke0xls5iQgoo7kEZHcHkEGq4ey+Xoqt9d63FdG1kuLozhwpRbiRiWYAgDaxBOCO1bTqnUr6HpUZvZBNd+SFC7hmR8dycDKjjJx6epIzknT+szWNzc+07oLuZNq3MyHdA7NuLMpUkKwOCQCQMYGM16+ouj9fhu45XV76VsSiWNWkUFX91WLKAMYBwQBg8Z5raUVJpMxi6Wj92Npr2kOmtSRNIJCWmDMdxVvWZQMqDnIPIBAyBwDrHTfiDpeo4VJhFIf+ilwrZ+Ck8Nz8CT8hWaG062PJ9pOR2MkOOfQqWwK8Or+FuqRW0cyR+bIwJniQqTGd5K7QOGGCMgZIPbIqsoxl2/+ExlKPSPoQHPav1WUeEHSF9asbu7MsI27YoGcjO7u8iZ4wOADzySQMCtWrnkqdHRF2hSlUbrTrH2cm3tiDJ2d+CE+QHYt9eB61nOagrZ0YPHnmnwgiyaxr1pZDM0oBxwo5Y/RRz+/aqVqHiTKTiCAKPRpCSfrtHA+5qvaN09e6k+8A7SctNJnB55we7H5Dj4kVNa9pWn6TFtx7Rct/bv7J6Fyg4xkcA5yfkDXK8mSSvpHs4/E8XFNY5fOb9Lo9Wj+IkryrHPEm1mC7kyCNxABKnORk/EVU/Ht/8AboB8LXP3lb/217OitHa8u1JHuRsJHP0OVH1JH2BqJ8cZg+pIFOdlqqnHod8hIPwOCOPnXV4MpSdyPP8ArWHFjlxxL1v8FY6FCnVLUsQoW4VySQAAmWJJPAGF71veqazqM6f/AGy3SUMm5Z5n2xnOcBEHvOeM5OB2OSDXz/0hpk15fQRRKrEyhjvUFQqncxZTwQADx69uc19SuyopJ4UDJPwAHJ+QAFdfkNcjyMKfE+dOrNV6itJwt5dyxyOC4SOcABdxAIWI4UEg49SBWkeDV5qdzbyy3cjyxlwsLSMSx2ghyuRyuSBnJ5BHoayDqXUpdX1GSVQWMs3lxL/1chYh9cYP1Jr6X0OwFpaw24x/ShWPj12qASB8yCf3plpRSIxbk2SFKUrmOk4rM+ufDSfVr72kXaohRU2shYxhRghACAQSSeccse9aZWH6x0n1TPdzqskvlNM7KTeEJsaRioChsjAI4xxWmLvujPJ10VvqzpW0tLmKysrhru4eTZIu1QqkkBVyPXJORk4A5wauXVOmrZ6nolsvPlCNM477Zkyc+pJBOPT96svQHh1BpYWefE11z7wJ2x5BBCA4ycE5YjJye3rX/EKRx1Jp2AWx5WBzjm4bcV9M4xn6CtefJ1/VmXGlZ5Nd1W66Z1iWRU822u285lJ/uJJ3BXPZwSeOQQygjsRoXTnXWl6lhYZgsh/6KT3X+gB4b9ia9XWHT8eq2b2z8EjdG35XAJVvpng/EEisFuvDnXIn2exs/PDI6FT8CDuBA+uD8aiKjNb00WblB66PpavyxAGT2qk+GPStzpsDNdSM0shH9PzCyxKucKMkgsc5JHyA7ZNg6ptbqeymitHEczRkIx+fcZPYkZGfQnPpWDVOjVPVnz/bT3OqarMtu7Ri7mYSMvGITIGbc3ooVQTyAdoBznFWbpbVIP8AENR1RExDb2pEXuj0Cxw4JBKkiP8A73PFXTp3oM2GlzQRFRd3EDI8xJwpZSAoYAkIufTknJ+GPbpPQNpBpjacxLCXmaRcKzsGBBHfAG0AD4D4kmt5ZI+jGONlI0SI6ToVzqVx79xfLtXfkkiXcFz6nO5pD8QB8Kq/QPUMuh3224DxxOAs6MpyAyho5NvckZB45wxx3rX+pOlG1C6tEfaLO2HmMuTukcYVEx6KAOT6hiPXIh/FfoN9QAu7Vczou104HmqO2CeNwycZ7jj0FIzi9P2JQfa9Gg2N5DcRrLFIsiMMqysCD9CK9NYB0L0x1JFPiDzbBM/1HkAC8eoibIc47cY+YFb3GpAAJyccnjn4nA4FZTiovTNYS5I/RrHvD7py21TSLmGZ2jQ6gzh0YDGxFwecjGCeDx61r06blYd8qR9xWdeEuhXEFjdWt7C8Yedl2OMAq0SqxVv+cCOMgkccetTF1FkSVtFXuYel9LuI7dIJNUlZ1RiZAyruYLgBcKzZP9oB+BINTXiDpNha6npbLBHErXGyQLGArBXj2hlUYPLHuPWuemfCMWl6J55lmijffEgU5YhsoZSeBjAOBnJHoOD6/FC1kn1HSo1U4N0SSM8bZIWYkegAUnP1rTkuWmZ0+PR3dYN05PO9lfKltKEDJNtCcOOCsijHGOQ/HHYip3oTpqw023/2V/P8w7mm3K3mYzjBXgKOcAfOoHxR6Bm1V47i1ZBKi+WyvkB13ZBDAHBGW9OQe/ABkfDbo6fRoXWW48xpGDGNM+WmO5XIyScjJwOABjjNUbXDv9F0ny6LrWEeI2s3Fn1A01rjzVgSNfc3cvGR7q+rYYYHP0NbvWU2NqH6wmZx/Zb+YmR/+mJAR+zNz8aYnVv8DL6R+uk/DqW4kF/rDtNMzBxExGBtA2+bjgnAHuDAAGDnkDy6ENVj167spbqVxJBI4JJKgMoMTqOyEbgOMDK4FXzrfqhNHtfaGjMpMgjVAcZLAk5bBwAFY5wecD1rL28Stdu3L2lkmCNoKW8kjYBOAXHDYOfQDOeKtHlLZV8Y6Jjw31HU9PgvX1HzfJt1yPOYlt65LIhY5IIK89skY7mpHwYtJ2huL+ZmJupyyqWJGFZstg+pZiM/BRVC1lerNQjMdxDcvGzBynkBV93JUbVAOAT2PqATyBXfYdW9R6RHHAbUpFGu1UktXAIySSXXGScnkH54qzha0VUqez6ApUR0vqkl9ZxXEkLW7SJkxtnjkjIzg4OMjIBwRUvXMdCK91tqUtrZO8X9xIQN+XccFvqPT5kVROiuljfN582fJVu3OZCDzz8M9z3J4+JrVbmBJUKOAysMMD2IPcGvxDDHBHtRQiIOAOwA54rKWLlK36O/B5jw4Xjgvk33+CO13VoNNt9xA4G2NBxk44AA7AAZJ9BWRH2nUrn1klkb54H/AAUD7AV3dSa3JfzmRuFHuxr+Vc/5k4yT+3YCrl4baLiF7hypEqmMAdwAxByw7En0HwBzXPJ/yz4rpHr4sa8Dx3ll97Ia91mPTYDZ2bAyH/8APOvq3IIQnnI7Z7AduckU+6tg4/qpu3e+NwPOc8g9zkg8+taxB0JaCfzHA2qw2RIMLtHbzM5LnPJOQPlVR8SFAvsAYAgQYH1bgfAVGSMorlfXVF/D8jDln/FFW5K5N/2ebw3gRNQjCqFG1zwP+oeT6k81cfFvWvYtLkVTh5z5C/Rslz/EMPqRVT8O/wDlGP8A7D/+Q12+P6ny7RuceZID8OVQj98A/wCddXhXLv8As8n64lDLUVXxXX7Kj4PaaLjVo2IysKNMe/cAKv7gsD+1fRYrAPC3qjTdIjnluC5lkZUVUjJOxVLZBOAMlvU590VZLnxuiB/pWLsPi8yr/kAf9a7MsJSlpHi4pRjHZrlKyK28boif6li6j4pMrf5FRn71o3T2u2upQie2fepOCDwykd1dfQjj/cSDmspQlHs1jOMuiWzXX7Qn5l/kK5kQMCpGQRgj45GCKr/4D0X9BD/CqKvZZ2T/AJ6fnX7ivPNHbSOjuI2ZDlGIUlCwwSpPIJBxx3qI/Aei/oIf4U/Aei/oIf4Vb4kbJ/z0/Ov3Fceen51+4qB/Aei/oIf4U/Aei/oIf4U+I2T3np+dfuK589Pzr9xUB+A9F/QQ/wAKfgPRf0EP8KfEbJ/z0/Ov3FPPT86/cVAfgTRf0EP8KfgPRf0EP8Kj4jZPeen51+4p56fnX7ioH8B6L+gh/hT8B6L+gh/hU/EbJ7z0/Ov3FPPT86/cVA/gPRf0EP8ACn4D0X9BD/CnxGyf89Pzr9xXHnp+dfuKgfwHov6CH+FPwHov6CH+FPiNk/56fnX7iuPOj/Ov3FQP4D0X9BD/AAp+A9F/QQ/wp8RsnvPT86/cVz56fnX7ioD8B6L+gh/hT8CaL+gh/hT4jZPeen51+4rwpp9kLk3YSMTMnlmTI3FRjAzntwPsPhUf+BNF/QQ/wp+BNF/QQ/wpobJa9htrhDHMI5UPdH2sDg5GQeDXZCYI1CIURQMBVwAAPQAcAVC/gTRf0EP8KfgTRf0EP8KaGye8+P8AOv3FPPT86/cVA/gTRf0EP8KfgTRf0EP8KfEbJ8Tp+YfcV21XrforSInWRLKFWVg6sF5BUggj4EECrDUOiVZxXVcQiRGQ9mUqf3BB/wBa7q4qCU6Mxk8NbgNhbhCue5VsgenA4J+WQKv2i6bHZwJAnIUdz6knJJ+pJNSGKVnDFGL0dWfzc2dJTekKyLxK/wCUD/8AxX/1VrtZH4lMDf8ABz/RXPy5bg/PBBrPyfsOz6N/kfpnm8P2xqMXzDD/AMM/8K1PXdFtdQhMFzGJEJzjJBUgHDKQcgjJwRWSdGyBNQgPb+pt+6MMfcittqPFfxLfXI/+6/0ZNceCVuXJjvZFT0VolZh8twIB+1TEHh3oemQmaaF7rb6uGkJyQAFijGDkkDsfmcVoNK7Hlk/Z4f8AHFHzYOnL7W7qSazsvIhZ8LwEjjVQABnABOACdoPJNbZ0F0mmj2vlBzJI7eZK3oW2gYUeigDA9T3PfAswGK5qZ5XJUIY1HYrPk8QWOrezeUotDMbQT85M6qCVDZ24yQuMZ5Bz6Va+ppbtLSU2kZlnKbYlBAwzcBiWIGBnPfnGKov/ANNrldMe2N20jBPOij2RqqTg7iwkA3Ek7lyT2bPoMRDj7Jk36LJqXUc8WtW2nqqeVNbtKzEHcCokwFOcAe4O4+Nenr3W5tM0+W6hCs6FMBwSvvSKpztIPZj696p95Z64b2x1E2BmkiszFNH58S/1MyKTuyRghgwxnvjgivT1Odb1axntW0r2csisre1RPuKyodmOMHAY5Jx7uPWrKCtFeXZftKuGmt4pWwC8KOcdssgJx8sms/6u6n6h0sq7x2Xly3HkxY85m94sVL8gdhyR6+le/Tda12GKOL/BSdiLHu9th52qFJxjjtnFdvijol3fw2y20XmFLxZHG5RhQrAn3iM8kfOoiqlslu1ojeoepeoNNijM8dmXmukgj2ecV95WyWyQQcheRnjPFdOrdaazppR7tbCVDOImS3lkMgznOAx4Iwe4POB61NeJei3V6toLePzPKvklfDKNqqDk+8Rn6DJqJ1boj2LU4L+xtEnjLYngOzKk8+fGZCBu9e+cjjucWTjWyrUiw9G9STahNexSIq+zXRiQqD7y5YDcCT7w28kYHPYVBa34hz2U98jRI4t5IYoQMrlp0ZiZXJICjaewHw+Y6rSz1jRr68khsfbobqbzgUmVGUkscEN82IPGOAQe4rptdB1R1vru40+KZ7uWL/Y3mXiOMHJ39g493HI5BOBwKVG79C5US+la9rrSJvisbpGI3C2usMgJGX98kMAOcDk+lePrTqXX9LVpzHZmAz+XHzKz4YtsLcgZwMnH0FVa66PluHjFjo82myiVWM73WVjAzkqNxLHOO3PHbmr54paLd3+nrDbp5zi4RyMqvCqwJyxA9RxR8eSG6ZLdMtrBL/4gtsBgeX7OZCe53bt3GMYxj514Lnq2RdQubMRLtt7A3QYk5ZgFIUjsBhvrVsQcD6VQrrQLxtXvrgRExy6YYY23L7z7VG0DOQcg8kAfOqKm9l3aR3+H/iBFqwMcqiC4A3CPJxIv5oyeTj1Hp37V4h4jSDTJb5rddwvTaxpvO302tIxHAwSTj4AcZzXRadAST6Taq+bS+tkJjkDDKnzGYIzKSCpyDkEkE5HqD+emOn9TttHmt5LOGaZ7tpGhncbHRguSGUkBiVOCcYPPpVqj2VuRJaL1DrMsqB10+6jdgG9lu/ejU93wxIYAeg5NSmn9SSy6vcac0ahIoElRxncdwTIYE4PL8EY7etUJ+irq5mh8jSU0pkmV3uBeb8BTkhEU8ntg/EYyATVj1fS9VstXk1Gzt0vEmgWJ4zKEZdoUZBbjnYOee5BA4NJKNhNkne9UzxalcWYjQpFpxu1b3txZT/aecbfoM/OoHTettbubQXiWlmIyrMN1yVYhGYNgH5qRXfp2iapc3N3f3UC27SWDWsMCyhycjILMOByMen93YYyYZPDWSfRYlkiEd9DuKBnBDASuwiYAlQCGzn0OMnGalKPsi5GhdIa+NUso7sIYt+QVznBVypweMjK5z8KhOmevlvtQktTF5cbBzay5P9fynKyEcY7hiMeinPNdmoJqDaMsFrZ+zXEiCAxK0YWANxI6sGwVC5IwScsPUGobU+hb62s4TbXBuZ7OVZLVPLjiAXP9SPcD727IJJPO3HqaqlHZZtkr1z102j3VvG0PmxSIXkIJ3qFYAlR2OAc4OO3cV6tc6ySH2FrYJOl5crEH3HAViASAOd2T2OMEEEZrzarpFzdatYXRt/6S20qzBih2GSMjYy597lscZFVzU/D27tdQtmssyWYvEuGiLj+gwdd5XceVIHGMnjBBwDUpQIbkWHVOrL+a+ex0u3jmeEAzyzMQiFuQgCkEn075znjgmpHSNU1Yeal9ZpGUiMizRS7o3I7IVPvqeM+vA9OMwt3o+q6XqM95p8KXkV1hpYWkCMrqDyrNwRkk+v8AcRjgGpnSZtZuvN9rt4bSNoiiRiUvJvIIyzL7oXHoBmoaVaCuyuaH1prd/As8VvYqrEgCS5ZW91iDlT25FaBpbXDQoblUSUr76xsSoOeyk8kdqyDp7pW6tIVSfp5LuRGJ843UQ3e8SBtyQQBgfMela5o9zPNAr3EHs0hzuiLh9uGIHvLwcgA/vTIl6Jg37JClKVmaClKUB+aznqnoaeSdprbaQ53FCcEMeSQTwQTzjjk1o1c1ScFNUzfxvJyePLlAyzQeiL5blHmCxojhywcNnaQQFA7ZI+WB8+K1IVzilIY1BaLeV5eTyJcp+jmlKVc5hSlKAUpSgFKUoBSlKAUpSgFKUoBSlKAUpSgFKUoBSlKAUpSgFKUoBSlKAUpSgFKUoBSlKAUpSgFKUoBSlKAUpSgFKUoBSlKAUpSgFKUoBSlKAUpSgFKUoBSlKAUpSgFKUoBSlKAUpSgFKUoBSlKAUpSgFKUoBSlKAUpSgFKUoBSlKAUpSgFKUoBSlKAUpSgFKUoBSlKAUpSgFKUoBSlKAUpSgFKUoBSlKAUpSgFKUoBSlKA//9k=;" parent="1" vertex="1">
          <mxGeometry x="105.4" y="365.16999999999996" width="99.2" height="46.5" as="geometry" />
        </mxCell>
        <mxCell id="xr3ACkX85t0AnBMF9TQf-24" style="edgeStyle=none;rounded=0;orthogonalLoop=1;jettySize=auto;html=1;exitX=0.5;exitY=1;exitDx=0;exitDy=0;entryX=0.5;entryY=0;entryDx=0;entryDy=0;startArrow=none;startFill=0;fontSize=9;" parent="1" source="xr3ACkX85t0AnBMF9TQf-5" target="xr3ACkX85t0AnBMF9TQf-9" edge="1">
          <mxGeometry relative="1" as="geometry" />
        </mxCell>
        <mxCell id="xr3ACkX85t0AnBMF9TQf-26" value="Person &lt;br&gt;maintenance" style="edgeLabel;html=1;align=center;verticalAlign=middle;resizable=0;points=[];fontSize=9;" parent="xr3ACkX85t0AnBMF9TQf-24" vertex="1" connectable="0">
          <mxGeometry x="-0.3032" relative="1" as="geometry">
            <mxPoint x="10.15" y="9.82" as="offset" />
          </mxGeometry>
        </mxCell>
        <mxCell id="xr3ACkX85t0AnBMF9TQf-5" value="Age Based &#xa;jobs" style="shape=image;imageAspect=0;aspect=fixed;verticalLabelPosition=bottom;verticalAlign=top;image=https://image.flaticon.com/icons/svg/2286/2286676.svg;imageBackground=#ffffff;" parent="1" vertex="1">
          <mxGeometry x="364" y="10" width="50" height="50" as="geometry" />
        </mxCell>
        <mxCell id="xr3ACkX85t0AnBMF9TQf-25" style="edgeStyle=none;rounded=0;orthogonalLoop=1;jettySize=auto;html=1;exitX=0.5;exitY=1;exitDx=0;exitDy=0;startArrow=none;startFill=0;fontSize=9;entryX=0.5;entryY=0;entryDx=0;entryDy=0;" parent="1" source="xr3ACkX85t0AnBMF9TQf-6" target="xr3ACkX85t0AnBMF9TQf-9" edge="1">
          <mxGeometry relative="1" as="geometry">
            <mxPoint x="560" y="150" as="targetPoint" />
          </mxGeometry>
        </mxCell>
        <mxCell id="xr3ACkX85t0AnBMF9TQf-27" value="Person &lt;br&gt;maintenance" style="edgeLabel;html=1;align=center;verticalAlign=middle;resizable=0;points=[];fontSize=9;" parent="xr3ACkX85t0AnBMF9TQf-25" vertex="1" connectable="0">
          <mxGeometry x="0.3847" y="1" relative="1" as="geometry">
            <mxPoint x="3.93" y="-15.23" as="offset" />
          </mxGeometry>
        </mxCell>
        <mxCell id="xr3ACkX85t0AnBMF9TQf-6" value="School Leaver &#xa;jobs" style="shape=image;imageAspect=0;aspect=fixed;verticalLabelPosition=bottom;verticalAlign=top;image=https://image.flaticon.com/icons/svg/2286/2286676.svg;imageBackground=#ffffff;" parent="1" vertex="1">
          <mxGeometry x="470" y="10" width="50" height="50" as="geometry" />
        </mxCell>
        <mxCell id="xr3ACkX85t0AnBMF9TQf-8" value="Social Media" style="text;html=1;resizable=0;autosize=1;align=center;verticalAlign=middle;points=[];fillColor=none;strokeColor=none;rounded=0;" parent="1" vertex="1">
          <mxGeometry x="899.17" y="361" width="80" height="20" as="geometry" />
        </mxCell>
        <mxCell id="xr3ACkX85t0AnBMF9TQf-19" value="HUGO" style="shape=image;html=1;verticalAlign=top;verticalLabelPosition=bottom;labelBackgroundColor=#ffffff;imageAspect=0;aspect=fixed;image=https://cdn0.iconfinder.com/data/icons/e-learning-coding-tutorial-badge-icons/96/Coding_Icons_-_LINE-11-128.png;fontSize=12;" parent="1" vertex="1">
          <mxGeometry x="490" y="323.26" width="52" height="52" as="geometry" />
        </mxCell>
        <mxCell id="xr3ACkX85t0AnBMF9TQf-22" style="edgeStyle=none;rounded=0;orthogonalLoop=1;jettySize=auto;html=1;exitX=0.5;exitY=1;exitDx=0;exitDy=0;fontSize=9;" parent="1" source="xr3ACkX85t0AnBMF9TQf-21" target="3j8oUQN09gYwykHITEtm-5" edge="1">
          <mxGeometry relative="1" as="geometry" />
        </mxCell>
        <mxCell id="xr3ACkX85t0AnBMF9TQf-23" value="Web form" style="edgeLabel;html=1;align=center;verticalAlign=middle;resizable=0;points=[];fontSize=9;" parent="xr3ACkX85t0AnBMF9TQf-22" vertex="1" connectable="0">
          <mxGeometry x="-0.372" relative="1" as="geometry">
            <mxPoint as="offset" />
          </mxGeometry>
        </mxCell>
        <mxCell id="xr3ACkX85t0AnBMF9TQf-21" value="myBupa" style="shape=image;imageAspect=0;aspect=fixed;verticalLabelPosition=bottom;verticalAlign=top;image=https://image.flaticon.com/icons/svg/811/811768.svg;" parent="1" vertex="1">
          <mxGeometry x="261" y="10" width="50" height="50" as="geometry" />
        </mxCell>
        <mxCell id="NzumEa65dsL6FT-qP8ik-17" style="rounded=0;orthogonalLoop=1;jettySize=auto;html=1;exitX=0.5;exitY=1;exitDx=0;exitDy=0;entryX=0.5;entryY=0;entryDx=0;entryDy=0;fontSize=9;" parent="1" source="NzumEa65dsL6FT-qP8ik-16" target="xr3ACkX85t0AnBMF9TQf-9" edge="1">
          <mxGeometry relative="1" as="geometry" />
        </mxCell>
        <mxCell id="NzumEa65dsL6FT-qP8ik-18" value="Cover change" style="edgeLabel;html=1;align=center;verticalAlign=middle;resizable=0;points=[];fontSize=9;" parent="NzumEa65dsL6FT-qP8ik-17" vertex="1" connectable="0">
          <mxGeometry x="-0.2465" y="-1" relative="1" as="geometry">
            <mxPoint as="offset" />
          </mxGeometry>
        </mxCell>
        <mxCell id="NzumEa65dsL6FT-qP8ik-16" value="Product Migration&#xa;process" style="shape=image;imageAspect=0;aspect=fixed;verticalLabelPosition=bottom;verticalAlign=top;image=https://image.flaticon.com/icons/svg/2286/2286676.svg;imageBackground=#ffffff;" parent="1" vertex="1">
          <mxGeometry x="575.63" y="10" width="50" height="50" as="geometry" />
        </mxCell>
        <mxCell id="vP00YayC0I7qo__Pr0LN-1" value="BOSS" style="shape=image;verticalLabelPosition=bottom;labelBackgroundColor=#ffffff;verticalAlign=top;aspect=fixed;imageAspect=0;image=data:image/png,iVBORw0KGgoAAAANSUhEUgAAAC8AAAArCAYAAADottG6AAAFqElEQVRoBdVZ229URRj/zZxzdvf07G5boJRqgeVWro0gFR/UEjQFjCSGxERFEn3UkPDCKwk+8B8Y4yVeXkiIxqjIgyIoJAJpFJCb5V4u6Rot1LLbvZ09lzEzp2fZs6fb3Spbdk+7mZlvvvnmN9+ZM/Obb0gsFmOYyhNsAovOALQIoIYBVQULBEEUBQgosLktwsAUBYwwEEMHwEAIA/J5EDMP5HUglwVJp4F0GiSRALK5qaAQunKlFiwUBpasAYuthN25BNDCAOH/tgDEAfIfFakNxv+IDXu8zPVA+I8V2vA8l7k2CM+nUyC3b4NdGwQGroOkM5WggZTzvN02D/a6LQI4KBWdcw86QGoAvmiQFjOBgauQjv0KEh8uOwif55kSRL53O6xVz0GiDBL3Egc9nQ+lYN1d0LsXg575A8qBYyC64UPgAW83t0N/eRdY65wHnvY1mUYBIbB6VsCOdSDw6QHQkYSnc+qWmNaK7Cu7Ybd2uKK6Se1ZzdDf2QrWEvZgcsATAn3TDrDwDE9lPRVYcxjGG30AIQVYAry54nlYnSsKwnrNWAs6YD69rACPMkJhPLW1IKj3jNnXA0jOhJHt2GqwyMyyK0o0KOODzSuxsLVpfFzOyvPg5Tlrkfs2+Trvf0pkorHfDrc0OHYfb588hISR9ZvhKFs02KtioOcGIVtdz06o5Ao3zJ+J3nnT9y08rkWwoWMevr1zxYXgS60nFgjw1Jrb7assFgSkYh8X19QuH6DSpMbtrk7x4cpQI2WnTKmFoWQW755wPELG+YqgB0ARPeCtOD2AoAlcz9mZOT0Y5zhcJjY/TjE4Dhsf9/aVdle+3BQEoio8m1R5bacmmTdxaHC4JtymUt+l9faMCAqbVGll3ZejTY0LnoVDjQseQaVxwbNQA4OHIjeu5/mC0rirjSw1MPiG9rxpNbbnp0QPogEZmxbOFpuvy1MeFreZ8o5umFPjNp1RFZ+8uHrK/dSiAdHNytPGLjlH1AJIqU2bVdFpLl8ZfH/8Pu5m8qX2a1a+m8ugf/jPivZJKld52sTHcuj57ATCQb4lFEfMHG7uzPlK4T6Hv7vhvQnDfSJixpAydRiwBO2edATJTGXw3AB/jUndLAH/cGOV8R170LbrLQQX8VPSpLBFJRlJQia5MYhgamV9n4ZECPauX4V1c1qhKs7RrdIB3GQ2riUS2Hn8F6QMb2T4/pc/oOXVzZAXPebryyPI5IBkFjK9fQ720mc8ddUWdvYsxrblc6tVL+jFIhF82Lseb/78I3hc2X2yF05D7V6L6GsboUwyAHp1CGAMsnTtJMz/CH7tnBbEx7Kiezf0YTEbKYNPsfGQSBE4R8Lj98DMUAgdmoZ4eszFLlI+gFD3k4i+vhFSmQFI528JXZneOguSHAZrbvMYqaaw/eBvIjb//+Lz/p5yF86IAYS39UFe5I2dkkQK5MJN0YgSZkM5dcBv4RFL+ADG9h+GcSPuQSIfPg1Y4v7FWeflgaOQhgY8SvVQ0M+fQWr/ERg3nHWf3oxD6r9UgObwecYQPPQ+aOqfQkW9ZPTzvyO9/wjMc9cR2HdYfKgutsJhhKRHEfpqL+iI9zW5io8yTZ46hcx73yB/z/txF8BzcDTxN9Qv9kC+eNQzwkcJnPcdDMj46851jI5mkDec+S7w+oAZOgI/fY7Qvt2gl/sBy1n2fHrTLGhuDuPWzUueAZTl83RkCPT7j4CjGtjiNbDnLwebuxQI89hmDZ4qmGR7exuuXD6LpctWo312uApuk0uDXDwO6eJxgZhfGCM6C0SLgKkaiKqBBQIgigzwi2RKxf0sERcADLDHORGznQtlwwAx8kAuA5LJAKmUc4lccu+aTuegaSHRp9o0a0JvlfX8hNp8c+S31/fiwL0H/MnlUW5arm21cg48EmnHdwe/xpaXXhDNolEVasgb+v4XG+6HvBlKmywAAAAASUVORK5CYII=;" parent="1" vertex="1">
          <mxGeometry x="662.38" y="203.26" width="54.62" height="50" as="geometry" />
        </mxCell>
        <mxCell id="vP00YayC0I7qo__Pr0LN-3" style="rounded=0;orthogonalLoop=1;jettySize=auto;html=1;exitX=0.5;exitY=1;exitDx=0;exitDy=0;entryX=0.5;entryY=0;entryDx=0;entryDy=0;" parent="1" source="vP00YayC0I7qo__Pr0LN-2" target="xr3ACkX85t0AnBMF9TQf-9" edge="1">
          <mxGeometry relative="1" as="geometry" />
        </mxCell>
        <mxCell id="vP00YayC0I7qo__Pr0LN-4" value="Configuration" style="edgeLabel;html=1;align=center;verticalAlign=middle;resizable=0;points=[];fontSize=9;" parent="vP00YayC0I7qo__Pr0LN-3" vertex="1" connectable="0">
          <mxGeometry x="-0.2932" y="1" relative="1" as="geometry">
            <mxPoint as="offset" />
          </mxGeometry>
        </mxCell>
        <mxCell id="vP00YayC0I7qo__Pr0LN-2" value="Product team" style="shape=image;imageAspect=0;aspect=fixed;verticalLabelPosition=bottom;verticalAlign=top;image=https://image.flaticon.com/icons/svg/1584/1584911.svg;labelBackgroundColor=#ffffff;" parent="1" vertex="1">
          <mxGeometry x="908.0000000000001" y="10" width="50" height="50" as="geometry" />
        </mxCell>
        <mxCell id="owTOdGV3xtxr8ke_7bxh-1" value="Databases" style="aspect=fixed;perimeter=ellipsePerimeter;html=1;align=center;shadow=0;dashed=0;spacingTop=3;image;image=img/lib/active_directory/database.svg;" parent="1" vertex="1">
          <mxGeometry x="575" y="331.76" width="50" height="37" as="geometry" />
        </mxCell>
        <mxCell id="owTOdGV3xtxr8ke_7bxh-4" style="edgeStyle=orthogonalEdgeStyle;rounded=0;orthogonalLoop=1;jettySize=auto;html=1;exitX=0;exitY=0.5;exitDx=0;exitDy=0;entryX=1;entryY=0.5;entryDx=0;entryDy=0;" parent="1" source="owTOdGV3xtxr8ke_7bxh-3" target="NzumEa65dsL6FT-qP8ik-16" edge="1">
          <mxGeometry relative="1" as="geometry" />
        </mxCell>
        <mxCell id="owTOdGV3xtxr8ke_7bxh-3" value="Product team" style="shape=image;imageAspect=0;aspect=fixed;verticalLabelPosition=bottom;verticalAlign=top;image=https://image.flaticon.com/icons/svg/1584/1584911.svg;labelBackgroundColor=#ffffff;" parent="1" vertex="1">
          <mxGeometry x="680.0000000000001" y="10" width="50" height="50" as="geometry" />
        </mxCell>
        <mxCell id="owTOdGV3xtxr8ke_7bxh-5" value="Technology &#xa;Support teams" style="shape=image;imageAspect=0;aspect=fixed;verticalLabelPosition=bottom;verticalAlign=top;image=https://image.flaticon.com/icons/svg/1584/1584911.svg;labelBackgroundColor=#ffffff;" parent="1" vertex="1">
          <mxGeometry x="908" y="495" width="50" height="50" as="geometry" />
        </mxCell>
        <mxCell id="owTOdGV3xtxr8ke_7bxh-7" value="" style="group" parent="1" vertex="1" connectable="0">
          <mxGeometry x="117.99999999999999" y="10" width="110.35000000000001" height="73" as="geometry" />
        </mxCell>
        <mxCell id="owTOdGV3xtxr8ke_7bxh-6" value="" style="shape=image;imageAspect=0;aspect=fixed;verticalLabelPosition=bottom;verticalAlign=top;image=data:image/png,iVBORw0KGgoAAAANSUhEUgAAAKwAAAAtCAYAAAAz3YClAAAACXBIWXMAAA7EAAAOxAGVKw4bAAAAB3RJTUUH5AsTBC4hNBqL+gAAAAd0RVh0QXV0aG9yAKmuzEgAAAAMdEVYdERlc2NyaXB0aW9uABMJISMAAAAKdEVYdENvcHlyaWdodACsD8w6AAAADnRFWHRDcmVhdGlvbiB0aW1lADX3DwkAAAAJdEVYdFNvZnR3YXJlAF1w/zoAAAALdEVYdERpc2NsYWltZXIAt8C0jwAAAAh0RVh0V2FybmluZwDAG+aHAAAAB3RFWHRTb3VyY2UA9f+D6wAAAAh0RVh0Q29tbWVudAD2zJa/AAAABnRFWHRUaXRsZQCo7tInAAANc0lEQVR4nO2dfYwT55nAf+YbPAQCAc+WAEk9SQlqaidtOV3t3IVwl3V7l9CsUa/pSSx3KlRlkQ74Y+GkwlGI7rJRA1Rab3Wh0q1XbVKd1uiqtoqHKKAo47RJLjk7uQaajEMTQjIuCR+74+XD3t37w57BY4+99nrbHLvzk5D9zDvzvB9+5pnnfd53Ftfo6OgoDg43CNM+7QY4ODSCY7AONxSOwTrcUDgG63BDMWMilLwzeJlnPzrPqYEhLg+PVD1PnDOLVTfNo/12z0RU6zAFadpg3xm8zL+dPENpssHlctnK2pVraFeusXDWDNYvW9xs1Q5TkKZDgpc/GaQ8MzaW/F8ffMypgaFmq3aYgjRtsB8MXTG/u1wuS1kt2TFYh/HQtMGWGmEjnrbcmB0c6mFCsgSNeFZDdhbYHMbDhBhsozHs6Oio42EdxkXTBlvrMV9Ldjysw3iYNDHsA2vX8cDadRXHo71RHli7jmhvdMLq6ti6jUe+3sbQUO2J447tO3lg7TqSyVRdel944QUe+Xob39+3fyKaOSlpymBfO69zamBoXDHsc9oF9PxwM9V/qly6dOmG0jtZGLfB/vLD8/z43Y+A8cWw2fwwPzj1AcmL+nib8P+GP4YXd7Cn6krXy58M8HzmIu9nr3B1pGBwditYpVRb4aomvz90lR/+7qxt+cKZM/DOn8s3li9h6ZyZ4+2fwyTD1mCfz1zgJ7//Q8Xx8XjS8coXc3leOz+Idvka372jhWVzZ1frw7iIx2VeSiTQdR2f30843IYgCADouk5PpAdN0wBoDYVobX3QVk8ymSKVKsSoqVSKaLSP1tYHEUXRPEfTNPbuiaHrOoFgkHC4raF2ZjIZAoGv0BPpAaAtHCYYDJjnKEqCo7EYAF5Jor19I4IgmG0rbY+hzzhmyF6vl2OyjMfjoWNbh0WnKIpsbN9o6tA0DVk+htfr5aVEAk3TEEWRrR1bzTEEUFWVo7GjaJqGIAi0hcP4/T7L2B2TZTRNwytJhMNtlnGzw9ZglXMDFrkezzl3motVC9xMB/77gm4pF2ZM596bBS7m8rxxMduQJz57+SrPZy6y8bb6Nszs3LHTImtapuKcrse7kOVjuN1uRFEk2hsloSQ4eOhJ84eOx2W8Xi+6rtP1eBfaRx/Rvqm9QlcqmTQnVclkimQyhc/nswx8T6QHt9uNruskkyn0wUFbXXbIcblwI/RG8fl8qKrK3j172X9gP8FgAEVJsHfPXgA8Hk+hLaOjdGzrIJVMEo32Wdpj6DOOGbKBcTNFe6NomoYkScTjMoqS4OlnfoogCGhaxgx/PB6P2XdN0zh46CBARbsymQyKkqBzVyehUCvxuMwTXU/gdruRJIlYfww5LvPUkX+vabS2Bvvu4BDgAkaLnyM15VDLQv522S3MnzkdgE+u5oi8fZa0fpmHlt3Cw7fewqxphfDhjYs6PzmdIXMlV7f+s9mrY/+yRcaakauqanqHQ4cPIggCsf4YkUgPclwmvKHgvZ5+5qeIooiu62z+9hai0T5bIzOORaN9tLdvtD0nHG6jfVM7uq7z6De/RSx2tG6DNTAMVFVVtmz+DrH+GMFggLSqAhAKtdK5q5NkMmXxYvUSDrfRsa3DlA8dLhhe6fjE+mOWdvt8PvO8Hdt3kkymUFUVSZLoeryrot2x/hh+v898grndbg4dPogkSWa/It09HHisepbE1mDz+WEzuT/Wp1eYy6Nl3m/x7Jn8o7eFX5w5x4YVSyxlX1gocOAL89j68imuDI/UVc/wcP3ZhOMnnrfI0d4o0WifKSeUBADpdJqHH1pvOVdREoQ3hInHZXoiPeh6YUJoPOaMH6NRfH6/qUeSJItHqxcjBCivvzXUSn9/zPSCwWAASfJaHs31EAgGze+6rrN3z17z5r/e/7TlmtIbw+/3kUql0PUsqqqSzWbx+XyWdu/avQsoOBVjbLds/o5Fp1q8Aatha7C5XI7rHs7AXv7qslttFd86bzbf/Zx92ezp0/j8TfP49R8ujKkfIJ/P1+xEIxiD7/V6LXEgQCAYQNM081FlxHn9/YVYTtezNXV+GoiiyDM/expFSSDHZeJxmcFB3eKlDOOol0h3hGQyZY6RqqZJFOP9ejDGI5u1jpeu65axEgShIp4PlP0m5dimtXL5YXK5XPEzX1P+86UL6+pEOS1zZ9alP5fLMzxSfVN4oxgDkslkEFta8Pn9ZDIZUqmUGZ8BtLS00BoKIcyfXzHw5XiLXi+dTpNKpczJ2p+CZDJFT6QHSfLSGmoFMOs32tUX7SOVShGLHa3LuxtjEPpqyByfRhBFEa/Xi6qqRCI9hXAgdpSHH1pvhgUej6dgwPPnF55ALheyfKyqUzCo4WELuHAxWuL5yuXTA0PcftO8hjoEMDIySi6XG1O/C9eEelhRFOnc1UmkO2LGWVCIxwRBwO+/Ptg7d+zE7Xabk4Zq+P0+AoHCBEhRElVj2T8GcjyOLB8jHpfNY+ENYaAQRgQCARKJBDu219cX4/pUKkWkOwIUnkaNcuCx/ezYvpNYf4xY8Qnl8XjwFcMIo9yowygXBHdNvS67v0sQ+rlSdwz7D3et5O/uXN5wh3Yn3iT58aW66vEtWcgTgbtr6jPirfIJh6ZpaFoGUfRUpJoSSuEx55UkS3ig6zqKkiCr6wSCAXRdR9ezZmz43nvvAbBkyRLmzbt+sypKgoymEQgGEEURVVUt1wHmMbuJkaEXYOXKlVXPTyZTCILbjGdVVTVj80AwUBHnlrarvC92bTTGR47LeCUJv9+HqqbNOnVdR1XTljE1xrlcj6IkSKuqqae0zBjnTDGtVR6i2WFrsOv6T1BvDHv7AoEf//WXx6yolFPnB+g4/npd+gF8SxZy8C/vaagOh8mJbQybL8aQ+WIMWUt+++OL/EvijYYq/VHynbr153J5hmu82OgwtbCNYVctFHjz3AUzK2pQTX7u3bMsc89li/+OMSvcEv8N/3vuQk195bL3ptpxjcPUwdbDfu2znzE93TVz1l5bPvL6KQ6+/NuqFWWylwn97Dle//BcXfpK5U131x/015qhV0vL2B1vJBXUaNqokeubbdtkY/q+ffv2lR9ctXgB94qLOX1+gEuXr3I1n2dkZGTMf6nMJ2SyV7h/ZYtF33PvnmXzLxUuXblal56RkREWz5mF37OIJ/9qDS3C3DE7EumO8Oorr3Lm/TPE+o+yYsVyFi1aBBQmKZHuHjLFidaZ98+wevVq89pdnbsJFVNCUDCIaG+UNWvWAIXFh0h3Dyffeou0msZfXAgwzo10RwiWJN4BHv3mt0goCRJKglmzZrFixQoAnn32WZYuXcqcOXPQdZ0jTx0hraaJ9R9l9eq7zElJrD/GieMnzLJFixaZE5y33jqJHJfNdhSWSV1jrsNPBqru1vpSyy1E1/9F1QuPvHaSI6//juy1nGVW/59vqgxeuco/33cPi+fO5uk3Vf71xaTt7H/1kpvpWLOa+2/7TFOdiPZGCQSD5kzaWLOXJKk4241bEumx/pi5KgSYy4ZGOijaG63wYh3bOvD7fcSLyXnDwBUlga5nzQ0gBqFQq5na2rF9p+0MWFXTeCWJUKjVklRXijP+0qXSrse7LLPy/v6YbUZgsjPu/bCbv3gXj639Ivl8vjhBuv75i5On+adfKfzold/y/eOvVpTncjncM6bz1EP3NW2sUDDQ0rSPIAimgSSKy62lhDeEkUvyltdTNSqKkkAUxareShAEsiXGnNE02jdtNNNKdm2rhiR5keMysnzMku4x9jSUt7m0jg0bwsT6Y1MuPGjqjYMHpeXcKy4urE6Zs/vC95d+/yE/ePF/TLm8/O/v9nLzBG0ZbDQGBCoS1O2b2on29pFQlApjgetbB+W4bFlR8ogikiRVbLqJx2V2bN/J5m9vYdfuziptEDh0+CBut5s939s7pvHZef3SxPtUoOl3uoaHjQlSnmu5HLl8vi55ZGTiXkI0EuClGI/V1lCrxZsaZb6SONSgY9tWy2PYUofbTSDwFQ48tt8SZ6bTaaLRPrJZ3dKGUKiVQ4cP0rGto2LTiIFhgMFggPCGsNnmQHHbYCmlN0ppvwPBoGWVa7LT9N/WyueHyQ/nGR0t2RDoYky5kR1YY9G+qZ1IdwTpjjsQBAHlRYX2TRuB4rp2cbtb8L6gZb9oObUmLV5JqogXdV03dyDp4TYi3RFTNggGA+z53t6KVR64vgLlv8ePHI+bMW8o1EqkO0IqmcR/jx/lRQWf32/bvmAwQCqZrGOUJge2K12NsP4/fk7i9IfW7ax1fHau/TKda7/UVOPLMZYH7ZY97ZYTDey2DZZOoowd8+XLirquVyz3ll5jd/2FCxeYNm0aCxYsMOu2Wxot7U95mV3d5TuhJitNG+zfHDlK4vTZuj2rIe9et4bd6/6s+R44TCmaDgmGhwvJfVeJBx0dZUx5eAJjWIepQ9MGu2rJzZx4+72G3pZ1uVwsXzD5H18OE0/TWYJv3HtXw2/HtvnuZOOazzdbtcMUpOkYFuCl02d58vgrvJA+w8Dl6y8MlnvW2xYt4BHfnXQ9fH+zVTpMUSbEYB0c/lQ4/4uMww2FY7AONxSOwTrcUPwfCEiGeR1iMJMAAAAASUVORK5CYII=;" parent="owTOdGV3xtxr8ke_7bxh-7" vertex="1">
          <mxGeometry x="1.4210854715202004e-14" width="110.35" height="28.87" as="geometry" />
        </mxCell>
        <mxCell id="3j8oUQN09gYwykHITEtm-7" value="Comparison websites" style="shape=image;imageAspect=0;aspect=fixed;verticalLabelPosition=bottom;verticalAlign=top;image=data:image/jpeg,/9j/4AAQSkZJRgABAQAAAQABAAD/2wCEAAkGBwgHBgkIBwgKCgkLDRYPDQwMDRsUFRAWIB0iIiAdHx8kKDQsJCYxJx8fLT0tMTU3Ojo6Iys/RD84QzQ5OjcBCgoKDQwNGg8PGjclHyU3Nzc3Nzc3Nzc3Nzc3Nzc3Nzc3Nzc3Nzc3Nzc3Nzc3Nzc3Nzc3Nzc3Nzc3Nzc3Nzc3N//AABEIAGkAyAMBEQACEQEDEQH/xAAbAAEAAgMBAQAAAAAAAAAAAAAABQYBAwQHAv/EADsQAAEEAgECAggEBAMJAAAAAAEAAgMEBREGEiExUQcTFCJBYXGBFTKhsSNCkdEzN3MWJYKTsrPBw+H/xAAaAQEAAwEBAQAAAAAAAAAAAAAAAgMEAQUG/8QAMREAAwACAgECAggFBQAAAAAAAAECAxESIQQTMUFRFCIyNGFxgfAzQpHB4SNEobHx/9oADAMBAAIRAxEAPwD3FAEAQBAEAQBAEAQBAcct1u+mEdZ8/ggPkTTO7lwH0CA+xM8fzb+yA2snB/N2+aA2g7QGUAQBAEAQBAEAQBAEAQBAEAQBAEAQBAEBw25DIfVtPujxPmgI+/kaOKa025g17vysHdzvoFC7U+5KYdexB5HmTYKzpKtXZ8G+td8fnr+6ofk/JF8+P82R3EvSJVyFz8Ly8rI77nkROawhsgOzrtvRCsjL19YjeHT+qW25msbSYX2rbWMHieku/YLvrY/mQ9K/kSFC3FZhimrytlglYHRyMdtrgfAgq0ra0dyAIAgCAIAgCAIAgCAIAgCAIAgCAIAgPmR3SwlAQWfykWDwtvJSjqEDNhu9dTiQGj7khcp6WzqW3o8Ix2atZrK2bt+w98nX7o8Af/n7LLZrnr2LXAYrQY2cdTB4t3razvosTJSm7EYgmWOtFA94958UO3H6kDag+TJozZy1DKTRUqLpbFmdwYxjInD7kkAADxK7GOm9HKaS2y+YmgzGY6CnG7qbE3W9a2Sdn9V6crikjz6rlTZLxO6mKRE+0AQBAEAQBAEAQBAEAQBAEAQBAEAQGqx/h/cICm+k6hZyHCMjHTYZJouicRjxeGPDiB89ArjW0Sl6ezwTDvY2UyRSAtd3WekaFouGPt+HdUtFiZP154p2dEgDgqmiwvHGMJWx0HtIhDbEw/M4e81vl8vNbcEcZ2/cx5snJ6ROq8pOiqdsP1QG5AEAQBAEAQBAEAQBAEAQBAEAQBAEB8SjqYQgORAeJek7gb8flYsjxym50Fvq9dXi1qJ4+LR5Hfh8CPmqctxGuT1sthsqW7uOLW369ivs9jKwtB+hPiq1qvsvZamXPgDmZLP04Zev1J6ng6PS4tBIG/D4foVGZl3pnbbUvR7M4gb2thkNEkwCA7qIIrtJ8Xd0B0IAgCAIAgCAIAgCAIAgCAIAgCAIAgCA5JWdLjrwP6IDzz0v56xhKGM9jMZmlncS17d7aG9/1I/qs/kYYypKjV4scmyq4P0mRO/g5rHfwndnPhPW37sd/crJ9F4fZZprxW/ssulS5jr0nr8RYjlqvAIDD+Q+RHiPoViyY+GQpc1K1SLDBO8V/eOwB4+S9Pxcra40ZrR9VI33Z+juI2/nK2lZYAABoDQQGUAQBAEAQBAEAQBAEAQBAEAQBAEAQBAYLQRojaA8w9LHDc7nrVa5hxDYjrwlgql/Q8EnZIJ7Heh5eCjSbNfj5oxppnkk2EzVKUxZLDW4SP5vZ3dvuqWmenizRXxRKYOlna91k2Ip3jLv+SFxDvk7tohVXKvpo1X6DnWRrX5nufHat21jY35Woacr26khLg4j5ghMPj1L2z5/yOCtrHW18yfrwR14mxxN6Wj9VtM5tQBAEAQBAEAQBAEAQBAEAQBAEAQBAEAQBAEAQBAYGkBlAEAQBAEAQBAEAQBAEAQBAEAQBAYPggPPZ+Z5/MZ63juH4+nNFT2Jp7fVpxB1204aGwdeO9b7LavHxxCrM/f5GX17q3ONex157m1/DYrGss4tv47f2GU2ydTWHq1skeexofXv22o4/HnJT1X1V8Tt56iVtdsjpua8m49kacfLsbRZUtdvW1OodHcbPdzvDe9dvkSprx8OWW8Te18yNZ7x0lkXTOrMc2y9Tl9jBY3Fw3T6tpgAcWuLi0O24710gb/RRx+NFYldPR2s9LJwS2cFLn/JYsrZwmQwcE+WBDYY6xLGg63t23H3dHewf7qyvFxOFkmtT+JFeRfJw57JDi/MszNymTj/ACalVr2i0mM1w4DYG9d3HYI+I8lXl8fGsfqY30Sx56eTha0cGK5xyvO+3VsPiaEtmrKeqR5cGNZ3DRou2XHpd8QOynfjYcendPTIxnyXtJexL8R5ncz+EyL/AGBjsxRad1WO6GzHR6QN76dkEd/DzVWbx1jtd/VfxLMOZ5JfXaI7Nck55hqjsndxWIZRY5vXGHOc9oJAGyH+Z1vXx8FZjxeNkrjNPZDJlzRPJytHVyHn0tDA4TMUa0Tob7/4rJdksaPzAaI7+IUcXjK7qG/Ylk8jjE2viaW88y1THX8zmMQ2tjnBgxkZ7STud1fmJd5Df5R28Nrv0aKpRFbfxOeu1Dul18DRZ5nyzDV6mVz2KofhVlw22v1iaMHuN7cRvXw13+SkvHw5G5intHKz5ISql0ejxSNljZJGdse0OB8wVgNZ9oAgCAIAgCAIAgCAIAgMPG2kDxIQHkvorydPD5DN0MrPHVn9bvczg3ZaXBw2fiPL5r0vMirmalbRh8a5mqmvmfPN8rSk5hxvOwWGz43q6fXM7tBZJp/9Ngp48V6Vxrv/AAcz0vUi/gbvS5kKeajw+MxVmK1amn2BC4P0HDpG9eZP6LnhS8bq6WkS8qlfGZ9zbA0s9NgafFtcA/8AIC4/un7+Y/3P6GyX/O+P/Q/9JXF9zf7+If3r9DXe7+nGl28Ix/2Xrs/c3+/icr70jh9FeXx2IuckkyV2Gs1z43N9Y8Au06Xeh8fEf1U/LirmFK3+0c8a5mr2zl41kLmMw/K+U0ouls8oZWc5vYEvJLtfHp6h9/upZYm7x4n+pHHTibyJGrMiK3wc5TIcqtW8jZDdUfaQGdXWNtMY8gCfh4LuPaz8JjSXx1/cjk7w8qrs+ORf5ccS/wBaT/qcu4v4+Q7f8CC0emmCWTi+PmjaXRxWB19uw2wgE/ft91m8BpZGXeYv9NHF+DcVyOIimu8yvPruaHGKzfB6TrwLT4EfRT9TNF6nGt/kc9PHULddHp2Ohjgo14YXl8UcTWscfFzQBorz6bbezYvY6Vw6EAQBAEAQBAEAQBAYKA48ZkauWx8V6hKJq0oJZJojYBIPj8wVKpc1xr3OKk1tEIMJxTln+9fYYLZLiwzAOYXFp0d61vWtd1b6mbD9Xeit48eT62iWs4HE2sazGz4+u6kz8kPQA1n014H5hVrJarkn2SeOWuOujnxPE8Dhp/X47Gwwza0JO7nAfIuJ19l282S1qmcnFEdpHSMHjBlzlhTj/ECNe0d+rWtft2XPUrjw30S4Ty5a7BwmMOWGWNSM5ADpE/fq1rX7dk9SuPDfQ4Tvlrsw/CYx2Xbl3U4zfb2E/fqA1r9k9S+PDfQ4Ty5a7KvgPRvjKFi7LlBBkxYe18bZYdCLu4nXfvvqH9FoyeZdJKetFEeNEtt97Li6hTdSNF1aE1HM9WYOgdHT5a8NLLye+W+zRxWtEPW4RxqqZTDiINysLHF23diNEDZOvsrX5OV+9Faw459kclCDiOfi/CateGxHi3HUBa4CEkkHW/mCu082P67+JxLFa4r4FlsVK9qs+tZhZLBI3pfG8ba4eRCpTae0WtJrTIODgnFoZvWsw1cuB3p5c9o/4SSFc/JzNfaK1gxp9IkMhmsdibFOrcsMhltyCKvH0nbzsAAa+ZAVc47tNpexKrmWkySCgTMoAgCAIAgCAIAgCAjs/QhyOLmhndM1gBeDDM6N2wO3dpB18lPHTmk0RtbWipeizD1hxfGZQSWvaHRyAt9qkMX53DtHvp/RafMyV6lT1r8v7lPjpemmcXCOMw5rjjpLt++I/aJxDDBYdEyI9Z97TddR3397f0Us+Z48mpS+H4/Ajix8pe2aWckyNLgHq5r/AE3W5J2N9ulOyxod3kO/iG7/AHXfSms29da3o5zc4/f46NF7K8fw0mPucY5I61cbajZZhfffN7VG46cS1xI6vjseClMZbVLJGlrrrWiVanTlmOSR3L/pXbiq+TtUo7cAY98LzsNEZcdeRPTrfzTFxnxubW9f+FWTk8/FPXRwfg93Fc9dxnH5u9BUvRgvkD9v6S0k/fbSOofAqfqTeD1albRHhU5eCrpnbia03E/SjWw9W5Ymp3IveEz9kgtce/w2HN8fmo21m8Z212iUp486lPpndyrG8ThyNl/IOUX22XvLhC2cv9SD4AMDToeChhvO5XCFonlWNP61MjOGZO3Pwrl1V92axFVpyuryPcepoMb/AAPiB2B18FZnxzObG9e7RXgtuKW/Y3ejjB38/UpZPI5af2XH2CK1YHfUQ7qcXE/XXnoLnl5JxtzM9s740VaVU/Yq8Wflw1jlEFVxbbv2DCyQHXQ3rf1HfwPfQ+u/gtDxK1DfskZ/U4O0vdlv5EbfBOBQQVbUj8lflDZ7PrC4tPSS4MJ8ANAD6k+Ky4uPkZ22ul8DTkbw4dJ9sq2SvYTE0aV7jXI7k2aic02A/wBYGydve/MANb+GzsLTEXdOckLj+hTdzKTinv8AUkObY6G1y/j8wnshuYdDJJ/E/wALre1p9X293t3+qh49axWte2yXkRvJP4nptTjEFPFw0IZ5pGRes1LO7qk0/e/eGiPFedWV1Tpo2rHpaJPG1ZqsTxYn9dI9/W5/TrZ0Ae2+3cE6+ahTTfRKVpdnYokggCAIAgCAIAgNVlhlryRt8XsLR9wup6ZxlL9HFq3RwlLA3sPk69muJGyTSV9Qj3nOGn77+Ou21q8pKreRNaf9SjA2p4NEj6OqdmjxpsN2vJBL7TM7okb0nReSCq/JpVk2vw/6J4U1PZWmceys3F7Tq9R7chVzkl6vDMOn1oD9jW/MeCv9WFkW3050VOKcdLvZZqfKZ7bmRN45nGTEgPEtYMYzzPW4gED5KisCn+df1LFlb/lZX7eLyDvTFTyLaVg0Wx6NgRnoH8F47n6kBXzc/RHO+/8AKKnNfSFWujZksXff6W6GQZSsOpsga11gRnoB6X9t/cf1XIufornfZ25r6QnrrR85bF5CX0uYzIMpWHUo4QHWBGSxp6JPE/Uj+qRcrxanfZypr6Qq10QXGI8xxfLZSO7xW7k7liTcdlkW2E7dv+IQQAdg78fNX5vTyzPG9JFeJXjqtzvZ1cYweXqYXmsNzHTxT2a0oiY1hIkcWydmH+buR4fJRy5Iq8bT6Wv7EsUWle17lm9FdG5juKiC/WmrzCzI71crC06OtHSz+ZU1l3LLfFlzj0ym4zht/Kf7VQ3KM9eSSUzUpJYy0OeHvI0fIg6+61X5Mx6bl717/wDBnnA75pr8j7nw2f5HwKLG28faiyGKlBhE0Zb6+HpLdAnt1D/wPNFkxYs3JPqg4yZMXFrtExjuUZl9SGv/ALCXJL7WBrnyReqicR8epzeyprBj3v1FotnJekuHZq9JGPygznHsxTxVi0yp0OkirRl5a5r2v6dNB7eI34dlLxbjhcN62c8ia5zSW9F9wOQsZTHMtWsfPQe9x1BP+cD4E+W1iyQorSezVFOltrRIqBIIAgCAIAgCAIAgCAIAgCAIAgCAIDCAygCAIAgMBAZKABAEAQBAEAQH/9k=;" parent="owTOdGV3xtxr8ke_7bxh-7" vertex="1">
          <mxGeometry y="23" width="95.24" height="50" as="geometry" />
        </mxCell>
        <mxCell id="ryQB97WM9e5WfgQje1Sr-2" style="edgeStyle=orthogonalEdgeStyle;rounded=0;orthogonalLoop=1;jettySize=auto;html=1;exitX=0;exitY=0.5;exitDx=0;exitDy=0;entryX=1;entryY=0.5;entryDx=0;entryDy=0;" edge="1" parent="1" source="ryQB97WM9e5WfgQje1Sr-1" target="owTOdGV3xtxr8ke_7bxh-3">
          <mxGeometry relative="1" as="geometry" />
        </mxCell>
        <mxCell id="ryQB97WM9e5WfgQje1Sr-3" style="edgeStyle=orthogonalEdgeStyle;rounded=0;orthogonalLoop=1;jettySize=auto;html=1;exitX=1;exitY=0.5;exitDx=0;exitDy=0;entryX=0;entryY=0.5;entryDx=0;entryDy=0;" edge="1" parent="1" source="ryQB97WM9e5WfgQje1Sr-1" target="vP00YayC0I7qo__Pr0LN-2">
          <mxGeometry relative="1" as="geometry" />
        </mxCell>
        <mxCell id="ryQB97WM9e5WfgQje1Sr-1" value="Actuaries team" style="shape=image;imageAspect=0;aspect=fixed;verticalLabelPosition=bottom;verticalAlign=top;image=https://image.flaticon.com/icons/svg/1584/1584911.svg;labelBackgroundColor=#ffffff;" vertex="1" parent="1">
          <mxGeometry x="790.0000000000001" y="10" width="50" height="50" as="geometry" />
        </mxCell>
      </root>
    </mxGraphModel>
  </diagram>
</mxfile>
